SplineFontDB: 3.2
FontName: PassionOne-Share-Regular
FullName: Passion One Share Regular
FamilyName: Passion One Share
Weight: Regular
Copyright: Copyright (c) 2011 Fontstage (info@fontstage.com), with Reserved Font Name "Passion"\n"Fair and Share" tax glyphs by Vector Hasting and released under CC 4.0 SA-BY 
Version: 1.002
ItalicAngle: 0
UnderlinePosition: -102
UnderlineWidth: 51
Ascent: 819
Descent: 205
InvalidEm: 0
sfntRevision: 0x00010083
LayerCount: 2
Layer: 0 1 "Back" 1
Layer: 1 1 "Fore" 0
XUID: [1021 508 542950195 19447]
StyleMap: 0x0040
FSType: 0
OS2Version: 2
OS2_WeightWidthSlopeOnly: 0
OS2_UseTypoMetrics: 0
CreationTime: 1323135632
ModificationTime: 1758756572
PfmFamily: 17
TTFWeight: 400
TTFWidth: 5
LineGap: 0
VLineGap: 0
Panose: 2 0 5 6 8 0 0 2 0 4
OS2TypoAscent: 855
OS2TypoAOffset: 0
OS2TypoDescent: -272
OS2TypoDOffset: 0
OS2TypoLinegap: 0
OS2WinAscent: 855
OS2WinAOffset: 0
OS2WinDescent: 272
OS2WinDOffset: 0
HheadAscent: 855
HheadAOffset: 0
HheadDescent: -272
HheadDOffset: 0
OS2SubXSize: 717
OS2SubYSize: 666
OS2SubXOff: 0
OS2SubYOff: 143
OS2SupXSize: 717
OS2SupYSize: 666
OS2SupXOff: 0
OS2SupYOff: 488
OS2StrikeYSize: 51
OS2StrikeYPos: 256
OS2CapHeight: 636
OS2XHeight: 490
OS2Vendor: 'PYRS'
OS2CodePages: 20000001.00000000
OS2UnicodeRanges: 800000ef.4000204a.00000000.00000000
MarkAttachClasses: 1
DEI: 91125
TtTable: prep
PUSHW_1
 511
SCANCTRL
PUSHB_1
 4
SCANTYPE
EndTTInstrs
ShortTable: maxp 16
  1
  0
  269
  82
  7
  0
  0
  2
  0
  1
  1
  0
  64
  0
  0
  0
EndShort
LangName: 1033 "" "" "" "" "" "Version 1.002" "" "Passion is a trademark of Fontstage." "Fontstage" "Alejandro Lo Celso" "" "www.fontstage.com" "www.fontstage.com" "This Font Software is licensed under the SIL Open Font License, Version 1.1. This license is available with a FAQ at: http://scripts.sil.org/OFL" "http://scripts.sil.org/OFL"
GaspTable: 1 65535 15 1
Encoding: UnicodeBmp
UnicodeInterp: none
NameList: AGL For New Fonts
DisplaySize: -72
AntiAlias: 1
FitToEm: 0
WinInfo: 57360 12 4

StartChar: exclam
Encoding: 33 33 4
Width: 305
GlyphClass: 2
Flags: W
LayerCount: 2
Fore
SplineSet
93 195 m 1,0,-1
 82 636 l 1,1,-1
 256 636 l 1,2,-1
 242 195 l 1,3,-1
 93 195 l 1,0,-1
80 70 m 0,4,5
 80 111 80 111 101.5 131 c 128,-1,6
 123 151 123 151 170 151 c 128,-1,7
 217 151 217 151 238.5 131 c 128,-1,8
 260 111 260 111 260 68 c 0,9,10
 260 -11 260 -11 170 -11 c 128,-1,11
 80 -11 80 -11 80 70 c 0,4,5
EndSplineSet
EndChar

StartChar: quotedbl
Encoding: 34 34 5
Width: 447
GlyphClass: 2
Flags: W
LayerCount: 2
Fore
SplineSet
137 656 m 128,-1,1
 228 656 228 656 228 563.5 c 128,-1,2
 228 471 228 471 99 390 c 1,3,-1
 39 413 l 1,4,-1
 102 496 l 1,5,-1
 100 501 l 1,6,7
 46 512 46 512 46 575 c 0,8,0
 46 656 46 656 137 656 c 128,-1,1
342 656 m 128,-1,10
 433 656 433 656 433 563.5 c 128,-1,11
 433 471 433 471 304 390 c 1,12,-1
 244 413 l 1,13,-1
 307 496 l 1,14,-1
 305 501 l 1,15,16
 251 512 251 512 251 575 c 0,17,9
 251 656 251 656 342 656 c 128,-1,10
EndSplineSet
EndChar

StartChar: numbersign
Encoding: 35 35 6
Width: 507
GlyphClass: 2
Flags: W
LayerCount: 2
Fore
SplineSet
483 330 m 1,0,-1
 403 330 l 1,1,-1
 395 286 l 1,2,-1
 462 286 l 1,3,-1
 462 158 l 1,4,-1
 379 158 l 1,5,-1
 358 0 l 1,6,-1
 229 0 l 1,7,-1
 248 158 l 1,8,-1
 218 158 l 1,9,-1
 195 0 l 1,10,-1
 59 0 l 1,11,-1
 83 158 l 1,12,-1
 25 158 l 1,13,-1
 25 286 l 1,14,-1
 100 286 l 1,15,-1
 109 330 l 1,16,-1
 47 330 l 1,17,-1
 47 456 l 1,18,-1
 124 456 l 1,19,-1
 146 610 l 1,20,-1
 280 610 l 1,21,-1
 259 456 l 1,22,-1
 287 456 l 1,23,-1
 307 610 l 1,24,-1
 440 610 l 1,25,-1
 420 456 l 1,26,-1
 483 456 l 1,27,-1
 483 330 l 1,0,-1
278 336 m 1,28,-1
 238 336 l 1,29,-1
 228 280 l 1,30,-1
 268 280 l 1,31,-1
 278 336 l 1,28,-1
EndSplineSet
EndChar

StartChar: dollar
Encoding: 36 36 7
Width: 470
GlyphClass: 2
Flags: W
LayerCount: 2
Fore
SplineSet
56 347 m 128,-1,1
 33 388 33 388 33 453.5 c 128,-1,2
 33 519 33 519 69 571 c 128,-1,3
 105 623 105 623 172 639 c 1,4,-1
 172 735 l 1,5,-1
 307 735 l 1,6,-1
 307 643 l 1,7,8
 358 639 358 639 422 628 c 1,9,-1
 401 464 l 1,10,11
 300 488 300 488 262 487 c 0,12,13
 214 487 214 487 214 449 c 0,14,15
 214 434 214 434 237 419 c 128,-1,16
 260 404 260 404 293 388.5 c 128,-1,17
 326 373 326 373 358.5 351 c 128,-1,18
 391 329 391 329 414 288 c 128,-1,19
 437 247 437 247 437 182 c 128,-1,20
 437 117 437 117 404 66 c 128,-1,21
 371 15 371 15 307 -1 c 1,22,-1
 307 -81 l 1,23,-1
 172 -81 l 1,24,-1
 172 -7 l 1,25,26
 106 0 106 0 50 19 c 1,27,-1
 61 172 l 1,28,29
 171 140 171 140 214 140 c 128,-1,30
 257 140 257 140 257 178 c 0,31,32
 257 197 257 197 234 213.5 c 128,-1,33
 211 230 211 230 178 246.5 c 128,-1,34
 145 263 145 263 112 284.5 c 128,-1,0
 79 306 79 306 56 347 c 128,-1,1
EndSplineSet
EndChar

StartChar: percent
Encoding: 37 37 8
Width: 830
GlyphClass: 2
Flags: W
LayerCount: 2
Fore
SplineSet
567 646 m 1,0,-1
 383 -10 l 1,1,-1
 263 -10 l 1,2,-1
 446 646 l 1,3,-1
 567 646 l 1,0,-1
227 413 m 2,4,-1
 227 424 l 2,5,6
 227 484 227 484 223 505 c 128,-1,7
 219 526 219 526 210.5 533.5 c 128,-1,8
 202 541 202 541 187.5 541 c 128,-1,9
 173 541 173 541 165 533.5 c 128,-1,10
 157 526 157 526 154 508 c 0,11,12
 149 484 149 484 148 424 c 2,13,-1
 148 413 l 2,14,15
 148 344 148 344 153 321.5 c 128,-1,16
 158 299 158 299 166 292.5 c 128,-1,17
 174 286 174 286 189 286 c 128,-1,18
 204 286 204 286 211.5 292.5 c 128,-1,19
 219 299 219 299 223 319 c 0,20,21
 227 345 227 345 227 413 c 2,4,-1
342 417 m 128,-1,23
 342 296 342 296 310.5 241 c 128,-1,24
 279 186 279 186 188 186 c 128,-1,25
 97 186 97 186 65 241.5 c 128,-1,26
 33 297 33 297 33 417 c 128,-1,27
 33 537 33 537 64.5 591.5 c 128,-1,28
 96 646 96 646 187.5 646 c 128,-1,29
 279 646 279 646 310.5 592 c 128,-1,22
 342 538 342 538 342 417 c 128,-1,23
683 216 m 2,30,-1
 683 227 l 2,31,32
 683 287 683 287 679 308.5 c 128,-1,33
 675 330 675 330 666 337 c 128,-1,34
 657 344 657 344 643 344 c 128,-1,35
 629 344 629 344 620.5 337 c 128,-1,36
 612 330 612 330 608 311 c 0,37,38
 604 287 604 287 604 227 c 2,39,-1
 604 216 l 2,40,41
 604 147 604 147 608.5 124.5 c 128,-1,42
 613 102 613 102 621.5 95.5 c 128,-1,43
 630 89 630 89 644.5 89 c 128,-1,44
 659 89 659 89 667 95.5 c 128,-1,45
 675 102 675 102 678 123 c 0,46,47
 683 148 683 148 683 216 c 2,30,-1
798 220 m 128,-1,49
 798 99 798 99 766 44.5 c 128,-1,50
 734 -10 734 -10 643.5 -10 c 128,-1,51
 553 -10 553 -10 520.5 45 c 128,-1,52
 488 100 488 100 488 220 c 128,-1,53
 488 340 488 340 520 395 c 128,-1,54
 552 450 552 450 643 450 c 128,-1,55
 734 450 734 450 766 395.5 c 128,-1,48
 798 341 798 341 798 220 c 128,-1,49
EndSplineSet
EndChar

StartChar: ampersand
Encoding: 38 38 9
Width: 623
GlyphClass: 2
Flags: W
LayerCount: 2
Fore
SplineSet
398 26 m 1,0,1
 331 -10 331 -10 235.5 -10 c 128,-1,2
 140 -10 140 -10 86.5 40 c 128,-1,3
 33 90 33 90 33 186 c 0,4,5
 33 255 33 255 60.5 293.5 c 128,-1,6
 88 332 88 332 141 359 c 1,7,8
 91 421 91 421 91 500 c 0,9,10
 91 660 91 660 280 659.5 c 128,-1,11
 469 659 469 659 469 500 c 0,12,13
 469 432 469 432 443.5 393 c 128,-1,14
 418 354 418 354 353 317 c 1,15,-1
 431 220 l 1,16,-1
 435 220 l 1,17,18
 447 246 447 246 447 291 c 2,19,-1
 447 335 l 1,20,-1
 583 335 l 1,21,-1
 583 300 l 2,22,23
 583 186 583 186 522 125 c 1,24,-1
 522 118 l 1,25,-1
 606 118 l 1,26,-1
 596 -10 l 1,27,-1
 544 -10 l 2,28,29
 489 -10 489 -10 460 -3 c 128,-1,30
 431 4 431 4 398 26 c 1,0,1
255 126 m 2,31,-1
 317 126 l 1,32,-1
 317 130 l 1,33,-1
 221 247 l 1,34,35
 195 225 195 225 196 193 c 0,36,37
 196 126 196 126 255 126 c 2,31,-1
321 470 m 0,38,39
 321 508 321 508 285.5 508 c 128,-1,40
 250 508 250 508 250 472 c 0,41,42
 250 445 250 445 284 412 c 1,43,44
 300 426 300 426 305 432 c 0,45,46
 321 446 321 446 321 470 c 0,38,39
EndSplineSet
EndChar

StartChar: quotesingle
Encoding: 39 39 10
Width: 242
GlyphClass: 2
Flags: W
LayerCount: 2
Fore
SplineSet
137 656 m 128,-1,1
 228 656 228 656 228 563.5 c 128,-1,2
 228 471 228 471 99 390 c 1,3,-1
 39 413 l 1,4,-1
 102 496 l 1,5,-1
 100 501 l 1,6,7
 46 512 46 512 46 575 c 0,8,0
 46 656 46 656 137 656 c 128,-1,1
EndSplineSet
EndChar

StartChar: parenleft
Encoding: 40 40 11
Width: 337
GlyphClass: 2
Flags: W
LayerCount: 2
Fore
SplineSet
195 665 m 1,0,-1
 322 610 l 1,1,2
 217 450 217 450 216.5 266 c 128,-1,3
 216 82 216 82 322 -94 c 1,4,-1
 190 -138 l 1,5,6
 108 -48 108 -48 66.5 42 c 128,-1,7
 25 132 25 132 25 261 c 0,8,9
 25 503 25 503 195 665 c 1,0,-1
EndSplineSet
EndChar

StartChar: parenright
Encoding: 41 41 12
Width: 337
GlyphClass: 2
Flags: W
LayerCount: 2
Fore
SplineSet
16 610 m 1,0,-1
 143 665 l 1,1,2
 313 503 313 503 313 261 c 0,3,4
 313 132 313 132 271 42 c 128,-1,5
 229 -48 229 -48 147 -138 c 1,6,-1
 16 -94 l 1,7,8
 121 82 121 82 121 266 c 128,-1,9
 121 450 121 450 16 610 c 1,0,-1
EndSplineSet
EndChar

StartChar: asterisk
Encoding: 42 42 13
Width: 434
GlyphClass: 2
Flags: W
LayerCount: 2
Fore
SplineSet
414 457 m 1,0,-1
 314 420 l 1,1,-1
 388 325 l 1,2,-1
 296 263 l 1,3,-1
 221 349 l 1,4,-1
 151 264 l 1,5,-1
 57 326 l 1,6,-1
 118 421 l 1,7,-1
 20 458 l 1,8,-1
 48 558 l 1,9,-1
 153 536 l 1,10,-1
 163 637 l 1,11,-1
 275 637 l 1,12,-1
 285 535 l 1,13,-1
 384 555 l 1,14,-1
 414 457 l 1,0,-1
EndSplineSet
EndChar

StartChar: plus
Encoding: 43 43 14
Width: 493
GlyphClass: 2
Flags: W
LayerCount: 2
Fore
SplineSet
440 237 m 1,0,-1
 311 237 l 1,1,-1
 311 98 l 1,2,-1
 178 98 l 1,3,-1
 178 237 l 1,4,-1
 53 237 l 1,5,-1
 53 366 l 1,6,-1
 178 366 l 1,7,-1
 178 505 l 1,8,-1
 311 505 l 1,9,-1
 311 366 l 1,10,-1
 440 366 l 1,11,-1
 440 237 l 1,0,-1
EndSplineSet
EndChar

StartChar: comma
Encoding: 44 44 15
Width: 311
GlyphClass: 2
Flags: W
LayerCount: 2
Fore
SplineSet
170 152 m 0,0,1
 265 152 265 152 265 57 c 0,2,3
 265 21 265 21 244.5 -12 c 128,-1,4
 224 -45 224 -45 201.5 -65 c 128,-1,5
 179 -85 179 -85 137 -116 c 1,6,-1
 77 -93 l 1,7,-1
 141 -8 l 1,8,-1
 139 -3 l 1,9,10
 84 12 84 12 84 70 c 0,11,12
 84 152 84 152 170 152 c 0,0,1
EndSplineSet
EndChar

StartChar: hyphen
Encoding: 45 45 16
Width: 412
GlyphClass: 2
Flags: W
LayerCount: 2
Fore
SplineSet
364 198 m 1,0,-1
 49 198 l 1,1,-1
 49 335 l 1,2,-1
 364 335 l 1,3,-1
 364 198 l 1,0,-1
EndSplineSet
EndChar

StartChar: period
Encoding: 46 46 17
Width: 303
GlyphClass: 2
Flags: W
LayerCount: 2
Fore
SplineSet
77 70 m 0,0,1
 77 111 77 111 98.5 131 c 128,-1,2
 120 151 120 151 167 151 c 128,-1,3
 214 151 214 151 235.5 131 c 128,-1,4
 257 111 257 111 257 68 c 0,5,6
 257 -11 257 -11 167 -11 c 128,-1,7
 77 -11 77 -11 77 70 c 0,0,1
EndSplineSet
EndChar

StartChar: slash
Encoding: 47 47 18
Width: 369
GlyphClass: 2
Flags: W
LayerCount: 2
Fore
SplineSet
380 636 m 1,0,-1
 159 -151 l 1,1,-1
 -10 -151 l 1,2,-1
 210 636 l 1,3,-1
 380 636 l 1,0,-1
EndSplineSet
EndChar

StartChar: zero
Encoding: 48 48 19
Width: 484
GlyphClass: 2
Flags: W
LayerCount: 2
Fore
SplineSet
301 313 m 2,0,-1
 301 329 l 2,1,2
 301 429 301 429 295.5 446 c 128,-1,3
 290 463 290 463 284 475 c 0,4,5
 273 495 273 495 244 496 c 256,6,7
 215 496 215 496 205 475 c 0,8,9
 193 448 193 448 191 421 c 0,10,11
 189 370 189 370 189 329 c 2,12,-1
 189 313 l 2,13,14
 189 201 189 201 195 183.5 c 128,-1,15
 201 166 201 166 207 154 c 0,16,17
 217 131 217 131 251 131 c 128,-1,18
 285 131 285 131 293 169.5 c 128,-1,19
 301 208 301 208 301 313 c 2,0,-1
465 318 m 128,-1,21
 465 233 465 233 456 177 c 128,-1,22
 447 121 447 121 424 76 c 0,23,24
 378 -10 378 -10 244 -10 c 0,25,26
 112 -10 112 -10 66 76 c 0,27,28
 42 121 42 121 33 177.5 c 128,-1,29
 24 234 24 234 24 318 c 0,30,31
 24 490 24 490 69.5 568 c 128,-1,32
 115 646 115 646 244 646 c 0,33,34
 379 646 379 646 424 561 c 0,35,36
 448 516 448 516 456.5 459.5 c 128,-1,20
 465 403 465 403 465 318 c 128,-1,21
EndSplineSet
EndChar

StartChar: one
Encoding: 49 49 20
Width: 327
GlyphClass: 2
Flags: W
LayerCount: 2
Fore
SplineSet
263 0 m 1,0,-1
 92 0 l 1,1,-1
 92 473 l 1,2,-1
 18 473 l 1,3,-1
 18 581 l 1,4,-1
 123 636 l 1,5,-1
 263 636 l 1,6,-1
 263 0 l 1,0,-1
EndSplineSet
EndChar

StartChar: two
Encoding: 50 50 21
Width: 422
GlyphClass: 2
Flags: W
LayerCount: 2
Fore
SplineSet
8 593 m 1,0,1
 107 646 107 646 206 646 c 128,-1,2
 305 646 305 646 356.5 596 c 128,-1,3
 408 546 408 546 408 454 c 128,-1,4
 408 362 408 362 375.5 304 c 128,-1,5
 343 246 343 246 257 146 c 1,6,-1
 410 146 l 1,7,-1
 410 0 l 1,8,-1
 34 0 l 1,9,-1
 26 104 l 1,10,11
 123 207 123 207 164 260.5 c 128,-1,12
 205 314 205 314 219 349 c 128,-1,13
 233 384 233 384 233 414 c 128,-1,14
 233 444 233 444 218.5 460.5 c 128,-1,15
 204 477 204 477 180.5 477 c 128,-1,16
 157 477 157 477 135 471 c 0,17,18
 105 464 105 464 41 434 c 1,19,-1
 8 593 l 1,0,1
EndSplineSet
EndChar

StartChar: three
Encoding: 51 51 22
Width: 438
GlyphClass: 2
Flags: W
LayerCount: 2
Fore
SplineSet
222 646 m 0,0,1
 415 646 415 646 415 479 c 0,2,3
 415 429 415 429 396.5 396.5 c 128,-1,4
 378 364 378 364 336 337 c 1,5,-1
 336 333 l 1,6,7
 383 311 383 311 403.5 276 c 128,-1,8
 424 241 424 241 424 184 c 0,9,10
 424 91 424 91 370.5 40.5 c 128,-1,11
 317 -10 317 -10 216 -10 c 0,12,13
 166 -10 166 -10 130.5 -1.5 c 128,-1,14
 95 7 95 7 40 31 c 1,15,-1
 76 174 l 1,16,17
 161 143 161 143 194 143 c 0,18,19
 242 143 242 143 242 197 c 0,20,21
 242 254 242 254 177 254 c 2,22,-1
 114 254 l 1,23,-1
 114 388 l 1,24,-1
 178 388 l 2,25,26
 207 388 207 388 218.5 401 c 128,-1,27
 230 414 230 414 230 439 c 0,28,29
 230 488 230 488 182 488 c 0,30,31
 148 488 148 488 62 454 c 1,32,-1
 23 592 l 1,33,34
 79 623 79 623 123 634.5 c 128,-1,35
 167 646 167 646 222 646 c 0,0,1
EndSplineSet
EndChar

StartChar: four
Encoding: 52 52 23
Width: 503
GlyphClass: 2
Flags: W
LayerCount: 2
Fore
SplineSet
503 124 m 1,0,-1
 431 124 l 1,1,-1
 431 0 l 1,2,-1
 260 0 l 1,3,-1
 260 124 l 1,4,-1
 28 124 l 1,5,-1
 10 246 l 1,6,-1
 220 636 l 1,7,-1
 431 636 l 1,8,-1
 431 262 l 1,9,-1
 510 262 l 1,10,-1
 503 124 l 1,0,-1
265 262 m 1,11,-1
 265 419 l 1,12,-1
 259 419 l 1,13,-1
 175 262 l 1,14,-1
 265 262 l 1,11,-1
EndSplineSet
EndChar

StartChar: five
Encoding: 53 53 24
Width: 422
GlyphClass: 2
Flags: W
LayerCount: 2
Fore
SplineSet
406 216 m 0,0,1
 406 -10 406 -10 205 -10 c 0,2,3
 112 -10 112 -10 32 22 c 1,4,-1
 44 180 l 1,5,6
 149 148 149 148 186 148 c 0,7,8
 238 148 238 148 238.5 205 c 128,-1,9
 239 262 239 262 199 262 c 0,10,11
 180 262 180 262 169 242 c 1,12,-1
 33 262 l 1,13,-1
 33 636 l 1,14,-1
 377 636 l 1,15,-1
 377 483 l 1,16,-1
 191 483 l 1,17,-1
 191 392 l 1,18,19
 218 406 218 406 259 407 c 0,20,21
 406 406 406 406 406 216 c 0,0,1
EndSplineSet
EndChar

StartChar: six
Encoding: 54 54 25
Width: 470
GlyphClass: 2
Flags: W
LayerCount: 2
Fore
SplineSet
287 254 m 128,-1,1
 274 270 274 270 247 270 c 128,-1,2
 220 270 220 270 196 263 c 1,3,4
 194 247 194 247 194 237 c 0,5,6
 194 133 194 133 252 132 c 0,7,8
 278 132 278 132 289 148.5 c 128,-1,9
 300 165 300 165 300 201.5 c 128,-1,0
 300 238 300 238 287 254 c 128,-1,1
287 404 m 0,10,11
 369 404 369 404 414 357.5 c 128,-1,12
 459 311 459 311 459 216 c 0,13,14
 459 -10 459 -10 250 -10 c 0,15,16
 24 -10 24 -10 24 273 c 0,17,18
 24 466 24 466 116.5 556 c 128,-1,19
 209 646 209 646 409 646 c 1,20,-1
 398 500 l 1,21,22
 311 500 311 500 264.5 477.5 c 128,-1,23
 218 455 218 455 201 397 c 1,24,-1
 203 392 l 1,25,26
 240 404 240 404 287 404 c 0,10,11
EndSplineSet
EndChar

StartChar: seven
Encoding: 55 55 26
Width: 430
GlyphClass: 2
Flags: W
LayerCount: 2
Fore
SplineSet
414 541 m 1,0,-1
 239 0 l 1,1,-1
 46 0 l 1,2,-1
 217 473 l 1,3,-1
 10 473 l 1,4,-1
 10 636 l 1,5,-1
 414 636 l 1,6,-1
 414 541 l 1,0,-1
EndSplineSet
EndChar

StartChar: eight
Encoding: 56 56 27
Width: 475
GlyphClass: 2
Flags: W
LayerCount: 2
Fore
SplineSet
82.5 601 m 128,-1,1
 137 646 137 646 237.5 646 c 128,-1,2
 338 646 338 646 391.5 601.5 c 128,-1,3
 445 557 445 557 445 477 c 0,4,5
 445 421 445 421 429 392.5 c 128,-1,6
 413 364 413 364 369 329 c 1,7,-1
 369 325 l 1,8,9
 413 299 413 299 433 265.5 c 128,-1,10
 453 232 453 232 453 180 c 0,11,12
 453 -10 453 -10 237 -10 c 0,13,14
 139 -10 139 -10 81 36.5 c 128,-1,15
 23 83 23 83 23 177.5 c 128,-1,16
 23 272 23 272 104 317 c 1,17,-1
 104 322 l 1,18,19
 62 359 62 359 45 389.5 c 128,-1,20
 28 420 28 420 28 478 c 0,21,0
 28 556 28 556 82.5 601 c 128,-1,1
241 122 m 0,22,23
 290 122 290 122 290 174 c 0,24,25
 290 199 290 199 276.5 214 c 128,-1,26
 263 229 263 229 229 254 c 1,27,28
 202 229 202 229 195 213.5 c 128,-1,29
 188 198 188 198 188 181 c 0,30,31
 189 122 189 122 241 122 c 0,22,23
240 507 m 0,32,33
 192 507 192 507 191 459 c 0,34,35
 191 426 191 426 216 406 c 0,36,37
 225 399 225 399 247 383 c 1,38,39
 271 402 271 402 281.5 416.5 c 128,-1,40
 292 431 292 431 292 452 c 0,41,42
 292 507 292 507 240 507 c 0,32,33
EndSplineSet
EndChar

StartChar: nine
Encoding: 57 57 28
Width: 470
GlyphClass: 2
Flags: W
LayerCount: 2
Fore
SplineSet
187 238 m 0,0,1
 12 238 12 238 12 435 c 0,2,3
 12 646 12 646 220 646 c 0,4,5
 339 646 339 646 391.5 581.5 c 128,-1,6
 444 517 444 517 444 379 c 0,7,8
 444 181 444 181 356.5 85.5 c 128,-1,9
 269 -10 269 -10 57 -10 c 1,10,-1
 68 135 l 1,11,12
 162 135 162 135 206.5 160 c 128,-1,13
 251 185 251 185 266 243 c 1,14,-1
 264 248 l 1,15,16
 225 238 225 238 187 238 c 0,0,1
223.5 360 m 128,-1,18
 252 360 252 360 275 370 c 1,19,20
 276 378 276 378 276 413.5 c 128,-1,21
 276 449 276 449 264.5 475 c 128,-1,22
 253 501 253 501 217 501 c 0,23,24
 170 501 170 501 170 433 c 0,25,26
 170 395 170 395 182.5 377.5 c 128,-1,17
 195 360 195 360 223.5 360 c 128,-1,18
EndSplineSet
EndChar

StartChar: colon
Encoding: 58 58 29
Width: 303
GlyphClass: 2
Flags: W
LayerCount: 2
Fore
SplineSet
77 70 m 0,0,1
 77 111 77 111 98.5 131 c 128,-1,2
 120 151 120 151 167 151 c 128,-1,3
 214 151 214 151 235.5 131 c 128,-1,4
 257 111 257 111 257 68 c 0,5,6
 257 -11 257 -11 167 -11 c 128,-1,7
 77 -11 77 -11 77 70 c 0,0,1
77 370 m 0,8,9
 77 411 77 411 98.5 431 c 128,-1,10
 120 451 120 451 167 451 c 128,-1,11
 214 451 214 451 235.5 431 c 128,-1,12
 257 411 257 411 257 368 c 0,13,14
 257 289 257 289 167 289 c 128,-1,15
 77 289 77 289 77 370 c 0,8,9
EndSplineSet
EndChar

StartChar: semicolon
Encoding: 59 59 30
Width: 311
GlyphClass: 2
Flags: W
LayerCount: 2
Fore
SplineSet
168 151 m 128,-1,1
 259 151 259 151 259 58 c 128,-1,2
 259 -35 259 -35 130 -116 c 1,3,-1
 70 -93 l 1,4,-1
 133 -10 l 1,5,-1
 131 -5 l 1,6,7
 77 6 77 6 77 70 c 0,8,0
 77 151 77 151 168 151 c 128,-1,1
77 370 m 0,9,10
 77 411 77 411 98.5 431 c 128,-1,11
 120 451 120 451 167 451 c 128,-1,12
 214 451 214 451 235.5 431 c 128,-1,13
 257 411 257 411 257 368 c 0,14,15
 257 289 257 289 167 289 c 128,-1,16
 77 289 77 289 77 370 c 0,9,10
EndSplineSet
EndChar

StartChar: less
Encoding: 60 60 31
Width: 403
GlyphClass: 2
Flags: W
LayerCount: 2
Fore
SplineSet
285 3 m 1,0,-1
 34 238 l 1,1,-1
 34 308 l 1,2,-1
 289 545 l 1,3,-1
 373 429 l 1,4,-1
 203 273 l 1,5,-1
 373 121 l 1,6,-1
 285 3 l 1,0,-1
EndSplineSet
EndChar

StartChar: equal
Encoding: 61 61 32
Width: 464
GlyphClass: 2
Flags: W
LayerCount: 2
Fore
SplineSet
410 300 m 1,0,-1
 55 300 l 1,1,-1
 55 439 l 1,2,-1
 410 439 l 1,3,-1
 410 300 l 1,0,-1
410 93 m 1,4,-1
 55 93 l 1,5,-1
 55 232 l 1,6,-1
 410 232 l 1,7,-1
 410 93 l 1,4,-1
EndSplineSet
EndChar

StartChar: greater
Encoding: 62 62 33
Width: 403
GlyphClass: 2
Flags: W
LayerCount: 2
Fore
SplineSet
370 238 m 1,0,-1
 119 3 l 1,1,-1
 31 121 l 1,2,-1
 201 273 l 1,3,-1
 31 429 l 1,4,-1
 115 545 l 1,5,-1
 370 308 l 1,6,-1
 370 238 l 1,0,-1
EndSplineSet
EndChar

StartChar: question
Encoding: 63 63 34
Width: 396
GlyphClass: 2
Flags: W
LayerCount: 2
Fore
SplineSet
328 615 m 128,-1,1
 368 571 368 571 368 484 c 128,-1,2
 368 397 368 397 337 353.5 c 128,-1,3
 306 310 306 310 247 274 c 2,4,-1
 237 268 l 1,5,-1
 237 206 l 1,6,-1
 102 206 l 1,7,-1
 102 303 l 2,8,9
 102 336 102 336 113 355 c 128,-1,10
 124 374 124 374 149.5 386.5 c 128,-1,11
 175 399 175 399 186.5 405.5 c 128,-1,12
 198 412 198 412 208.5 425.5 c 128,-1,13
 219 439 219 439 219 461 c 128,-1,14
 219 483 219 483 208 495 c 128,-1,15
 197 507 197 507 171 507 c 128,-1,16
 145 507 145 507 55 483 c 1,17,-1
 55 638 l 1,18,19
 141 660 141 660 201 659 c 0,20,0
 288 659 288 659 328 615 c 128,-1,1
84 66 m 0,21,22
 84 147 84 147 172 146.5 c 128,-1,23
 260 146 260 146 260 66 c 0,24,25
 260 27 260 27 240 8 c 128,-1,26
 220 -11 220 -11 175 -11 c 0,27,28
 84 -11 84 -11 84 66 c 0,21,22
EndSplineSet
EndChar

StartChar: at
Encoding: 64 64 35
Width: 907
GlyphClass: 2
Flags: W
LayerCount: 2
Fore
SplineSet
642 362 m 2,0,-1
 637 155 l 2,1,2
 637 118 637 118 663 118 c 0,3,4
 697 118 697 118 718.5 164.5 c 128,-1,5
 740 211 740 211 740 286 c 0,6,7
 740 407 740 407 670 480 c 128,-1,8
 600 553 600 553 474 553 c 0,9,10
 323 553 323 553 245 467.5 c 128,-1,11
 167 382 167 382 167 234 c 128,-1,12
 167 86 167 86 243 10.5 c 128,-1,13
 319 -65 319 -65 453 -65 c 0,14,15
 526 -65 526 -65 637 -44 c 1,16,-1
 637 -164 l 1,17,18
 544 -187 544 -187 449.5 -186.5 c 128,-1,19
 355 -186 355 -186 281 -161.5 c 128,-1,20
 207 -137 207 -137 148.5 -87.5 c 128,-1,21
 90 -38 90 -38 57.5 45 c 128,-1,22
 25 128 25 128 25 236 c 0,23,24
 25 426 25 426 148.5 553 c 128,-1,25
 272 680 272 680 471 680 c 128,-1,26
 670 680 670 680 776.5 572.5 c 128,-1,27
 883 465 883 465 883 283 c 0,28,29
 883 156 883 156 816.5 73 c 128,-1,30
 750 -10 750 -10 629 -10 c 2,31,-1
 620 -10 l 2,32,33
 534 -10 534 -10 503 42 c 1,34,-1
 498 42 l 1,35,36
 460 -10 460 -10 381 -10 c 0,37,38
 321 -10 321 -10 288.5 29 c 128,-1,39
 256 68 256 68 256 135 c 0,40,41
 256 220 256 220 308.5 253 c 128,-1,42
 361 286 361 286 475 296 c 1,43,-1
 475 321 l 2,44,45
 475 350 475 350 446 349 c 0,46,47
 401 349 401 349 297 319 c 1,48,-1
 272 466 l 1,49,50
 415 503 415 503 493.5 503 c 128,-1,51
 572 503 572 503 607 469 c 128,-1,52
 642 435 642 435 642 362 c 2,0,-1
444 110 m 0,53,54
 482 110 482 110 482 150 c 2,55,-1
 482 200 l 1,56,57
 444 195 444 195 428.5 184 c 128,-1,58
 413 173 413 173 413 147 c 0,59,60
 412 110 412 110 444 110 c 0,53,54
EndSplineSet
EndChar

StartChar: A
Encoding: 65 65 36
Width: 509
GlyphClass: 2
Flags: W
LayerCount: 2
Fore
SplineSet
502 0 m 1,0,-1
 331 0 l 1,1,-1
 311 100 l 1,2,-1
 190 100 l 1,3,-1
 171 0 l 1,4,-1
 8 0 l 1,5,-1
 125 636 l 1,6,-1
 385 636 l 1,7,-1
 502 0 l 1,0,-1
292 220 m 1,8,-1
 256 447 l 1,9,-1
 249 447 l 1,10,-1
 213 220 l 1,11,-1
 292 220 l 1,8,-1
EndSplineSet
EndChar

StartChar: B
Encoding: 66 66 37
Width: 506
GlyphClass: 2
Flags: W
LayerCount: 2
Fore
SplineSet
493 183 m 0,0,1
 493 0 493 0 296 0 c 2,2,-1
 45 0 l 1,3,-1
 45 636 l 1,4,-1
 291 636 l 2,5,6
 388 636 388 636 435 596.5 c 128,-1,7
 482 557 482 557 482 471 c 128,-1,8
 482 385 482 385 412 340 c 1,9,-1
 412 334 l 1,10,11
 493 302 493 302 493 183 c 0,0,1
296.5 127.5 m 128,-1,13
 307 141 307 141 307 184.5 c 128,-1,14
 307 228 307 228 296 246 c 128,-1,15
 285 264 285 264 255 264 c 2,16,-1
 222 264 l 1,17,-1
 222 114 l 1,18,-1
 255 114 l 2,19,12
 286 114 286 114 296.5 127.5 c 128,-1,13
289 378 m 128,-1,21
 298 392 298 392 298 428.5 c 128,-1,22
 298 465 298 465 288.5 480 c 128,-1,23
 279 495 279 495 255 495 c 2,24,-1
 222 495 l 1,25,-1
 222 364 l 1,26,-1
 256 364 l 2,27,20
 280 364 280 364 289 378 c 128,-1,21
EndSplineSet
EndChar

StartChar: C
Encoding: 67 67 38
Width: 419
GlyphClass: 2
Flags: W
LayerCount: 2
Fore
SplineSet
221 182.5 m 128,-1,1
 239 144 239 144 280 144 c 128,-1,2
 321 144 321 144 395 164 c 1,3,-1
 422 19 l 1,4,5
 341 -11 341 -11 259 -10 c 0,6,7
 136 -10 136 -10 80.5 71.5 c 128,-1,8
 25 153 25 153 25 314 c 128,-1,9
 25 475 25 475 83 560.5 c 128,-1,10
 141 646 141 646 273 646 c 0,11,12
 351 646 351 646 422 613 c 1,13,-1
 394 455 l 1,14,15
 314 482 314 482 283 481 c 0,16,17
 238 481 238 481 220.5 441.5 c 128,-1,18
 203 402 203 402 203 311.5 c 128,-1,0
 203 221 203 221 221 182.5 c 128,-1,1
EndSplineSet
EndChar

StartChar: D
Encoding: 68 68 39
Width: 538
GlyphClass: 2
Flags: W
LayerCount: 2
Fore
SplineSet
518 332 m 0,0,1
 518 0 518 0 256 0 c 2,2,-1
 45 0 l 1,3,-1
 45 636 l 1,4,-1
 260 636 l 2,5,6
 400 636 400 636 459 557.5 c 128,-1,7
 518 479 518 479 518 332 c 0,0,1
323 185.5 m 128,-1,9
 339 224 339 224 339 315 c 128,-1,10
 339 406 339 406 322 443.5 c 128,-1,11
 305 481 305 481 250 481 c 2,12,-1
 219 481 l 1,13,-1
 219 147 l 1,14,-1
 253 147 l 2,15,8
 307 147 307 147 323 185.5 c 128,-1,9
EndSplineSet
EndChar

StartChar: E
Encoding: 69 69 40
Width: 413
GlyphClass: 2
Flags: W
LayerCount: 2
Fore
SplineSet
389 0 m 1,0,-1
 45 0 l 1,1,-1
 45 636 l 1,2,-1
 399 636 l 1,3,-1
 389 479 l 1,4,-1
 220 479 l 1,5,-1
 220 384 l 1,6,-1
 367 384 l 1,7,-1
 367 249 l 1,8,-1
 220 249 l 1,9,-1
 220 143 l 1,10,-1
 399 143 l 1,11,-1
 389 0 l 1,0,-1
EndSplineSet
EndChar

StartChar: F
Encoding: 70 70 41
Width: 394
GlyphClass: 2
Flags: W
LayerCount: 2
Fore
SplineSet
389 479 m 1,0,-1
 220 479 l 1,1,-1
 220 384 l 1,2,-1
 356 384 l 1,3,-1
 356 249 l 1,4,-1
 220 249 l 1,5,-1
 220 0 l 1,6,-1
 45 0 l 1,7,-1
 45 636 l 1,8,-1
 399 636 l 1,9,-1
 389 479 l 1,0,-1
EndSplineSet
EndChar

StartChar: G
Encoding: 71 71 42
Width: 531
GlyphClass: 2
Flags: W
LayerCount: 2
Fore
SplineSet
428 446 m 1,0,1
 330 476 330 476 284.5 476 c 128,-1,2
 239 476 239 476 222 436 c 128,-1,3
 205 396 205 396 205 309.5 c 128,-1,4
 205 223 205 223 221 183.5 c 128,-1,5
 237 144 237 144 286 144 c 0,6,7
 300 144 300 144 341 153 c 1,8,-1
 341 230 l 1,9,-1
 295 230 l 1,10,-1
 295 351 l 1,11,-1
 490 351 l 1,12,-1
 490 0 l 1,13,-1
 370 0 l 1,14,-1
 353 33 l 1,15,-1
 349 33 l 1,16,17
 332 19 332 19 322 11 c 0,18,19
 293 -11 293 -11 241 -10 c 0,20,21
 27 -10 27 -10 27 313 c 0,22,23
 27 475 27 475 83 560.5 c 128,-1,24
 139 646 139 646 272 646 c 0,25,26
 378 646 378 646 456 613 c 1,27,-1
 428 446 l 1,0,1
EndSplineSet
EndChar

StartChar: H
Encoding: 72 72 43
Width: 556
GlyphClass: 2
Flags: W
LayerCount: 2
Fore
SplineSet
515 0 m 1,0,-1
 341 0 l 1,1,-1
 341 241 l 1,2,-1
 221 241 l 1,3,-1
 221 0 l 1,4,-1
 45 0 l 1,5,-1
 45 636 l 1,6,-1
 221 636 l 1,7,-1
 221 386 l 1,8,-1
 341 386 l 1,9,-1
 341 636 l 1,10,-1
 515 636 l 1,11,-1
 515 0 l 1,0,-1
EndSplineSet
EndChar

StartChar: I
Encoding: 73 73 44
Width: 284
GlyphClass: 2
Flags: W
LayerCount: 2
Fore
SplineSet
229 0 m 1,0,-1
 55 0 l 1,1,-1
 55 636 l 1,2,-1
 229 636 l 1,3,-1
 229 0 l 1,0,-1
EndSplineSet
EndChar

StartChar: J
Encoding: 74 74 45
Width: 294
GlyphClass: 2
Flags: W
LayerCount: 2
Fore
SplineSet
250 636 m 1,0,-1
 250 128 l 2,1,2
 250 49 250 49 214 19.5 c 128,-1,3
 178 -10 178 -10 82 -10 c 2,4,-1
 30 -10 l 1,5,-1
 16 129 l 1,6,-1
 51 129 l 2,7,8
 68 129 68 129 73 133.5 c 128,-1,9
 78 138 78 138 78 154 c 2,10,-1
 78 636 l 1,11,-1
 250 636 l 1,0,-1
EndSplineSet
EndChar

StartChar: K
Encoding: 75 75 46
Width: 496
GlyphClass: 2
Flags: W
LayerCount: 2
Fore
SplineSet
496 0 m 1,0,-1
 302 0 l 1,1,-1
 225 240 l 1,2,-1
 215 240 l 1,3,-1
 215 0 l 1,4,-1
 45 0 l 1,5,-1
 45 636 l 1,6,-1
 215 636 l 1,7,-1
 215 370 l 1,8,-1
 225 370 l 1,9,-1
 317 636 l 1,10,-1
 506 636 l 1,11,-1
 382 307 l 1,12,-1
 496 0 l 1,0,-1
EndSplineSet
EndChar

StartChar: L
Encoding: 76 76 47
Width: 370
GlyphClass: 2
Flags: W
LayerCount: 2
Fore
SplineSet
369 0 m 1,0,-1
 45 0 l 1,1,-1
 45 636 l 1,2,-1
 220 636 l 1,3,-1
 220 142 l 1,4,-1
 379 142 l 1,5,-1
 369 0 l 1,0,-1
EndSplineSet
EndChar

StartChar: M
Encoding: 77 77 48
Width: 699
GlyphClass: 2
Flags: W
LayerCount: 2
Fore
SplineSet
660 0 m 1,0,-1
 500 0 l 1,1,-1
 500 332 l 1,2,-1
 490 332 l 1,3,-1
 430 0 l 1,4,-1
 265 0 l 1,5,-1
 208 332 l 1,6,-1
 198 332 l 1,7,-1
 198 0 l 1,8,-1
 39 0 l 1,9,-1
 60 636 l 1,10,-1
 291 636 l 1,11,-1
 348 292 l 1,12,-1
 356 292 l 1,13,-1
 412 636 l 1,14,-1
 639 636 l 1,15,-1
 660 0 l 1,0,-1
EndSplineSet
EndChar

StartChar: N
Encoding: 78 78 49
Width: 553
GlyphClass: 2
Flags: W
LayerCount: 2
Fore
SplineSet
509 0 m 1,0,-1
 341 0 l 1,1,-1
 209 296 l 1,2,-1
 201 296 l 1,3,-1
 201 0 l 1,4,-1
 45 0 l 1,5,-1
 45 636 l 1,6,-1
 218 636 l 1,7,-1
 344 331 l 1,8,-1
 352 331 l 1,9,-1
 352 636 l 1,10,-1
 509 636 l 1,11,-1
 509 0 l 1,0,-1
EndSplineSet
EndChar

StartChar: O
Encoding: 79 79 50
Width: 550
GlyphClass: 2
Flags: W
LayerCount: 2
Fore
SplineSet
276.5 646 m 128,-1,1
 411 646 411 646 468.5 570.5 c 128,-1,2
 526 495 526 495 526 324.5 c 128,-1,3
 526 154 526 154 467 72 c 128,-1,4
 408 -10 408 -10 274.5 -10 c 128,-1,5
 141 -10 141 -10 83 71 c 128,-1,6
 25 152 25 152 25 322.5 c 128,-1,7
 25 493 25 493 83.5 569.5 c 128,-1,0
 142 646 142 646 276.5 646 c 128,-1,1
335.5 451 m 128,-1,9
 321 484 321 484 275 484 c 128,-1,10
 229 484 229 484 216 451 c 128,-1,11
 203 418 203 418 203 325 c 2,12,-1
 203 300 l 2,13,14
 203 201 203 201 217.5 169.5 c 128,-1,15
 232 138 232 138 278 138 c 128,-1,16
 324 138 324 138 337 168 c 128,-1,17
 350 198 350 198 350 291 c 2,18,-1
 350 324 l 2,19,8
 350 418 350 418 335.5 451 c 128,-1,9
EndSplineSet
EndChar

StartChar: P
Encoding: 80 80 51
Width: 475
GlyphClass: 2
Flags: W
LayerCount: 2
Fore
SplineSet
264 208 m 2,0,-1
 217 208 l 1,1,-1
 217 0 l 1,2,-1
 45 0 l 1,3,-1
 45 636 l 1,4,-1
 253 636 l 2,5,6
 363 636 363 636 416 586 c 128,-1,7
 469 536 469 536 469 421 c 128,-1,8
 469 306 469 306 418.5 257 c 128,-1,9
 368 208 368 208 264 208 c 2,0,-1
293 409 m 128,-1,11
 293 454 293 454 282.5 472 c 128,-1,12
 272 490 272 490 242 490 c 2,13,-1
 217 490 l 1,14,-1
 217 329 l 1,15,-1
 246 329 l 2,16,17
 275 329 275 329 284 346.5 c 128,-1,10
 293 364 293 364 293 409 c 128,-1,11
EndSplineSet
EndChar

StartChar: Q
Encoding: 81 81 52
Width: 550
GlyphClass: 2
Flags: W
LayerCount: 2
Fore
SplineSet
276.5 646 m 128,-1,1
 411 646 411 646 468.5 570.5 c 128,-1,2
 526 495 526 495 526 328 c 0,3,4
 526 219 526 219 499 151 c 128,-1,5
 472 83 472 83 415 39 c 1,6,-1
 415 35 l 1,7,-1
 544 24 l 1,8,-1
 532 -109 l 1,9,-1
 513 -109 l 2,10,11
 438 -109 438 -109 379 -74 c 2,12,-1
 269 -10 l 1,13,14
 141 -10 141 -10 83 74.5 c 128,-1,15
 25 159 25 159 25 326 c 128,-1,16
 25 493 25 493 83.5 569.5 c 128,-1,0
 142 646 142 646 276.5 646 c 128,-1,1
335.5 451 m 128,-1,18
 321 484 321 484 275 484 c 128,-1,19
 229 484 229 484 216 451 c 128,-1,20
 203 418 203 418 203 325 c 2,21,-1
 203 300 l 2,22,23
 203 201 203 201 217.5 169.5 c 128,-1,24
 232 138 232 138 278 138 c 128,-1,25
 324 138 324 138 337 168 c 128,-1,26
 350 198 350 198 350 291 c 2,27,-1
 350 324 l 2,28,17
 350 418 350 418 335.5 451 c 128,-1,18
EndSplineSet
EndChar

StartChar: R
Encoding: 82 82 53
Width: 505
GlyphClass: 2
Flags: W
LayerCount: 2
Fore
SplineSet
480 434 m 0,0,1
 480 377 480 377 462.5 339 c 128,-1,2
 445 301 445 301 409 270 c 1,3,-1
 494 0 l 1,4,-1
 304 0 l 1,5,-1
 241 229 l 1,6,-1
 217 229 l 1,7,-1
 217 0 l 1,8,-1
 45 0 l 1,9,-1
 45 636 l 1,10,-1
 283 636 l 2,11,12
 385 636 385 636 432.5 587.5 c 128,-1,13
 480 539 480 539 480 434 c 0,0,1
281.5 352.5 m 128,-1,15
 293 368 293 368 293 408.5 c 128,-1,16
 293 449 293 449 281.5 464.5 c 128,-1,17
 270 480 270 480 245 480 c 2,18,-1
 217 480 l 1,19,-1
 217 337 l 1,20,-1
 244 337 l 2,21,14
 270 337 270 337 281.5 352.5 c 128,-1,15
EndSplineSet
EndChar

StartChar: S
Encoding: 83 83 54
Width: 437
GlyphClass: 2
Flags: W
LayerCount: 2
Fore
SplineSet
69.5 591 m 128,-1,1
 123 646 123 646 215.5 646 c 128,-1,2
 308 646 308 646 406 628 c 1,3,-1
 385 464 l 1,4,5
 284 488 284 488 246 487 c 0,6,7
 198 487 198 487 198 449 c 0,8,9
 198 434 198 434 221 419 c 128,-1,10
 244 404 244 404 276.5 388.5 c 128,-1,11
 309 373 309 373 342 351 c 128,-1,12
 375 329 375 329 398 288 c 128,-1,13
 421 247 421 247 421 194 c 0,14,15
 421 97 421 97 368.5 43.5 c 128,-1,16
 316 -10 316 -10 220.5 -10 c 128,-1,17
 125 -10 125 -10 34 19 c 1,18,-1
 45 172 l 1,19,20
 155 140 155 140 198 140 c 128,-1,21
 241 140 241 140 241 178 c 0,22,23
 241 197 241 197 218 213.5 c 128,-1,24
 195 230 195 230 162 246.5 c 128,-1,25
 129 263 129 263 95.5 284.5 c 128,-1,26
 62 306 62 306 39 347 c 128,-1,27
 16 388 16 388 16 444 c 0,28,0
 16 536 16 536 69.5 591 c 128,-1,1
EndSplineSet
EndChar

StartChar: T
Encoding: 84 84 55
Width: 419
GlyphClass: 2
Flags: W
LayerCount: 2
Fore
SplineSet
415 481 m 1,0,-1
 296 481 l 1,1,-1
 296 0 l 1,2,-1
 121 0 l 1,3,-1
 121 481 l 1,4,-1
 -5 481 l 1,5,-1
 5 636 l 1,6,-1
 425 636 l 1,7,-1
 415 481 l 1,0,-1
EndSplineSet
EndChar

StartChar: U
Encoding: 85 85 56
Width: 556
GlyphClass: 2
Flags: W
LayerCount: 2
Fore
SplineSet
237.5 161.5 m 128,-1,1
 251 146 251 146 281 146 c 128,-1,2
 311 146 311 146 323 161 c 128,-1,3
 335 176 335 176 335 210 c 2,4,-1
 335 636 l 1,5,-1
 511 636 l 1,6,-1
 511 200 l 2,7,8
 511 90 511 90 451 40 c 128,-1,9
 391 -10 391 -10 275 -10 c 128,-1,10
 159 -10 159 -10 102 39.5 c 128,-1,11
 45 89 45 89 45 198 c 2,12,-1
 45 636 l 1,13,-1
 224 636 l 1,14,-1
 224 209 l 2,15,0
 224 177 224 177 237.5 161.5 c 128,-1,1
EndSplineSet
EndChar

StartChar: V
Encoding: 86 86 57
Width: 517
GlyphClass: 2
Flags: W
LayerCount: 2
Fore
SplineSet
505 636 m 1,0,-1
 397 0 l 1,1,-1
 127 0 l 1,2,-1
 12 636 l 1,3,-1
 206 636 l 1,4,-1
 261 219 l 1,5,-1
 279 219 l 1,6,-1
 321 636 l 1,7,-1
 505 636 l 1,0,-1
EndSplineSet
EndChar

StartChar: W
Encoding: 87 87 58
Width: 697
GlyphClass: 2
Flags: W
LayerCount: 2
Fore
SplineSet
677 636 m 1,0,-1
 620 0 l 1,1,-1
 409 0 l 1,2,-1
 353 282 l 1,3,-1
 345 282 l 1,4,-1
 299 0 l 1,5,-1
 87 0 l 1,6,-1
 20 636 l 1,7,-1
 188 636 l 1,8,-1
 215 299 l 1,9,-1
 225 299 l 1,10,-1
 268 636 l 1,11,-1
 439 636 l 1,12,-1
 486 299 l 1,13,-1
 497 299 l 1,14,-1
 515 636 l 1,15,-1
 677 636 l 1,0,-1
EndSplineSet
EndChar

StartChar: X
Encoding: 88 88 59
Width: 499
GlyphClass: 2
Flags: W
LayerCount: 2
Fore
SplineSet
494 0 m 1,0,-1
 294 0 l 1,1,-1
 251 203 l 1,2,-1
 243 203 l 1,3,-1
 195 0 l 1,4,-1
 6 0 l 1,5,-1
 105 330 l 1,6,-1
 14 636 l 1,7,-1
 221 636 l 1,8,-1
 256 447 l 1,9,-1
 264 447 l 1,10,-1
 302 636 l 1,11,-1
 482 636 l 1,12,-1
 399 330 l 1,13,-1
 494 0 l 1,0,-1
EndSplineSet
EndChar

StartChar: Y
Encoding: 89 89 60
Width: 475
GlyphClass: 2
Flags: W
LayerCount: 2
Fore
SplineSet
475 636 m 1,0,-1
 324 197 l 1,1,-1
 324 0 l 1,2,-1
 150 0 l 1,3,-1
 150 197 l 1,4,-1
 0 636 l 1,5,-1
 193 636 l 1,6,-1
 239 429 l 1,7,-1
 247 429 l 1,8,-1
 291 636 l 1,9,-1
 475 636 l 1,0,-1
EndSplineSet
EndChar

StartChar: Z
Encoding: 90 90 61
Width: 462
GlyphClass: 2
Flags: W
LayerCount: 2
Fore
SplineSet
453 0 m 1,0,-1
 35 0 l 1,1,-1
 31 94 l 1,2,-1
 218 477 l 1,3,-1
 20 477 l 1,4,-1
 10 636 l 1,5,-1
 442 636 l 1,6,-1
 447 536 l 1,7,-1
 269 146 l 1,8,-1
 453 146 l 1,9,-1
 453 0 l 1,0,-1
EndSplineSet
EndChar

StartChar: bracketleft
Encoding: 91 91 62
Width: 323
GlyphClass: 2
Flags: W
LayerCount: 2
Fore
SplineSet
291 -140 m 1,0,-1
 49 -140 l 1,1,-1
 49 656 l 1,2,-1
 291 656 l 1,3,-1
 291 524 l 1,4,-1
 223 524 l 1,5,-1
 223 -9 l 1,6,-1
 291 -9 l 1,7,-1
 291 -140 l 1,0,-1
EndSplineSet
EndChar

StartChar: backslash
Encoding: 92 92 63
Width: 369
GlyphClass: 2
Flags: W
LayerCount: 2
Fore
SplineSet
211 -151 m 1,0,-1
 -10 636 l 1,1,-1
 160 636 l 1,2,-1
 380 -151 l 1,3,-1
 211 -151 l 1,0,-1
EndSplineSet
EndChar

StartChar: bracketright
Encoding: 93 93 64
Width: 323
GlyphClass: 2
Flags: W
LayerCount: 2
Fore
SplineSet
274 -140 m 1,0,-1
 33 -140 l 1,1,-1
 33 -9 l 1,2,-1
 100 -9 l 1,3,-1
 100 524 l 1,4,-1
 33 524 l 1,5,-1
 33 656 l 1,6,-1
 274 656 l 1,7,-1
 274 -140 l 1,0,-1
EndSplineSet
EndChar

StartChar: asciicircum
Encoding: 94 94 65
Width: 512
GlyphClass: 2
Flags: W
LayerCount: 2
Fore
SplineSet
334 671 m 1,0,-1
 400 532 l 1,1,-1
 293 532 l 1,2,-1
 257 590 l 1,3,-1
 221 532 l 1,4,-1
 112 532 l 1,5,-1
 179 671 l 1,6,-1
 334 671 l 1,0,-1
EndSplineSet
EndChar

StartChar: underscore
Encoding: 95 95 66
Width: 411
GlyphClass: 2
Flags: W
LayerCount: 2
Fore
SplineSet
412 -140 m 1,0,-1
 0 -140 l 1,1,-1
 0 -34 l 1,2,-1
 412 -34 l 1,3,-1
 412 -140 l 1,0,-1
EndSplineSet
EndChar

StartChar: grave
Encoding: 96 96 67
Width: 512
GlyphClass: 2
Flags: W
LayerCount: 2
Fore
SplineSet
228 532 m 1,0,-1
 118 676 l 1,1,-1
 280 676 l 1,2,-1
 346 532 l 1,3,-1
 228 532 l 1,0,-1
EndSplineSet
EndChar

StartChar: a
Encoding: 97 97 68
Width: 446
GlyphClass: 2
Flags: W
LayerCount: 2
Fore
SplineSet
400 362 m 2,0,-1
 395 151 l 2,1,2
 395 132 395 132 405 125 c 128,-1,3
 415 118 415 118 438 118 c 1,4,-1
 423 -6 l 1,5,6
 364 -10 364 -10 357 -10 c 0,7,8
 281 -10 281 -10 261 42 c 1,9,-1
 256 42 l 1,10,11
 218 -10 218 -10 139 -10 c 0,12,13
 79 -10 79 -10 46.5 29 c 128,-1,14
 14 68 14 68 14 135 c 0,15,16
 14 220 14 220 67 253 c 128,-1,17
 120 286 120 286 233 296 c 1,18,-1
 233 321 l 2,19,20
 233 350 233 350 205 349 c 0,21,22
 156 349 156 349 51 319 c 1,23,-1
 26 469 l 1,24,25
 157 503 157 503 244 503 c 128,-1,26
 331 503 331 503 365.5 469 c 128,-1,27
 400 435 400 435 400 362 c 2,0,-1
203 110 m 0,28,29
 241 110 241 110 241 150 c 2,30,-1
 241 200 l 1,31,32
 203 195 203 195 187 184 c 128,-1,33
 171 173 171 173 171 147 c 0,34,35
 171 110 171 110 203 110 c 0,28,29
EndSplineSet
EndChar

StartChar: b
Encoding: 98 98 69
Width: 477
GlyphClass: 2
Flags: W
LayerCount: 2
Fore
SplineSet
421 446 m 128,-1,1
 453 390 453 390 453 254.5 c 128,-1,2
 453 119 453 119 419 54.5 c 128,-1,3
 385 -10 385 -10 287 -10 c 0,4,5
 210 -10 210 -10 179 30 c 1,6,-1
 175 30 l 1,7,-1
 165 0 l 1,8,-1
 31 0 l 1,9,-1
 31 656 l 1,10,-1
 202 656 l 1,11,-1
 202 479 l 1,12,-1
 206 479 l 1,13,14
 240 502 240 502 293 502 c 0,15,0
 389 502 389 502 421 446 c 128,-1,1
280 189.5 m 128,-1,17
 281 207 281 207 281 255.5 c 128,-1,18
 281 304 281 304 273.5 330 c 128,-1,19
 266 356 266 356 244 356 c 128,-1,20
 222 356 222 356 201 344 c 1,21,-1
 201 132 l 1,22,23
 220 123 220 123 238 123 c 128,-1,24
 256 123 256 123 263.5 129.5 c 128,-1,25
 271 136 271 136 275 154 c 128,-1,16
 279 172 279 172 280 189.5 c 128,-1,17
EndSplineSet
EndChar

StartChar: c
Encoding: 99 99 70
Width: 353
GlyphClass: 2
Flags: W
LayerCount: 2
Fore
SplineSet
205 326 m 128,-1,1
 195 299 195 299 195 241.5 c 128,-1,2
 195 184 195 184 204.5 158.5 c 128,-1,3
 214 133 214 133 245 133 c 128,-1,4
 276 133 276 133 327 144 c 1,5,-1
 345 13 l 1,6,7
 274 -11 274 -11 219 -10 c 0,8,9
 122 -10 122 -10 72.5 55.5 c 128,-1,10
 23 121 23 121 23 238.5 c 128,-1,11
 23 356 23 356 74 429.5 c 128,-1,12
 125 503 125 503 222 503 c 0,13,14
 295 503 295 503 353 478 c 1,15,-1
 335 328 l 1,16,17
 276 354 276 354 245.5 353.5 c 128,-1,0
 215 353 215 353 205 326 c 128,-1,1
EndSplineSet
EndChar

StartChar: d
Encoding: 100 100 71
Width: 488
GlyphClass: 2
Flags: W
LayerCount: 2
Fore
SplineSet
465 -6 m 1,0,-1
 396 -10 l 1,1,2
 317 -10 317 -10 300 42 c 1,3,-1
 295 42 l 1,4,5
 261 -10 261 -10 191 -10 c 0,6,7
 99 -10 99 -10 62 54.5 c 128,-1,8
 25 119 25 119 25 246.5 c 128,-1,9
 25 374 25 374 67 438.5 c 128,-1,10
 109 503 109 503 187 503 c 0,11,12
 241 503 241 503 271 477 c 1,13,-1
 271 656 l 1,14,-1
 442 656 l 1,15,-1
 442 151 l 2,16,17
 442 132 442 132 450.5 125 c 128,-1,18
 459 118 459 118 480 118 c 1,19,-1
 465 -6 l 1,0,-1
204 332 m 128,-1,21
 197 306 197 306 197 257.5 c 128,-1,22
 197 209 197 209 198 191.5 c 128,-1,23
 199 174 199 174 202.5 156 c 128,-1,24
 206 138 206 138 213.5 131.5 c 128,-1,25
 221 125 221 125 239 125 c 128,-1,26
 257 125 257 125 276 134 c 1,27,-1
 276 346 l 1,28,29
 254 358 254 358 232.5 358 c 128,-1,20
 211 358 211 358 204 332 c 128,-1,21
EndSplineSet
EndChar

StartChar: e
Encoding: 101 101 72
Width: 452
GlyphClass: 2
Flags: W
LayerCount: 2
Fore
SplineSet
236 356 m 0,0,1
 209 356 209 356 201 338.5 c 128,-1,2
 193 321 193 321 193 284 c 1,3,-1
 282 284 l 1,4,-1
 282 308 l 2,5,6
 282 356 282 356 236 356 c 0,0,1
240 503 m 0,7,8
 345 503 345 503 390.5 452 c 128,-1,9
 436 401 436 401 436 307 c 0,10,11
 436 295 436 295 429 197 c 1,12,-1
 196 197 l 1,13,14
 196 120 196 120 266 120 c 0,15,16
 300 120 300 120 398 143 c 1,17,-1
 413 16 l 1,18,19
 327 -11 327 -11 241 -10 c 0,20,21
 136 -10 136 -10 79.5 59 c 128,-1,22
 23 128 23 128 23 247 c 0,23,24
 23 503 23 503 240 503 c 0,7,8
EndSplineSet
EndChar

StartChar: f
Encoding: 102 102 73
Width: 300
GlyphClass: 2
Flags: W
LayerCount: 2
Fore
SplineSet
193 664 m 0,0,1
 256 664 256 664 326 657 c 1,2,-1
 311 508 l 1,3,4
 265 513 265 513 244 513 c 128,-1,5
 223 513 223 513 223 495 c 2,6,-1
 223 476 l 1,7,-1
 307 476 l 1,8,-1
 299 349 l 1,9,-1
 225 349 l 1,10,-1
 225 0 l 1,11,-1
 54 0 l 1,12,-1
 54 349 l 1,13,-1
 9 349 l 1,14,-1
 9 476 l 1,15,-1
 54 476 l 1,16,-1
 54 527 l 2,17,18
 55 664 55 664 193 664 c 0,0,1
EndSplineSet
EndChar

StartChar: g
Encoding: 103 103 74
Width: 460
GlyphClass: 2
Flags: W
LayerCount: 2
Fore
SplineSet
179 -45 m 2,0,-1
 285 -45 l 2,1,2
 303 -45 303 -45 303 -29 c 2,3,-1
 303 -25 l 2,4,5
 303 -10 303 -10 285 -9 c 2,6,-1
 179 -9 l 2,7,8
 163 -9 163 -9 163 -26 c 2,9,-1
 163 -30 l 2,10,11
 163 -45 163 -45 179 -45 c 2,0,-1
220 503 m 2,12,-1
 462 503 l 1,13,-1
 462 388 l 1,14,-1
 388 388 l 1,15,-1
 388 383 l 1,16,17
 421 354 421 354 421 308 c 0,18,19
 421 144 421 144 236 144 c 2,20,-1
 186 144 l 2,21,22
 168 144 168 144 168 127.5 c 128,-1,23
 168 111 168 111 185 111 c 2,24,-1
 325 111 l 2,25,26
 443 111 443 111 442 8 c 0,27,28
 442 -76 442 -76 386 -113.5 c 128,-1,29
 330 -151 330 -151 230.5 -151 c 128,-1,30
 131 -151 131 -151 80.5 -130 c 128,-1,31
 30 -109 30 -109 30 -51 c 0,32,33
 30 -19 30 -19 70 2 c 1,34,-1
 70 6 l 1,35,36
 20 34 20 34 19 86 c 0,37,38
 19 147 19 147 98 179 c 1,39,40
 61 206 61 206 43.5 241 c 128,-1,41
 26 276 26 276 26 335 c 0,42,43
 26 416 26 416 78.5 459.5 c 128,-1,44
 131 503 131 503 220 503 c 2,12,-1
257.5 354 m 128,-1,46
 250 369 250 369 229.5 369 c 128,-1,47
 209 369 209 369 201.5 354 c 128,-1,48
 194 339 194 339 194 308 c 0,49,50
 194 246 194 246 230 246 c 0,51,52
 265 246 265 246 265 306 c 0,53,45
 265 339 265 339 257.5 354 c 128,-1,46
EndSplineSet
EndChar

StartChar: h
Encoding: 104 104 75
Width: 478
GlyphClass: 2
Flags: W
LayerCount: 2
Fore
SplineSet
206 455 m 1,0,1
 262 503 262 503 327.5 503 c 128,-1,2
 393 503 393 503 420 471.5 c 128,-1,3
 447 440 447 440 447 378 c 2,4,-1
 447 0 l 1,5,-1
 273 0 l 1,6,-1
 273 319 l 2,7,8
 273 345 273 345 251 345 c 0,9,10
 222 345 222 345 203 331 c 1,11,-1
 203 0 l 1,12,-1
 31 0 l 1,13,-1
 31 656 l 1,14,-1
 202 656 l 1,15,-1
 202 455 l 1,16,-1
 206 455 l 1,0,1
EndSplineSet
EndChar

StartChar: i
Encoding: 105 105 76
Width: 237
GlyphClass: 2
Flags: W
LayerCount: 2
Fore
SplineSet
204 0 m 1,0,-1
 35 0 l 1,1,-1
 35 485 l 1,2,-1
 204 485 l 1,3,-1
 204 0 l 1,0,-1
27 584 m 128,-1,5
 27 625 27 625 48.5 644.5 c 128,-1,6
 70 664 70 664 119 664 c 128,-1,7
 168 664 168 664 189.5 644.5 c 128,-1,8
 211 625 211 625 211 584.5 c 128,-1,9
 211 544 211 544 189.5 525 c 128,-1,10
 168 506 168 506 119 506 c 128,-1,11
 70 506 70 506 48.5 524.5 c 128,-1,4
 27 543 27 543 27 584 c 128,-1,5
EndSplineSet
EndChar

StartChar: j
Encoding: 106 106 77
Width: 253
GlyphClass: 2
Flags: W
LayerCount: 2
Fore
SplineSet
214 485 m 1,0,-1
 214 -12 l 2,1,2
 214 -92 214 -92 178.5 -121.5 c 128,-1,3
 143 -151 143 -151 47 -151 c 2,4,-1
 -4 -151 l 1,5,-1
 -18 -9 l 1,6,-1
 16 -9 l 2,7,8
 33 -9 33 -9 38 -4.5 c 128,-1,9
 43 0 43 0 43 15 c 2,10,-1
 43 485 l 1,11,-1
 214 485 l 1,0,-1
34 584 m 128,-1,13
 34 625 34 625 55.5 644.5 c 128,-1,14
 77 664 77 664 126 664 c 128,-1,15
 175 664 175 664 196.5 644.5 c 128,-1,16
 218 625 218 625 218 584.5 c 128,-1,17
 218 544 218 544 196.5 525 c 128,-1,18
 175 506 175 506 126 506 c 128,-1,19
 77 506 77 506 55.5 524.5 c 128,-1,12
 34 543 34 543 34 584 c 128,-1,13
EndSplineSet
EndChar

StartChar: k
Encoding: 107 107 78
Width: 452
GlyphClass: 2
Flags: W
LayerCount: 2
Fore
SplineSet
454 0 m 1,0,-1
 264 0 l 1,1,-1
 202 188 l 1,2,-1
 198 188 l 1,3,-1
 198 0 l 1,4,-1
 31 0 l 1,5,-1
 31 656 l 1,6,-1
 200 656 l 1,7,-1
 200 295 l 1,8,-1
 204 295 l 1,9,-1
 279 490 l 1,10,-1
 458 490 l 1,11,-1
 354 246 l 1,12,-1
 454 0 l 1,0,-1
EndSplineSet
EndChar

StartChar: l
Encoding: 108 108 79
Width: 238
GlyphClass: 2
Flags: W
LayerCount: 2
Fore
SplineSet
31 113 m 2,0,-1
 31 656 l 1,1,-1
 200 656 l 1,2,-1
 200 167 l 2,3,4
 200 150 200 150 207.5 142.5 c 128,-1,5
 215 135 215 135 234 135 c 1,6,-1
 221 -10 l 1,7,-1
 165 -10 l 2,8,9
 97 -10 97 -10 64 18 c 128,-1,10
 31 46 31 46 31 113 c 2,0,-1
EndSplineSet
EndChar

StartChar: m
Encoding: 109 109 80
Width: 722
GlyphClass: 2
Flags: W
LayerCount: 2
Fore
SplineSet
446 455 m 2,0,1
 502 503 502 503 570 503 c 128,-1,2
 638 503 638 503 665 471.5 c 128,-1,3
 692 440 692 440 692 378 c 2,4,-1
 692 0 l 1,5,-1
 518 0 l 1,6,-1
 518 319 l 2,7,8
 518 345 518 345 496 345 c 0,9,10
 467 345 467 345 447 331 c 1,11,-1
 447 0 l 1,12,-1
 273 0 l 1,13,-1
 273 319 l 2,14,15
 273 345 273 345 251 345 c 0,16,17
 222 345 222 345 203 331 c 1,18,-1
 203 0 l 1,19,-1
 31 0 l 1,20,-1
 31 490 l 1,21,-1
 187 490 l 1,22,-1
 198 455 l 1,23,-1
 202 455 l 1,24,25
 258 503 258 503 335.5 503 c 128,-1,26
 413 503 413 503 436 445 c 1,27,-1
 446 455 l 2,0,1
EndSplineSet
EndChar

StartChar: n
Encoding: 110 110 81
Width: 478
GlyphClass: 2
Flags: W
LayerCount: 2
Fore
SplineSet
202 455 m 1,0,1
 258 503 258 503 325.5 503 c 128,-1,2
 393 503 393 503 420 471.5 c 128,-1,3
 447 440 447 440 447 378 c 2,4,-1
 447 0 l 1,5,-1
 273 0 l 1,6,-1
 273 319 l 2,7,8
 273 345 273 345 251 345 c 0,9,10
 222 345 222 345 203 331 c 1,11,-1
 203 0 l 1,12,-1
 31 0 l 1,13,-1
 31 490 l 1,14,-1
 187 490 l 1,15,-1
 198 455 l 1,16,-1
 202 455 l 1,0,1
EndSplineSet
EndChar

StartChar: o
Encoding: 111 111 82
Width: 468
GlyphClass: 2
Flags: W
LayerCount: 2
Fore
SplineSet
74.5 442.5 m 128,-1,1
 126 503 126 503 236 503 c 128,-1,2
 346 503 346 503 396 443.5 c 128,-1,3
 446 384 446 384 446 248.5 c 128,-1,4
 446 113 446 113 397 51.5 c 128,-1,5
 348 -10 348 -10 236.5 -10 c 128,-1,6
 125 -10 125 -10 74 51.5 c 128,-1,7
 23 113 23 113 23 247.5 c 128,-1,0
 23 382 23 382 74.5 442.5 c 128,-1,1
235.5 365 m 128,-1,9
 209 365 209 365 202 344.5 c 128,-1,10
 195 324 195 324 195 258 c 2,11,-1
 195 233 l 2,12,13
 195 160 195 160 202 139 c 128,-1,14
 209 118 209 118 235 118 c 128,-1,15
 261 118 261 118 268 139.5 c 128,-1,16
 275 161 275 161 275 227 c 2,17,-1
 275 257 l 2,18,19
 275 324 275 324 268.5 344.5 c 128,-1,8
 262 365 262 365 235.5 365 c 128,-1,9
EndSplineSet
EndChar

StartChar: p
Encoding: 112 112 83
Width: 477
GlyphClass: 2
Flags: W
LayerCount: 2
Fore
SplineSet
203 11 m 1,0,-1
 203 -140 l 1,1,-1
 31 -140 l 1,2,-1
 31 490 l 1,3,-1
 172 490 l 1,4,-1
 182 460 l 1,5,-1
 187 460 l 1,6,7
 216 502 216 502 300 502 c 128,-1,8
 384 502 384 502 418.5 443.5 c 128,-1,9
 453 385 453 385 453 252 c 128,-1,10
 453 119 453 119 416.5 54 c 128,-1,11
 380 -11 380 -11 283 -11 c 0,12,13
 238 -11 238 -11 207 11 c 1,14,-1
 203 11 l 1,0,-1
280 189.5 m 128,-1,16
 281 207 281 207 281 255.5 c 128,-1,17
 281 304 281 304 273.5 330 c 128,-1,18
 266 356 266 356 244 356 c 128,-1,19
 222 356 222 356 201 344 c 1,20,-1
 201 132 l 1,21,22
 220 123 220 123 238 123 c 128,-1,23
 256 123 256 123 263.5 129.5 c 128,-1,24
 271 136 271 136 275 154 c 128,-1,15
 279 172 279 172 280 189.5 c 128,-1,16
EndSplineSet
EndChar

StartChar: q
Encoding: 113 113 84
Width: 477
GlyphClass: 2
Flags: W
LayerCount: 2
Fore
SplineSet
274 -140 m 1,0,-1
 274 15 l 1,1,-1
 270 15 l 1,2,3
 234 -11 234 -11 193 -10 c 0,4,5
 101 -10 101 -10 63 55 c 128,-1,6
 25 120 25 120 25 245.5 c 128,-1,7
 25 371 25 371 67 437 c 128,-1,8
 109 503 109 503 183.5 503 c 128,-1,9
 258 503 258 503 290 460 c 1,10,-1
 295 460 l 1,11,-1
 305 490 l 1,12,-1
 446 490 l 1,13,-1
 446 -140 l 1,14,-1
 274 -140 l 1,0,-1
204 332 m 128,-1,16
 197 306 197 306 197 257.5 c 128,-1,17
 197 209 197 209 198 191.5 c 128,-1,18
 199 174 199 174 202.5 156 c 128,-1,19
 206 138 206 138 213.5 131.5 c 128,-1,20
 221 125 221 125 239 125 c 128,-1,21
 257 125 257 125 276 134 c 1,22,-1
 276 346 l 1,23,24
 254 358 254 358 232.5 358 c 128,-1,15
 211 358 211 358 204 332 c 128,-1,16
EndSplineSet
EndChar

StartChar: r
Encoding: 114 114 85
Width: 320
GlyphClass: 2
Flags: W
LayerCount: 2
Fore
SplineSet
201 275 m 2,0,-1
 201 0 l 1,1,-1
 31 0 l 1,2,-1
 31 490 l 1,3,-1
 180 490 l 1,4,-1
 190 461 l 1,5,-1
 195 461 l 1,6,7
 219 488 219 488 242.5 495.5 c 128,-1,8
 266 503 266 503 321 503 c 1,9,-1
 313 339 l 1,10,-1
 266 339 l 2,11,12
 226 339 226 339 213.5 326.5 c 128,-1,13
 201 314 201 314 201 275 c 2,0,-1
EndSplineSet
EndChar

StartChar: s
Encoding: 115 115 86
Width: 350
GlyphClass: 2
Flags: W
LayerCount: 2
Fore
SplineSet
49.5 461.5 m 128,-1,1
 95 503 95 503 175 503 c 128,-1,2
 255 503 255 503 337 482 c 1,3,-1
 319 340 l 1,4,5
 215 364 215 364 179 364 c 0,6,7
 157 364 157 364 158 346 c 0,8,9
 158 335 158 335 181 326 c 0,10,11
 263 296 263 296 304.5 258 c 128,-1,12
 346 220 346 220 346 144.5 c 128,-1,13
 346 69 346 69 307 29.5 c 128,-1,14
 268 -10 268 -10 188 -10 c 128,-1,15
 108 -10 108 -10 28 10 c 1,16,-1
 39 148 l 1,17,18
 141 120 141 120 171.5 120.5 c 128,-1,19
 202 121 202 121 202 135.5 c 128,-1,20
 202 150 202 150 179 158 c 0,21,22
 88 193 88 193 46 232 c 128,-1,23
 4 271 4 271 4 345.5 c 128,-1,0
 4 420 4 420 49.5 461.5 c 128,-1,1
EndSplineSet
EndChar

StartChar: t
Encoding: 116 116 87
Width: 324
GlyphClass: 2
Flags: W
LayerCount: 2
Fore
SplineSet
307 -1 m 1,0,1
 231 -10 231 -10 175.5 -10 c 128,-1,2
 120 -10 120 -10 88.5 19 c 128,-1,3
 57 48 57 48 57 120 c 2,4,-1
 57 357 l 1,5,-1
 8 357 l 1,6,-1
 8 484 l 1,7,-1
 66 484 l 1,8,-1
 75 579 l 1,9,-1
 229 579 l 1,10,-1
 229 484 l 1,11,-1
 321 484 l 1,12,-1
 313 357 l 1,13,-1
 228 357 l 1,14,-1
 228 154 l 2,15,16
 228 132 228 132 249 132 c 0,17,18
 251 132 251 132 312 135 c 1,19,-1
 307 -1 l 1,0,1
EndSplineSet
EndChar

StartChar: u
Encoding: 117 117 88
Width: 478
GlyphClass: 2
Flags: W
LayerCount: 2
Fore
SplineSet
153 -10 m 0,0,1
 31 -10 31 -10 31 125 c 2,2,-1
 31 490 l 1,3,-1
 205 490 l 1,4,-1
 205 167 l 2,5,6
 205 141 205 141 227 141 c 0,7,8
 256 141 256 141 275 156 c 1,9,-1
 275 490 l 1,10,-1
 447 490 l 1,11,-1
 447 2 l 1,12,-1
 285 2 l 1,13,-1
 285 38 l 1,14,-1
 281 38 l 1,15,16
 225 -10 225 -10 153 -10 c 0,0,1
EndSplineSet
EndChar

StartChar: v
Encoding: 118 118 89
Width: 451
GlyphClass: 2
Flags: W
LayerCount: 2
Fore
SplineSet
452 490 m 1,0,-1
 347 0 l 1,1,-1
 105 0 l 1,2,-1
 0 490 l 1,3,-1
 180 490 l 1,4,-1
 224 176 l 1,5,-1
 238 176 l 1,6,-1
 285 490 l 1,7,-1
 452 490 l 1,0,-1
EndSplineSet
EndChar

StartChar: w
Encoding: 119 119 90
Width: 591
GlyphClass: 2
Flags: W
LayerCount: 2
Fore
SplineSet
587 490 m 1,0,-1
 524 0 l 1,1,-1
 337 0 l 1,2,-1
 297 207 l 1,3,-1
 290 207 l 1,4,-1
 251 0 l 1,5,-1
 68 0 l 1,6,-1
 5 490 l 1,7,-1
 163 490 l 1,8,-1
 184 243 l 1,9,-1
 193 243 l 1,10,-1
 227 490 l 1,11,-1
 370 490 l 1,12,-1
 403 243 l 1,13,-1
 413 243 l 1,14,-1
 435 490 l 1,15,-1
 587 490 l 1,0,-1
EndSplineSet
EndChar

StartChar: x
Encoding: 120 120 91
Width: 443
GlyphClass: 2
Flags: W
LayerCount: 2
Fore
SplineSet
437 0 m 1,0,-1
 256 0 l 1,1,-1
 221 144 l 1,2,-1
 215 144 l 1,3,-1
 182 0 l 1,4,-1
 6 0 l 1,5,-1
 89 239 l 1,6,-1
 6 490 l 1,7,-1
 193 490 l 1,8,-1
 222 334 l 1,9,-1
 228 334 l 1,10,-1
 260 490 l 1,11,-1
 435 490 l 1,12,-1
 353 242 l 1,13,-1
 437 0 l 1,0,-1
EndSplineSet
EndChar

StartChar: y
Encoding: 121 121 92
Width: 455
GlyphClass: 2
Flags: W
LayerCount: 2
Fore
SplineSet
456 490 m 1,0,-1
 329 -14 l 2,1,2
 310 -90 310 -90 271.5 -120.5 c 128,-1,3
 233 -151 233 -151 147 -151 c 2,4,-1
 45 -151 l 1,5,-1
 30 -18 l 1,6,-1
 87 -18 l 2,7,8
 122 -18 122 -18 122 9 c 0,9,10
 122 15 122 15 118 36 c 2,11,-1
 0 490 l 1,12,-1
 182 490 l 1,13,-1
 228 184 l 1,14,-1
 238 184 l 1,15,-1
 288 490 l 1,16,-1
 456 490 l 1,0,-1
EndSplineSet
EndChar

StartChar: z
Encoding: 122 122 93
Width: 402
GlyphClass: 2
Flags: W
LayerCount: 2
Fore
SplineSet
390 0 m 1,0,-1
 23 0 l 1,1,-1
 18 98 l 1,2,-1
 170 347 l 1,3,-1
 12 347 l 1,4,-1
 12 490 l 1,5,-1
 380 490 l 1,6,-1
 386 399 l 1,7,-1
 240 141 l 1,8,-1
 390 141 l 1,9,-1
 390 0 l 1,0,-1
EndSplineSet
EndChar

StartChar: braceleft
Encoding: 123 123 94
Width: 343
GlyphClass: 2
Flags: W
LayerCount: 2
Fore
SplineSet
300 -140 m 1,0,-1
 187 -140 l 2,1,2
 120 -140 120 -140 91.5 -109.5 c 128,-1,3
 63 -79 63 -79 63 -8 c 2,4,-1
 63 160 l 2,5,6
 63 188 63 188 54 193.5 c 128,-1,7
 45 199 45 199 8 199 c 1,8,-1
 8 330 l 1,9,10
 45 330 45 330 54 335 c 128,-1,11
 63 340 63 340 63 368 c 2,12,-1
 63 516 l 2,13,14
 63 594 63 594 91 625 c 128,-1,15
 119 656 119 656 187 656 c 2,16,-1
 300 656 l 1,17,-1
 300 520 l 1,18,-1
 230 520 l 1,19,-1
 230 356 l 2,20,21
 230 315 230 315 219 297.5 c 128,-1,22
 208 280 208 280 181 266 c 1,23,-1
 181 259 l 1,24,25
 208 248 208 248 219 229 c 128,-1,26
 230 210 230 210 230 171 c 2,27,-1
 230 -10 l 1,28,-1
 300 -10 l 1,29,-1
 300 -140 l 1,0,-1
EndSplineSet
EndChar

StartChar: bar
Encoding: 124 124 95
Width: 345
GlyphClass: 2
Flags: W
LayerCount: 2
Fore
SplineSet
253 -151 m 1,0,-1
 92 -151 l 1,1,-1
 92 636 l 1,2,-1
 253 636 l 1,3,-1
 253 -151 l 1,0,-1
EndSplineSet
EndChar

StartChar: braceright
Encoding: 125 125 96
Width: 343
GlyphClass: 2
Flags: W
LayerCount: 2
Fore
SplineSet
156 -140 m 2,0,-1
 43 -140 l 1,1,-1
 43 -10 l 1,2,-1
 113 -10 l 1,3,-1
 113 171 l 2,4,5
 113 210 113 210 124 229 c 128,-1,6
 135 248 135 248 162 259 c 1,7,-1
 162 266 l 1,8,9
 135 279 135 279 124 297 c 128,-1,10
 113 315 113 315 113 356 c 2,11,-1
 113 520 l 1,12,-1
 43 520 l 1,13,-1
 43 656 l 1,14,-1
 156 656 l 2,15,16
 225 656 225 656 252.5 625 c 128,-1,17
 280 594 280 594 280 516 c 2,18,-1
 280 368 l 2,19,20
 280 340 280 340 288.5 335 c 128,-1,21
 297 330 297 330 335 330 c 1,22,-1
 335 199 l 1,23,24
 299 199 299 199 289.5 193 c 128,-1,25
 280 187 280 187 280 160 c 2,26,-1
 280 -8 l 2,27,28
 280 -79 280 -79 251.5 -109.5 c 128,-1,29
 223 -140 223 -140 156 -140 c 2,0,-1
EndSplineSet
EndChar

StartChar: asciitilde
Encoding: 126 126 97
Width: 512
GlyphClass: 2
Flags: W
LayerCount: 2
Fore
SplineSet
421 676 m 1,0,-1
 421 668 l 2,1,2
 421 602 421 602 402.5 568.5 c 128,-1,3
 384 535 384 535 329 535 c 0,4,5
 292 535 292 535 247 551 c 2,6,-1
 222 559 l 1,7,-1
 222 523 l 1,8,-1
 111 523 l 1,9,-1
 111 534 l 2,10,11
 111 601 111 601 130.5 634 c 128,-1,12
 150 667 150 667 199 667 c 0,13,14
 215 667 215 667 290 647 c 2,15,-1
 310 642 l 1,16,-1
 310 676 l 1,17,-1
 421 676 l 1,0,-1
EndSplineSet
EndChar

StartChar: exclamdown
Encoding: 161 161 99
Width: 305
GlyphClass: 2
Flags: W
LayerCount: 2
Fore
SplineSet
222 301 m 1,0,-1
 233 -140 l 1,1,-1
 59 -140 l 1,2,-1
 74 301 l 1,3,-1
 222 301 l 1,0,-1
236 426 m 0,4,5
 236 385 236 385 214.5 365 c 128,-1,6
 193 345 193 345 145.5 345 c 128,-1,7
 98 345 98 345 76.5 365 c 128,-1,8
 55 385 55 385 55 428 c 0,9,10
 55 507 55 507 145.5 507 c 128,-1,11
 236 507 236 507 236 426 c 0,4,5
EndSplineSet
EndChar

StartChar: cent
Encoding: 162 162 100
Width: 406
GlyphClass: 2
Flags: W
LayerCount: 2
Fore
SplineSet
217 326 m 128,-1,1
 207 299 207 299 207 241.5 c 128,-1,2
 207 184 207 184 216.5 158.5 c 128,-1,3
 226 133 226 133 257.5 133 c 128,-1,4
 289 133 289 133 339 144 c 1,5,-1
 357 13 l 1,6,7
 325 2 325 2 287 -5 c 1,8,-1
 287 -81 l 1,9,-1
 152 -81 l 1,10,-1
 152 5 l 1,11,12
 35 54 35 54 35 237 c 0,13,14
 35 326 35 326 64.5 391 c 128,-1,15
 94 456 94 456 152 484 c 1,16,-1
 152 582 l 1,17,-1
 287 582 l 1,18,-1
 287 499 l 1,19,20
 328 495 328 495 366 478 c 1,21,-1
 347 328 l 1,22,23
 288 354 288 354 257.5 353.5 c 128,-1,0
 227 353 227 353 217 326 c 128,-1,1
EndSplineSet
EndChar

StartChar: sterling
Encoding: 163 163 101
Width: 576
GlyphClass: 2
Flags: W
LayerCount: 2
Fore
SplineSet
309 646 m 0,0,1
 372 646 372 646 481 627 c 1,2,-1
 461 462 l 1,3,4
 371 481 371 481 350 481 c 0,5,6
 340 481 340 481 340 466.5 c 128,-1,7
 340 452 340 452 359 389 c 1,8,-1
 455 389 l 1,9,-1
 444 287 l 1,10,-1
 372 287 l 1,11,-1
 372 224 l 2,12,13
 372 165 372 165 351 119 c 1,14,-1
 399 98 l 1,15,-1
 407 98 l 1,16,-1
 407 159 l 1,17,-1
 560 159 l 1,18,19
 560 60 560 60 526 11 c 128,-1,20
 492 -38 492 -38 413 -38 c 0,21,22
 370 -38 370 -38 340.5 -28.5 c 128,-1,23
 311 -19 311 -19 268 2 c 1,24,-1
 260 2 l 1,25,26
 211 -24 211 -24 150 -24 c 128,-1,27
 89 -24 89 -24 50.5 9 c 128,-1,28
 12 42 12 42 12 104.5 c 128,-1,29
 12 167 12 167 46 198.5 c 128,-1,30
 80 230 80 230 123.5 230 c 128,-1,31
 167 230 167 230 194 218 c 1,32,-1
 198 218 l 1,33,-1
 198 287 l 1,34,-1
 102 287 l 1,35,-1
 102 389 l 1,36,-1
 173 389 l 1,37,38
 146 469 146 469 146 501 c 0,39,40
 146 646 146 646 309 646 c 0,0,1
136 98.5 m 128,-1,42
 136 78 136 78 158 78 c 128,-1,43
 180 78 180 78 196 95 c 1,44,45
 172 119 172 119 154 119 c 128,-1,41
 136 119 136 119 136 98.5 c 128,-1,42
EndSplineSet
EndChar

StartChar: currency
Encoding: 164 164 102
Width: 797
GlyphClass: 2
Flags: W
LayerCount: 2
Fore
SplineSet
86 78 m 1,0,-1
 55 129 l 1,1,-1
 182 203 l 1,2,3
 165 258 165 258 165 308 c 128,-1,4
 165 358 165 358 177 404 c 1,5,-1
 49 479 l 1,6,-1
 81 534 l 1,7,-1
 204 463 l 1,8,9
 275 555 275 555 403 555 c 128,-1,10
 531 555 531 555 601 465 c 1,11,-1
 718 534 l 1,12,-1
 749 479 l 1,13,-1
 629 410 l 1,14,15
 642 364 642 364 642 312.5 c 128,-1,16
 642 261 642 261 622 202 c 1,17,-1
 744 129 l 1,18,-1
 712 77 l 1,19,-1
 589 150 l 1,20,21
 518 74 518 74 399.5 74 c 128,-1,22
 281 74 281 74 211 152 c 1,23,24
 167 127 167 127 86 78 c 1,0,-1
400 125 m 0,25,26
 578 125 578 125 579 313 c 0,27,28
 579 403 579 403 534 452.5 c 128,-1,29
 489 502 489 502 400 502 c 0,30,31
 224 502 224 502 224 312 c 0,32,33
 224 219 224 219 270 172 c 128,-1,34
 316 125 316 125 400 125 c 0,25,26
EndSplineSet
EndChar

StartChar: yen
Encoding: 165 165 103
Width: 516
GlyphClass: 2
Flags: W
LayerCount: 2
Fore
SplineSet
496 636 m 1,0,-1
 387 324 l 1,1,-1
 464 324 l 1,2,-1
 464 222 l 1,3,-1
 352 222 l 1,4,-1
 344 197 l 1,5,-1
 344 190 l 1,6,-1
 464 190 l 1,7,-1
 464 91 l 1,8,-1
 344 91 l 1,9,-1
 344 0 l 1,10,-1
 170 0 l 1,11,-1
 170 91 l 1,12,-1
 53 91 l 1,13,-1
 53 190 l 1,14,-1
 170 190 l 1,15,-1
 170 197 l 1,16,-1
 161 222 l 1,17,-1
 53 222 l 1,18,-1
 53 324 l 1,19,-1
 127 324 l 1,20,-1
 20 636 l 1,21,-1
 213 636 l 1,22,-1
 259 429 l 1,23,-1
 267 429 l 1,24,-1
 311 636 l 1,25,-1
 496 636 l 1,0,-1
EndSplineSet
EndChar

StartChar: brokenbar
Encoding: 166 166 104
Width: 345
GlyphClass: 2
Flags: W
LayerCount: 2
Fore
SplineSet
253 -151 m 1,0,-1
 92 -151 l 1,1,-1
 92 181 l 1,2,-1
 253 181 l 1,3,-1
 253 -151 l 1,0,-1
253 636 m 1,4,-1
 253 333 l 1,5,-1
 92 333 l 1,6,-1
 92 636 l 1,7,-1
 253 636 l 1,4,-1
EndSplineSet
EndChar

StartChar: section
Encoding: 167 167 105
Width: 450
GlyphClass: 2
Flags: W
LayerCount: 2
Fore
SplineSet
280 205 m 1,0,1
 281 208 281 208 281 218.5 c 128,-1,2
 281 229 281 229 278.5 238.5 c 128,-1,3
 276 248 276 248 269.5 257 c 128,-1,4
 263 266 263 266 258.5 272 c 128,-1,5
 254 278 254 278 241 287.5 c 128,-1,6
 228 297 228 297 223 300.5 c 128,-1,7
 218 304 218 304 199.5 316 c 128,-1,8
 181 328 181 328 175 332 c 1,9,10
 174 326 174 326 174 311 c 128,-1,11
 174 296 174 296 180 283.5 c 128,-1,12
 186 271 186 271 203 257 c 0,13,14
 227 238 227 238 280 205 c 1,0,1
398 340.5 m 128,-1,16
 418 303 418 303 418 252 c 128,-1,17
 418 201 418 201 407 168 c 128,-1,18
 396 135 396 135 371 98 c 1,19,20
 382 69 382 69 382 31 c 0,21,22
 382 -55 382 -55 337 -103 c 128,-1,23
 292 -151 292 -151 205 -151 c 0,24,25
 153 -151 153 -151 48 -130 c 1,26,-1
 60 31 l 1,27,28
 171 1 171 1 201 1 c 128,-1,29
 231 1 231 1 231 30 c 0,30,31
 231 46 231 46 210.5 63 c 128,-1,32
 190 80 190 80 161 98 c 128,-1,33
 132 116 132 116 103 138.5 c 128,-1,34
 74 161 74 161 53.5 197.5 c 128,-1,35
 33 234 33 234 33 280 c 0,36,37
 33 360 33 360 81 422 c 1,38,39
 68 449 68 449 68 485 c 0,40,41
 68 570 68 570 118 617 c 128,-1,42
 168 664 168 664 249 664 c 0,43,44
 282 664 282 664 305.5 659.5 c 128,-1,45
 329 655 329 655 352.5 651 c 128,-1,46
 376 647 376 647 391 644 c 1,47,-1
 369 489 l 1,48,49
 276 511 276 511 250 511 c 128,-1,50
 224 511 224 511 224 490 c 0,51,52
 224 477 224 477 244 463.5 c 128,-1,53
 264 450 264 450 293 434.5 c 128,-1,54
 322 419 322 419 350 398.5 c 128,-1,15
 378 378 378 378 398 340.5 c 128,-1,16
EndSplineSet
EndChar

StartChar: dieresis
Encoding: 168 168 106
Width: 512
GlyphClass: 2
Flags: W
LayerCount: 2
Fore
SplineSet
128.5 547 m 128,-1,1
 112 563 112 563 112 591.5 c 128,-1,2
 112 620 112 620 128.5 635.5 c 128,-1,3
 145 651 145 651 176 651 c 128,-1,4
 207 651 207 651 224.5 635.5 c 128,-1,5
 242 620 242 620 242 592 c 0,6,7
 242 532 242 532 174 531 c 0,8,0
 145 531 145 531 128.5 547 c 128,-1,1
301.5 547 m 128,-1,10
 285 563 285 563 285 591.5 c 128,-1,11
 285 620 285 620 302 635.5 c 128,-1,12
 319 651 319 651 350 651 c 128,-1,13
 381 651 381 651 398 635.5 c 128,-1,14
 415 620 415 620 415 591.5 c 128,-1,15
 415 563 415 563 398 547 c 128,-1,16
 381 531 381 531 349.5 531 c 128,-1,9
 318 531 318 531 301.5 547 c 128,-1,10
EndSplineSet
EndChar

StartChar: copyright
Encoding: 169 169 107
Width: 962
GlyphClass: 2
Flags: W
LayerCount: 2
Fore
SplineSet
477 531 m 0,0,1
 205 531 205 531 205 237.5 c 128,-1,2
 205 -56 205 -56 480 -56 c 0,3,4
 617 -56 617 -56 685 17 c 128,-1,5
 753 90 753 90 753 234 c 128,-1,6
 753 378 753 378 684 454.5 c 128,-1,7
 615 531 615 531 477 531 c 0,0,1
158 564 m 128,-1,9
 275 683 275 683 481.5 683 c 128,-1,10
 688 683 688 683 805 564 c 128,-1,11
 922 445 922 445 922 239.5 c 128,-1,12
 922 34 922 34 801 -84.5 c 128,-1,13
 680 -203 680 -203 474 -203 c 128,-1,14
 268 -203 268 -203 154.5 -86.5 c 128,-1,15
 41 30 41 30 41 237.5 c 128,-1,8
 41 445 41 445 158 564 c 128,-1,9
460 152 m 128,-1,17
 470 128 470 128 498 128 c 128,-1,18
 526 128 526 128 585 144 c 1,19,-1
 608 15 l 1,20,21
 529 -11 529 -11 476 -10 c 0,22,23
 381 -10 381 -10 338 52.5 c 128,-1,24
 295 115 295 115 295 237 c 128,-1,25
 295 359 295 359 340 424 c 128,-1,26
 385 489 385 489 487 489 c 0,27,28
 546 489 546 489 608 460 c 1,29,-1
 584 323 l 1,30,31
 519 345 519 345 494 344.5 c 128,-1,32
 469 344 469 344 459.5 319 c 128,-1,33
 450 294 450 294 450 235 c 128,-1,16
 450 176 450 176 460 152 c 128,-1,17
EndSplineSet
EndChar

StartChar: ordfeminine
Encoding: 170 170 108
Width: 389
GlyphClass: 2
Flags: W
LayerCount: 2
Fore
SplineSet
322 556 m 2,0,-1
 317 408 l 2,1,2
 317 395 317 395 324.5 389.5 c 128,-1,3
 332 384 332 384 348 384 c 1,4,-1
 337 298 l 1,5,6
 306 295 306 295 291 295 c 0,7,8
 238 295 238 295 223 332 c 1,9,-1
 220 332 l 1,10,11
 194 295 194 295 145 295 c 0,12,13
 51 295 51 295 51 396 c 0,14,15
 51 455 51 455 88 478.5 c 128,-1,16
 125 502 125 502 205 509 c 1,17,-1
 205 526 l 2,18,19
 205 546 205 546 184 547 c 0,20,21
 146 547 146 547 77 525 c 1,22,-1
 58 631 l 1,23,24
 154 655 154 655 213 654.5 c 128,-1,25
 272 654 272 654 297 630.5 c 128,-1,26
 322 607 322 607 322 556 c 2,0,-1
183 379 m 0,27,28
 209 379 209 379 209 407 c 2,29,-1
 209 441 l 1,30,31
 183 438 183 438 172 430.5 c 128,-1,32
 161 423 161 423 161 406 c 0,33,34
 160 379 160 379 183 379 c 0,27,28
EndSplineSet
EndChar

StartChar: guillemotleft
Encoding: 171 171 109
Width: 539
GlyphClass: 2
Flags: W
LayerCount: 2
Fore
SplineSet
25 212 m 1,0,-1
 25 275 l 1,1,-1
 205 488 l 1,2,-1
 282 427 l 1,3,-1
 174 248 l 1,4,-1
 283 69 l 1,5,-1
 199 4 l 1,6,-1
 25 212 l 1,0,-1
240 212 m 1,7,-1
 240 275 l 1,8,-1
 417 488 l 1,9,-1
 496 427 l 1,10,-1
 388 248 l 1,11,-1
 497 69 l 1,12,-1
 411 4 l 1,13,-1
 240 212 l 1,7,-1
EndSplineSet
EndChar

StartChar: logicalnot
Encoding: 172 172 110
Width: 499
GlyphClass: 2
Flags: W
LayerCount: 2
Fore
SplineSet
295 133 m 1,0,-1
 295 237 l 1,1,-1
 53 237 l 1,2,-1
 53 366 l 1,3,-1
 440 366 l 1,4,-1
 440 133 l 1,5,-1
 295 133 l 1,0,-1
EndSplineSet
EndChar

StartChar: registered
Encoding: 174 174 111
Width: 962
GlyphClass: 2
Flags: W
LayerCount: 2
Fore
SplineSet
526 300 m 0,0,1
 526 323 526 323 518.5 333 c 128,-1,2
 511 343 511 343 492 343 c 2,3,-1
 469 343 l 1,4,-1
 469 258 l 1,5,-1
 494 258 l 2,6,7
 526 258 526 258 526 300 c 0,0,1
670 322 m 0,8,9
 670 237 670 237 623 194 c 1,10,-1
 686 29 l 1,11,12
 753 110 753 110 753 244 c 128,-1,13
 753 378 753 378 684 454.5 c 128,-1,14
 615 531 615 531 477 531 c 0,15,16
 205 531 205 531 205 237 c 0,17,18
 205 92 205 92 274 18 c 128,-1,19
 343 -56 343 -56 476 -56 c 0,20,21
 587 -56 587 -56 663 0 c 1,22,-1
 536 0 l 1,23,-1
 484 150 l 1,24,-1
 476 150 l 1,25,-1
 476 0 l 1,26,-1
 322 0 l 1,27,-1
 322 478 l 1,28,-1
 503 478 l 2,29,30
 670 479 670 479 670 322 c 0,8,9
158 564 m 128,-1,32
 275 683 275 683 481.5 683 c 128,-1,33
 688 683 688 683 805 564 c 128,-1,34
 922 445 922 445 922 239.5 c 128,-1,35
 922 34 922 34 801 -84.5 c 128,-1,36
 680 -203 680 -203 474 -203 c 128,-1,37
 268 -203 268 -203 154.5 -86.5 c 128,-1,38
 41 30 41 30 41 237.5 c 128,-1,31
 41 445 41 445 158 564 c 128,-1,32
EndSplineSet
EndChar

StartChar: macron
Encoding: 175 175 112
Width: 512
GlyphClass: 2
Flags: W
LayerCount: 2
Fore
SplineSet
404 543 m 1,0,-1
 128 543 l 1,1,-1
 128 660 l 1,2,-1
 404 660 l 1,3,-1
 404 543 l 1,0,-1
EndSplineSet
EndChar

StartChar: degree
Encoding: 176 176 113
Width: 309
GlyphClass: 2
Flags: W
LayerCount: 2
Fore
SplineSet
244.5 615.5 m 128,-1,1
 272 585 272 585 272 519 c 128,-1,2
 272 453 272 453 244.5 422 c 128,-1,3
 217 391 217 391 154.5 391 c 128,-1,4
 92 391 92 391 64.5 422 c 128,-1,5
 37 453 37 453 37 518 c 128,-1,6
 37 583 37 583 65 614.5 c 128,-1,7
 93 646 93 646 155 646 c 128,-1,0
 217 646 217 646 244.5 615.5 c 128,-1,1
180 518.5 m 128,-1,9
 180 538 180 538 174.5 546.5 c 128,-1,10
 169 555 169 555 154 555 c 128,-1,11
 139 555 139 555 133.5 547 c 128,-1,12
 128 539 128 539 128 519 c 128,-1,13
 128 499 128 499 133.5 491 c 128,-1,14
 139 483 139 483 153.5 483 c 128,-1,15
 168 483 168 483 174 491 c 128,-1,8
 180 499 180 499 180 518.5 c 128,-1,9
EndSplineSet
EndChar

StartChar: plusminus
Encoding: 177 177 114
Width: 493
GlyphClass: 2
Flags: W
LayerCount: 2
Fore
SplineSet
440 305 m 1,0,-1
 311 305 l 1,1,-1
 311 177 l 1,2,-1
 178 177 l 1,3,-1
 178 305 l 1,4,-1
 53 305 l 1,5,-1
 53 434 l 1,6,-1
 178 434 l 1,7,-1
 178 567 l 1,8,-1
 311 567 l 1,9,-1
 311 434 l 1,10,-1
 440 434 l 1,11,-1
 440 305 l 1,0,-1
440 0 m 1,12,-1
 53 0 l 1,13,-1
 53 129 l 1,14,-1
 440 129 l 1,15,-1
 440 0 l 1,12,-1
EndSplineSet
EndChar

StartChar: twosuperior
Encoding: 178 178 115
Width: 370
GlyphClass: 2
Flags: W
LayerCount: 2
Fore
SplineSet
45 608 m 1,0,1
 115 646 115 646 183.5 646 c 128,-1,2
 252 646 252 646 288.5 610.5 c 128,-1,3
 325 575 325 575 325 510 c 0,4,5
 325 466 325 466 310.5 428.5 c 128,-1,6
 296 391 296 391 278.5 367.5 c 128,-1,7
 261 344 261 344 219 296 c 1,8,-1
 326 296 l 1,9,-1
 326 194 l 1,10,-1
 62 194 l 1,11,-1
 56 266 l 1,12,13
 107 319 107 319 133 349 c 128,-1,14
 159 379 159 379 181 417 c 128,-1,15
 203 455 203 455 203 479 c 0,16,17
 203 527 203 527 162 527 c 0,18,19
 133 527 133 527 68 498 c 1,20,-1
 45 608 l 1,0,1
EndSplineSet
EndChar

StartChar: threesuperior
Encoding: 179 179 116
Width: 371
GlyphClass: 2
Flags: W
LayerCount: 2
Fore
SplineSet
185 646 m 0,0,1
 319 646 319 646 319 529 c 0,2,3
 319 464 319 464 265 429 c 1,4,-1
 265 426 l 1,5,6
 326 398 326 398 327 328 c 0,7,8
 327 187 327 187 181 186 c 0,9,10
 126 186 126 186 57 215 c 1,11,-1
 83 315 l 1,12,13
 141 293 141 293 165 294 c 0,14,15
 199 294 199 294 199 331 c 0,16,17
 199 372 199 372 154 372 c 2,18,-1
 110 372 l 1,19,-1
 110 465 l 1,20,-1
 155 465 l 2,21,22
 191 465 191 465 190.5 500.5 c 128,-1,23
 190 536 190 536 158 536 c 0,24,25
 133 536 133 536 74 511 c 1,26,-1
 45 608 l 1,27,28
 116 646 116 646 185 646 c 0,0,1
EndSplineSet
EndChar

StartChar: acute
Encoding: 180 180 117
Width: 512
GlyphClass: 2
Flags: W
LayerCount: 2
Fore
SplineSet
385 676 m 1,0,-1
 274 532 l 1,1,-1
 157 532 l 1,2,-1
 221 676 l 1,3,-1
 385 676 l 1,0,-1
EndSplineSet
EndChar

StartChar: mu
Encoding: 181 181 118
AltUni2: 0003bc.ffffffff.0 0003bc.ffffffff.0
Width: 531
GlyphClass: 2
Flags: W
LayerCount: 2
Fore
SplineSet
248 -10 m 0,0,1
 223 -10 223 -10 201 0 c 1,2,-1
 201 -147 l 1,3,-1
 31 -147 l 1,4,-1
 31 485 l 1,5,-1
 203 485 l 1,6,-1
 203 188 l 2,7,8
 203 135 203 135 252.5 135 c 128,-1,9
 302 135 302 135 302 188 c 2,10,-1
 302 485 l 1,11,-1
 476 485 l 1,12,-1
 476 147 l 2,13,14
 476 115 476 115 523 116 c 1,15,-1
 502 -10 l 1,16,-1
 464 -10 l 2,17,18
 393 -10 393 -10 357 29 c 1,19,-1
 353 29 l 1,20,21
 315 -10 315 -10 248 -10 c 0,0,1
EndSplineSet
EndChar

StartChar: paragraph
Encoding: 182 182 119
Width: 589
GlyphClass: 2
Flags: W
LayerCount: 2
Fore
SplineSet
535 -133 m 1,0,-1
 390 -133 l 1,1,-1
 390 527 l 1,2,-1
 358 527 l 1,3,-1
 358 -133 l 1,4,-1
 213 -133 l 1,5,-1
 213 198 l 1,6,7
 123 198 123 198 71.5 254.5 c 128,-1,8
 20 311 20 311 20 419 c 128,-1,9
 20 527 20 527 80.5 588 c 128,-1,10
 141 649 141 649 248 649 c 2,11,-1
 535 649 l 1,12,-1
 535 -133 l 1,0,-1
EndSplineSet
EndChar

StartChar: periodcentered
Encoding: 183 183 120
Width: 354
GlyphClass: 2
Flags: W
LayerCount: 2
Fore
SplineSet
181.5 221 m 128,-1,1
 83 221 83 221 83 312.5 c 128,-1,2
 83 404 83 404 181.5 404 c 128,-1,3
 280 404 280 404 280 312.5 c 128,-1,0
 280 221 280 221 181.5 221 c 128,-1,1
EndSplineSet
EndChar

StartChar: cedilla
Encoding: 184 184 121
Width: 512
GlyphClass: 2
Flags: W
LayerCount: 2
Fore
SplineSet
344 -64 m 128,-1,1
 360 -79 360 -79 360 -107 c 128,-1,2
 360 -135 360 -135 335 -155 c 128,-1,3
 310 -175 310 -175 260.5 -175 c 128,-1,4
 211 -175 211 -175 167 -145 c 1,5,-1
 202 -81 l 1,6,7
 244 -113 244 -113 260 -113 c 128,-1,8
 276 -113 276 -113 276 -103 c 128,-1,9
 276 -93 276 -93 263 -86 c 2,10,-1
 246 -76 l 2,11,12
 222 -64 222 -64 222 -43 c 128,-1,13
 222 -22 222 -22 238 -8 c 1,14,-1
 304 -8 l 1,15,16
 295 -17 295 -17 295 -25 c 128,-1,17
 295 -33 295 -33 311.5 -41 c 128,-1,0
 328 -49 328 -49 344 -64 c 128,-1,1
EndSplineSet
EndChar

StartChar: onesuperior
Encoding: 185 185 122
Width: 285
GlyphClass: 2
Flags: W
LayerCount: 2
Fore
SplineSet
216 190 m 1,0,-1
 96 190 l 1,1,-1
 96 521 l 1,2,-1
 45 521 l 1,3,-1
 45 597 l 1,4,-1
 118 636 l 1,5,-1
 216 636 l 1,6,-1
 216 190 l 1,0,-1
EndSplineSet
EndChar

StartChar: ordmasculine
Encoding: 186 186 123
Width: 397
GlyphClass: 2
Flags: W
LayerCount: 2
Fore
SplineSet
85.5 611.5 m 128,-1,1
 122 654 122 654 198.5 654 c 128,-1,2
 275 654 275 654 310.5 612.5 c 128,-1,3
 346 571 346 571 346 476 c 128,-1,4
 346 381 346 381 312 338 c 128,-1,5
 278 295 278 295 199.5 295 c 128,-1,6
 121 295 121 295 85 338 c 128,-1,7
 49 381 49 381 49 475 c 128,-1,0
 49 569 49 569 85.5 611.5 c 128,-1,1
198.5 557 m 128,-1,9
 180 557 180 557 175 542.5 c 128,-1,10
 170 528 170 528 170 482 c 2,11,-1
 170 466 l 2,12,13
 170 415 170 415 175 399.5 c 128,-1,14
 180 384 180 384 198.5 384 c 128,-1,15
 217 384 217 384 221.5 399 c 128,-1,16
 226 414 226 414 226 461 c 2,17,-1
 226 482 l 2,18,19
 226 528 226 528 221.5 542.5 c 128,-1,8
 217 557 217 557 198.5 557 c 128,-1,9
EndSplineSet
EndChar

StartChar: guillemotright
Encoding: 187 187 124
Width: 539
GlyphClass: 2
Flags: W
LayerCount: 2
Fore
SplineSet
515 275 m 1,0,-1
 515 212 l 1,1,-1
 341 4 l 1,2,-1
 257 69 l 1,3,-1
 366 248 l 1,4,-1
 258 427 l 1,5,-1
 335 488 l 1,6,-1
 515 275 l 1,0,-1
300 275 m 1,7,-1
 300 212 l 1,8,-1
 129 4 l 1,9,-1
 43 69 l 1,10,-1
 152 248 l 1,11,-1
 44 427 l 1,12,-1
 123 488 l 1,13,-1
 300 275 l 1,7,-1
EndSplineSet
EndChar

StartChar: onequarter
Encoding: 188 188 125
Width: 819
GlyphClass: 2
Flags: W
LayerCount: 2
Fore
SplineSet
505 646 m 1,0,-1
 321 -10 l 1,1,-1
 201 -10 l 1,2,-1
 384 646 l 1,3,-1
 505 646 l 1,0,-1
769 87 m 1,4,-1
 719 87 l 1,5,-1
 719 0 l 1,6,-1
 599 0 l 1,7,-1
 599 87 l 1,8,-1
 436 87 l 1,9,-1
 424 172 l 1,10,-1
 570 445 l 1,11,-1
 719 445 l 1,12,-1
 719 183 l 1,13,-1
 774 183 l 1,14,-1
 769 87 l 1,4,-1
602 183 m 1,15,-1
 602 293 l 1,16,-1
 598 293 l 1,17,-1
 540 183 l 1,18,-1
 602 183 l 1,15,-1
216 190 m 1,19,-1
 96 190 l 1,20,-1
 96 521 l 1,21,-1
 45 521 l 1,22,-1
 45 597 l 1,23,-1
 118 636 l 1,24,-1
 216 636 l 1,25,-1
 216 190 l 1,19,-1
EndSplineSet
EndChar

StartChar: onehalf
Encoding: 189 189 126
Width: 794
GlyphClass: 2
Flags: W
LayerCount: 2
Fore
SplineSet
505 646 m 1,0,-1
 321 -10 l 1,1,-1
 201 -10 l 1,2,-1
 384 646 l 1,3,-1
 505 646 l 1,0,-1
216 190 m 1,4,-1
 96 190 l 1,5,-1
 96 521 l 1,6,-1
 45 521 l 1,7,-1
 45 597 l 1,8,-1
 118 636 l 1,9,-1
 216 636 l 1,10,-1
 216 190 l 1,4,-1
469 415 m 1,11,12
 539 453 539 453 607.5 453 c 128,-1,13
 676 453 676 453 712.5 417.5 c 128,-1,14
 749 382 749 382 749 316 c 0,15,16
 749 272 749 272 734.5 235 c 128,-1,17
 720 198 720 198 702.5 174.5 c 128,-1,18
 685 151 685 151 643 102 c 1,19,-1
 750 102 l 1,20,-1
 750 0 l 1,21,-1
 486 0 l 1,22,-1
 480 73 l 1,23,24
 531 126 531 126 557 155.5 c 128,-1,25
 583 185 583 185 605 223 c 128,-1,26
 627 261 627 261 627 286 c 0,27,28
 627 334 627 334 586 334 c 0,29,30
 557 334 557 334 492 304 c 1,31,-1
 469 415 l 1,11,12
EndSplineSet
EndChar

StartChar: threequarters
Encoding: 190 190 127
Width: 899
GlyphClass: 2
Flags: W
LayerCount: 2
Fore
SplineSet
585 646 m 1,0,-1
 400 -10 l 1,1,-1
 281 -10 l 1,2,-1
 464 646 l 1,3,-1
 585 646 l 1,0,-1
185 646 m 0,4,5
 319 646 319 646 319 529 c 0,6,7
 319 464 319 464 265 429 c 1,8,-1
 265 426 l 1,9,10
 326 398 326 398 327 328 c 0,11,12
 327 187 327 187 181 186 c 0,13,14
 126 186 126 186 57 215 c 1,15,-1
 83 315 l 1,16,17
 141 293 141 293 165 294 c 0,18,19
 199 294 199 294 199 331 c 0,20,21
 199 372 199 372 154 372 c 2,22,-1
 110 372 l 1,23,-1
 110 465 l 1,24,-1
 155 465 l 2,25,26
 191 465 191 465 190.5 500.5 c 128,-1,27
 190 536 190 536 158 536 c 0,28,29
 133 536 133 536 74 511 c 1,30,-1
 45 608 l 1,31,32
 116 646 116 646 185 646 c 0,4,5
849 87 m 1,33,-1
 799 87 l 1,34,-1
 799 0 l 1,35,-1
 679 0 l 1,36,-1
 679 87 l 1,37,-1
 516 87 l 1,38,-1
 504 172 l 1,39,-1
 650 445 l 1,40,-1
 799 445 l 1,41,-1
 799 183 l 1,42,-1
 854 183 l 1,43,-1
 849 87 l 1,33,-1
682 183 m 1,44,-1
 682 293 l 1,45,-1
 678 293 l 1,46,-1
 620 183 l 1,47,-1
 682 183 l 1,44,-1
EndSplineSet
EndChar

StartChar: questiondown
Encoding: 191 191 128
Width: 396
GlyphClass: 2
Flags: W
LayerCount: 2
Fore
SplineSet
31 22 m 0,0,1
 31 99 31 99 61.5 140.5 c 128,-1,2
 92 182 92 182 152 218 c 2,3,-1
 162 224 l 1,4,-1
 162 287 l 1,5,-1
 296 287 l 1,6,-1
 296 183 l 2,7,8
 296 151 296 151 285.5 135 c 128,-1,9
 275 119 275 119 249 106 c 128,-1,10
 223 93 223 93 212 87 c 128,-1,11
 201 81 201 81 190 67 c 128,-1,12
 179 53 179 53 179 31 c 128,-1,13
 179 9 179 9 190.5 -2.5 c 128,-1,14
 202 -14 202 -14 227.5 -14 c 128,-1,15
 253 -14 253 -14 343 9 c 1,16,-1
 343 -145 l 1,17,18
 257 -167 257 -167 198 -167 c 0,19,20
 31 -166 31 -166 31 22 c 0,0,1
314 427 m 0,21,22
 314 346 314 346 226 346 c 128,-1,23
 138 346 138 346 138 427 c 0,24,25
 138 466 138 466 158 485 c 128,-1,26
 178 504 178 504 223 504 c 0,27,28
 314 504 314 504 314 427 c 0,21,22
EndSplineSet
EndChar

StartChar: Agrave
Encoding: 192 192 129
Width: 509
GlyphClass: 2
Flags: W
LayerCount: 2
Fore
SplineSet
502 0 m 1,0,-1
 331 0 l 1,1,-1
 311 100 l 1,2,-1
 190 100 l 1,3,-1
 171 0 l 1,4,-1
 8 0 l 1,5,-1
 125 636 l 1,6,-1
 385 636 l 1,7,-1
 502 0 l 1,0,-1
292 220 m 1,8,-1
 256 447 l 1,9,-1
 249 447 l 1,10,-1
 213 220 l 1,11,-1
 292 220 l 1,8,-1
220 680 m 1,12,-1
 115 816 l 1,13,-1
 268 816 l 1,14,-1
 332 680 l 1,15,-1
 220 680 l 1,12,-1
EndSplineSet
EndChar

StartChar: Aacute
Encoding: 193 193 130
Width: 509
GlyphClass: 2
Flags: W
LayerCount: 2
Fore
SplineSet
502 0 m 1,0,-1
 331 0 l 1,1,-1
 311 100 l 1,2,-1
 190 100 l 1,3,-1
 171 0 l 1,4,-1
 8 0 l 1,5,-1
 125 636 l 1,6,-1
 385 636 l 1,7,-1
 502 0 l 1,0,-1
292 220 m 1,8,-1
 256 447 l 1,9,-1
 249 447 l 1,10,-1
 213 220 l 1,11,-1
 292 220 l 1,8,-1
392 816 m 1,12,-1
 288 680 l 1,13,-1
 175 680 l 1,14,-1
 237 816 l 1,15,-1
 392 816 l 1,12,-1
EndSplineSet
EndChar

StartChar: Acircumflex
Encoding: 194 194 131
Width: 509
GlyphClass: 2
Flags: W
LayerCount: 2
Fore
SplineSet
502 0 m 1,0,-1
 331 0 l 1,1,-1
 311 100 l 1,2,-1
 190 100 l 1,3,-1
 171 0 l 1,4,-1
 8 0 l 1,5,-1
 125 636 l 1,6,-1
 385 636 l 1,7,-1
 502 0 l 1,0,-1
292 220 m 1,8,-1
 256 447 l 1,9,-1
 249 447 l 1,10,-1
 213 220 l 1,11,-1
 292 220 l 1,8,-1
326 811 m 1,12,-1
 390 680 l 1,13,-1
 287 680 l 1,14,-1
 253 734 l 1,15,-1
 219 680 l 1,16,-1
 115 680 l 1,17,-1
 179 811 l 1,18,-1
 326 811 l 1,12,-1
EndSplineSet
EndChar

StartChar: Atilde
Encoding: 195 195 132
Width: 509
GlyphClass: 2
Flags: W
LayerCount: 2
Fore
SplineSet
502 0 m 1,0,-1
 331 0 l 1,1,-1
 311 100 l 1,2,-1
 190 100 l 1,3,-1
 171 0 l 1,4,-1
 8 0 l 1,5,-1
 125 636 l 1,6,-1
 385 636 l 1,7,-1
 502 0 l 1,0,-1
292 220 m 1,8,-1
 256 447 l 1,9,-1
 249 447 l 1,10,-1
 213 220 l 1,11,-1
 292 220 l 1,8,-1
395 816 m 1,12,-1
 395 808 l 2,13,14
 395 747 395 747 377.5 714.5 c 128,-1,15
 360 682 360 682 307 682 c 0,16,17
 275 682 275 682 229 697 c 2,18,-1
 206 706 l 1,19,-1
 206 671 l 1,20,-1
 100 671 l 1,21,-1
 100 681 l 2,22,23
 100 744 100 744 118.5 775.5 c 128,-1,24
 137 807 137 807 183 807 c 0,25,26
 201 807 201 807 270 788 c 2,27,-1
 290 784 l 1,28,-1
 290 816 l 1,29,-1
 395 816 l 1,12,-1
EndSplineSet
EndChar

StartChar: Adieresis
Encoding: 196 196 133
Width: 509
GlyphClass: 2
Flags: W
LayerCount: 2
Fore
SplineSet
502 0 m 1,0,-1
 331 0 l 1,1,-1
 311 100 l 1,2,-1
 190 100 l 1,3,-1
 171 0 l 1,4,-1
 8 0 l 1,5,-1
 125 636 l 1,6,-1
 385 636 l 1,7,-1
 502 0 l 1,0,-1
292 220 m 1,8,-1
 256 447 l 1,9,-1
 249 447 l 1,10,-1
 213 220 l 1,11,-1
 292 220 l 1,8,-1
120 694.5 m 128,-1,13
 104 710 104 710 104 736 c 128,-1,14
 104 762 104 762 120 777.5 c 128,-1,15
 136 793 136 793 165 793 c 128,-1,16
 194 793 194 793 210.5 778 c 128,-1,17
 227 763 227 763 227 736 c 0,18,19
 227 679 227 679 163 679 c 0,20,12
 136 679 136 679 120 694.5 c 128,-1,13
284.5 694.5 m 128,-1,22
 268 710 268 710 268 736 c 128,-1,23
 268 762 268 762 284.5 777.5 c 128,-1,24
 301 793 301 793 330 793 c 128,-1,25
 359 793 359 793 375.5 778 c 128,-1,26
 392 763 392 763 392 736.5 c 128,-1,27
 392 710 392 710 375.5 694.5 c 128,-1,28
 359 679 359 679 330 679 c 128,-1,21
 301 679 301 679 284.5 694.5 c 128,-1,22
EndSplineSet
EndChar

StartChar: Aring
Encoding: 197 197 134
Width: 509
GlyphClass: 2
Flags: W
LayerCount: 2
Fore
SplineSet
502 0 m 1,0,-1
 331 0 l 1,1,-1
 311 100 l 1,2,-1
 190 100 l 1,3,-1
 171 0 l 1,4,-1
 8 0 l 1,5,-1
 125 636 l 1,6,-1
 385 636 l 1,7,-1
 502 0 l 1,0,-1
292 220 m 1,8,-1
 256 447 l 1,9,-1
 249 447 l 1,10,-1
 213 220 l 1,11,-1
 292 220 l 1,8,-1
191.5 805 m 128,-1,13
 215 826 215 826 253 826 c 128,-1,14
 291 826 291 826 313.5 806 c 128,-1,15
 336 786 336 786 336 750.5 c 128,-1,16
 336 715 336 715 313.5 694 c 128,-1,17
 291 673 291 673 253 673 c 128,-1,18
 215 673 215 673 191.5 693.5 c 128,-1,19
 168 714 168 714 168 749 c 128,-1,12
 168 784 168 784 191.5 805 c 128,-1,13
251.5 779 m 128,-1,21
 230 779 230 779 230 750.5 c 128,-1,22
 230 722 230 722 251.5 722 c 128,-1,23
 273 722 273 722 273 750.5 c 128,-1,20
 273 779 273 779 251.5 779 c 128,-1,21
EndSplineSet
EndChar

StartChar: AE
Encoding: 198 198 135
Width: 714
GlyphClass: 2
Flags: W
LayerCount: 2
Fore
SplineSet
690 0 m 1,0,-1
 346 0 l 1,1,-1
 346 100 l 1,2,-1
 211 100 l 1,3,-1
 172 0 l 1,4,-1
 0 0 l 1,5,-1
 266 636 l 1,6,-1
 700 636 l 1,7,-1
 690 479 l 1,8,-1
 521 479 l 1,9,-1
 521 384 l 1,10,-1
 668 384 l 1,11,-1
 668 249 l 1,12,-1
 521 249 l 1,13,-1
 521 143 l 1,14,-1
 700 143 l 1,15,-1
 690 0 l 1,0,-1
346 220 m 1,16,-1
 346 447 l 1,17,-1
 339 447 l 1,18,-1
 256 220 l 1,19,-1
 346 220 l 1,16,-1
EndSplineSet
EndChar

StartChar: Ccedilla
Encoding: 199 199 136
Width: 477
GlyphClass: 2
Flags: W
LayerCount: 2
Fore
SplineSet
359 -57.5 m 128,-1,1
 375 -73 375 -73 375 -101.5 c 128,-1,2
 375 -130 375 -130 349 -151.5 c 128,-1,3
 323 -173 323 -173 271 -173 c 128,-1,4
 219 -173 219 -173 175 -140 c 1,5,-1
 212 -69 l 1,6,7
 248 -103 248 -103 276 -102 c 0,8,9
 284 -102 284 -102 284.5 -94.5 c 128,-1,10
 285 -87 285 -87 273 -81 c 2,11,-1
 252 -69 l 2,12,13
 230 -56 230 -56 230 -37 c 128,-1,14
 230 -18 230 -18 243 -6 c 1,15,16
 146 9 146 9 86 91 c 128,-1,17
 26 173 26 173 26 320 c 128,-1,18
 26 467 26 467 103 563 c 128,-1,19
 180 659 180 659 296 659 c 128,-1,20
 412 659 412 659 469 599 c 1,21,-1
 412 445 l 1,22,23
 393 464 393 464 380 475 c 0,24,25
 346 505 346 505 302.5 505 c 128,-1,26
 259 505 259 505 232.5 452.5 c 128,-1,27
 206 400 206 400 206 320.5 c 128,-1,28
 206 241 206 241 233 189.5 c 128,-1,29
 260 138 260 138 305 138 c 0,30,31
 365 138 365 138 413 190 c 1,32,-1
 470 45 l 1,33,34
 409 -3 409 -3 316 -9 c 1,35,36
 311 -16 311 -16 311 -21.5 c 128,-1,37
 311 -27 311 -27 327 -34.5 c 128,-1,0
 343 -42 343 -42 359 -57.5 c 128,-1,1
EndSplineSet
EndChar

StartChar: Egrave
Encoding: 200 200 137
Width: 413
GlyphClass: 2
Flags: W
LayerCount: 2
Fore
SplineSet
389 0 m 1,0,-1
 45 0 l 1,1,-1
 45 636 l 1,2,-1
 399 636 l 1,3,-1
 389 479 l 1,4,-1
 220 479 l 1,5,-1
 220 384 l 1,6,-1
 367 384 l 1,7,-1
 367 249 l 1,8,-1
 220 249 l 1,9,-1
 220 143 l 1,10,-1
 399 143 l 1,11,-1
 389 0 l 1,0,-1
186 680 m 1,12,-1
 81 816 l 1,13,-1
 234 816 l 1,14,-1
 298 680 l 1,15,-1
 186 680 l 1,12,-1
EndSplineSet
EndChar

StartChar: Eacute
Encoding: 201 201 138
Width: 413
GlyphClass: 2
Flags: W
LayerCount: 2
Fore
SplineSet
389 0 m 1,0,-1
 45 0 l 1,1,-1
 45 636 l 1,2,-1
 399 636 l 1,3,-1
 389 479 l 1,4,-1
 220 479 l 1,5,-1
 220 384 l 1,6,-1
 367 384 l 1,7,-1
 367 249 l 1,8,-1
 220 249 l 1,9,-1
 220 143 l 1,10,-1
 399 143 l 1,11,-1
 389 0 l 1,0,-1
369 816 m 1,12,-1
 264 680 l 1,13,-1
 152 680 l 1,14,-1
 213 816 l 1,15,-1
 369 816 l 1,12,-1
EndSplineSet
EndChar

StartChar: Ecircumflex
Encoding: 202 202 139
Width: 413
GlyphClass: 2
Flags: W
LayerCount: 2
Fore
SplineSet
389 0 m 1,0,-1
 45 0 l 1,1,-1
 45 636 l 1,2,-1
 399 636 l 1,3,-1
 389 479 l 1,4,-1
 220 479 l 1,5,-1
 220 384 l 1,6,-1
 367 384 l 1,7,-1
 367 249 l 1,8,-1
 220 249 l 1,9,-1
 220 143 l 1,10,-1
 399 143 l 1,11,-1
 389 0 l 1,0,-1
290 811 m 1,12,-1
 354 680 l 1,13,-1
 251 680 l 1,14,-1
 217 734 l 1,15,-1
 183 680 l 1,16,-1
 79 680 l 1,17,-1
 143 811 l 1,18,-1
 290 811 l 1,12,-1
EndSplineSet
EndChar

StartChar: Edieresis
Encoding: 203 203 140
Width: 413
GlyphClass: 2
Flags: W
LayerCount: 2
Fore
SplineSet
389 0 m 1,0,-1
 45 0 l 1,1,-1
 45 636 l 1,2,-1
 399 636 l 1,3,-1
 389 479 l 1,4,-1
 220 479 l 1,5,-1
 220 384 l 1,6,-1
 367 384 l 1,7,-1
 367 249 l 1,8,-1
 220 249 l 1,9,-1
 220 143 l 1,10,-1
 399 143 l 1,11,-1
 389 0 l 1,0,-1
92 694.5 m 128,-1,13
 76 710 76 710 76 736 c 128,-1,14
 76 762 76 762 92 777.5 c 128,-1,15
 108 793 108 793 136.5 793 c 128,-1,16
 165 793 165 793 182 778 c 128,-1,17
 199 763 199 763 199 736 c 0,18,19
 199 679 199 679 134 679 c 0,20,12
 108 679 108 679 92 694.5 c 128,-1,13
256 694.5 m 128,-1,22
 240 710 240 710 240 736 c 128,-1,23
 240 762 240 762 256 777.5 c 128,-1,24
 272 793 272 793 301.5 793 c 128,-1,25
 331 793 331 793 347.5 778 c 128,-1,26
 364 763 364 763 364 736.5 c 128,-1,27
 364 710 364 710 347.5 694.5 c 128,-1,28
 331 679 331 679 301.5 679 c 128,-1,21
 272 679 272 679 256 694.5 c 128,-1,22
EndSplineSet
EndChar

StartChar: Igrave
Encoding: 204 204 141
Width: 278
GlyphClass: 2
Flags: W
LayerCount: 2
Fore
SplineSet
214 0 m 1,0,-1
 40 0 l 1,1,-1
 40 636 l 1,2,-1
 214 636 l 1,3,-1
 214 0 l 1,0,-1
84 680 m 1,4,-1
 -22 816 l 1,5,-1
 132 816 l 1,6,-1
 196 680 l 1,7,-1
 84 680 l 1,4,-1
EndSplineSet
EndChar

StartChar: Iacute
Encoding: 205 205 142
Width: 278
GlyphClass: 2
Flags: W
LayerCount: 2
Fore
SplineSet
218 0 m 1,0,-1
 44 0 l 1,1,-1
 44 636 l 1,2,-1
 218 636 l 1,3,-1
 218 0 l 1,0,-1
264 816 m 1,4,-1
 160 680 l 1,5,-1
 47 680 l 1,6,-1
 109 816 l 1,7,-1
 264 816 l 1,4,-1
EndSplineSet
EndChar

StartChar: Icircumflex
Encoding: 206 206 143
Width: 278
GlyphClass: 2
Flags: W
LayerCount: 2
Fore
SplineSet
214 0 m 1,0,-1
 40 0 l 1,1,-1
 40 636 l 1,2,-1
 214 636 l 1,3,-1
 214 0 l 1,0,-1
201 811 m 1,4,-1
 265 680 l 1,5,-1
 162 680 l 1,6,-1
 128 734 l 1,7,-1
 94 680 l 1,8,-1
 -10 680 l 1,9,-1
 54 811 l 1,10,-1
 201 811 l 1,4,-1
EndSplineSet
EndChar

StartChar: Idieresis
Encoding: 207 207 144
Width: 278
GlyphClass: 2
Flags: W
LayerCount: 2
Fore
SplineSet
214 0 m 1,0,-1
 40 0 l 1,1,-1
 40 636 l 1,2,-1
 214 636 l 1,3,-1
 214 0 l 1,0,-1
-0.5 694.5 m 128,-1,5
 -16 710 -16 710 -16 736 c 128,-1,6
 -16 762 -16 762 -0.5 777.5 c 128,-1,7
 15 793 15 793 44 793 c 128,-1,8
 73 793 73 793 89.5 778 c 128,-1,9
 106 763 106 763 106 736 c 0,10,11
 106 679 106 679 42 679 c 0,12,4
 15 679 15 679 -0.5 694.5 c 128,-1,5
163.5 694.5 m 128,-1,14
 147 710 147 710 147 736 c 128,-1,15
 147 762 147 762 163.5 777.5 c 128,-1,16
 180 793 180 793 209.5 793 c 128,-1,17
 239 793 239 793 255 778 c 128,-1,18
 271 763 271 763 271 736.5 c 128,-1,19
 271 710 271 710 255 694.5 c 128,-1,20
 239 679 239 679 209.5 679 c 128,-1,13
 180 679 180 679 163.5 694.5 c 128,-1,14
EndSplineSet
EndChar

StartChar: Eth
Encoding: 208 208 145
Width: 538
GlyphClass: 2
Flags: W
LayerCount: 2
Fore
SplineSet
518 332 m 0,0,1
 518 0 518 0 256 0 c 2,2,-1
 45 0 l 1,3,-1
 45 256 l 1,4,-1
 -11 256 l 1,5,-1
 -11 377 l 1,6,-1
 45 377 l 1,7,-1
 45 636 l 1,8,-1
 260 636 l 2,9,10
 400 636 400 636 459 557.5 c 128,-1,11
 518 479 518 479 518 332 c 0,0,1
275 256 m 1,12,-1
 219 256 l 1,13,-1
 219 147 l 1,14,-1
 253 147 l 2,15,16
 307 147 307 147 323 185.5 c 128,-1,17
 339 224 339 224 339 315 c 128,-1,18
 339 406 339 406 322 443.5 c 128,-1,19
 305 481 305 481 250 481 c 2,20,-1
 219 481 l 1,21,-1
 219 377 l 1,22,-1
 275 377 l 1,23,-1
 275 256 l 1,12,-1
EndSplineSet
EndChar

StartChar: Ntilde
Encoding: 209 209 146
Width: 556
GlyphClass: 2
Flags: W
LayerCount: 2
Fore
SplineSet
510 0 m 1,0,-1
 342 0 l 1,1,-1
 210 296 l 1,2,-1
 202 296 l 1,3,-1
 202 0 l 1,4,-1
 46 0 l 1,5,-1
 46 636 l 1,6,-1
 219 636 l 1,7,-1
 345 331 l 1,8,-1
 353 331 l 1,9,-1
 353 636 l 1,10,-1
 510 636 l 1,11,-1
 510 0 l 1,0,-1
429 816 m 1,12,-1
 429 808 l 2,13,14
 429 747 429 747 411.5 714.5 c 128,-1,15
 394 682 394 682 341 682 c 0,16,17
 309 682 309 682 263 697 c 2,18,-1
 240 706 l 1,19,-1
 240 671 l 1,20,-1
 134 671 l 1,21,-1
 134 681 l 2,22,23
 134 744 134 744 152.5 775.5 c 128,-1,24
 171 807 171 807 217 807 c 0,25,26
 235 807 235 807 304 788 c 2,27,-1
 324 784 l 1,28,-1
 324 816 l 1,29,-1
 429 816 l 1,12,-1
EndSplineSet
EndChar

StartChar: Ograve
Encoding: 210 210 147
Width: 550
GlyphClass: 2
Flags: W
LayerCount: 2
Fore
SplineSet
276.5 646 m 128,-1,1
 411 646 411 646 468.5 570.5 c 128,-1,2
 526 495 526 495 526 324.5 c 128,-1,3
 526 154 526 154 467 72 c 128,-1,4
 408 -10 408 -10 274.5 -10 c 128,-1,5
 141 -10 141 -10 83 71 c 128,-1,6
 25 152 25 152 25 322.5 c 128,-1,7
 25 493 25 493 83.5 569.5 c 128,-1,0
 142 646 142 646 276.5 646 c 128,-1,1
335.5 451 m 128,-1,9
 321 484 321 484 275 484 c 128,-1,10
 229 484 229 484 216 451 c 128,-1,11
 203 418 203 418 203 325 c 2,12,-1
 203 300 l 2,13,14
 203 201 203 201 217.5 169.5 c 128,-1,15
 232 138 232 138 278 138 c 128,-1,16
 324 138 324 138 337 168 c 128,-1,17
 350 198 350 198 350 291 c 2,18,-1
 350 324 l 2,19,8
 350 418 350 418 335.5 451 c 128,-1,9
234 680 m 1,20,-1
 129 816 l 1,21,-1
 283 816 l 1,22,-1
 346 680 l 1,23,-1
 234 680 l 1,20,-1
EndSplineSet
EndChar

StartChar: Oacute
Encoding: 211 211 148
Width: 550
GlyphClass: 2
Flags: W
LayerCount: 2
Fore
SplineSet
276.5 646 m 128,-1,1
 411 646 411 646 468.5 570.5 c 128,-1,2
 526 495 526 495 526 324.5 c 128,-1,3
 526 154 526 154 467 72 c 128,-1,4
 408 -10 408 -10 274.5 -10 c 128,-1,5
 141 -10 141 -10 83 71 c 128,-1,6
 25 152 25 152 25 322.5 c 128,-1,7
 25 493 25 493 83.5 569.5 c 128,-1,0
 142 646 142 646 276.5 646 c 128,-1,1
335.5 451 m 128,-1,9
 321 484 321 484 275 484 c 128,-1,10
 229 484 229 484 216 451 c 128,-1,11
 203 418 203 418 203 325 c 2,12,-1
 203 300 l 2,13,14
 203 201 203 201 217.5 169.5 c 128,-1,15
 232 138 232 138 278 138 c 128,-1,16
 324 138 324 138 337 168 c 128,-1,17
 350 198 350 198 350 291 c 2,18,-1
 350 324 l 2,19,8
 350 418 350 418 335.5 451 c 128,-1,9
422 816 m 1,20,-1
 317 680 l 1,21,-1
 205 680 l 1,22,-1
 266 816 l 1,23,-1
 422 816 l 1,20,-1
EndSplineSet
EndChar

StartChar: Ocircumflex
Encoding: 212 212 149
Width: 550
GlyphClass: 2
Flags: W
LayerCount: 2
Fore
SplineSet
276.5 646 m 128,-1,1
 411 646 411 646 468.5 570.5 c 128,-1,2
 526 495 526 495 526 324.5 c 128,-1,3
 526 154 526 154 467 72 c 128,-1,4
 408 -10 408 -10 274.5 -10 c 128,-1,5
 141 -10 141 -10 83 71 c 128,-1,6
 25 152 25 152 25 322.5 c 128,-1,7
 25 493 25 493 83.5 569.5 c 128,-1,0
 142 646 142 646 276.5 646 c 128,-1,1
335.5 451 m 128,-1,9
 321 484 321 484 275 484 c 128,-1,10
 229 484 229 484 216 451 c 128,-1,11
 203 418 203 418 203 325 c 2,12,-1
 203 300 l 2,13,14
 203 201 203 201 217.5 169.5 c 128,-1,15
 232 138 232 138 278 138 c 128,-1,16
 324 138 324 138 337 168 c 128,-1,17
 350 198 350 198 350 291 c 2,18,-1
 350 324 l 2,19,8
 350 418 350 418 335.5 451 c 128,-1,9
348 811 m 1,20,-1
 413 680 l 1,21,-1
 309 680 l 1,22,-1
 275 734 l 1,23,-1
 242 680 l 1,24,-1
 137 680 l 1,25,-1
 202 811 l 1,26,-1
 348 811 l 1,20,-1
EndSplineSet
EndChar

StartChar: Otilde
Encoding: 213 213 150
Width: 550
GlyphClass: 2
Flags: W
LayerCount: 2
Fore
SplineSet
276.5 646 m 128,-1,1
 411 646 411 646 468.5 570.5 c 128,-1,2
 526 495 526 495 526 324.5 c 128,-1,3
 526 154 526 154 467 72 c 128,-1,4
 408 -10 408 -10 274.5 -10 c 128,-1,5
 141 -10 141 -10 83 71 c 128,-1,6
 25 152 25 152 25 322.5 c 128,-1,7
 25 493 25 493 83.5 569.5 c 128,-1,0
 142 646 142 646 276.5 646 c 128,-1,1
335.5 451 m 128,-1,9
 321 484 321 484 275 484 c 128,-1,10
 229 484 229 484 216 451 c 128,-1,11
 203 418 203 418 203 325 c 2,12,-1
 203 300 l 2,13,14
 203 201 203 201 217.5 169.5 c 128,-1,15
 232 138 232 138 278 138 c 128,-1,16
 324 138 324 138 337 168 c 128,-1,17
 350 198 350 198 350 291 c 2,18,-1
 350 324 l 2,19,8
 350 418 350 418 335.5 451 c 128,-1,9
416 816 m 1,20,-1
 416 808 l 2,21,22
 416 747 416 747 398.5 714.5 c 128,-1,23
 381 682 381 682 328 682 c 0,24,25
 296 682 296 682 250 697 c 2,26,-1
 226 706 l 1,27,-1
 226 671 l 1,28,-1
 121 671 l 1,29,-1
 121 681 l 2,30,31
 121 744 121 744 139.5 775.5 c 128,-1,32
 158 807 158 807 204 807 c 0,33,34
 222 807 222 807 291 788 c 2,35,-1
 310 784 l 1,36,-1
 310 816 l 1,37,-1
 416 816 l 1,20,-1
EndSplineSet
EndChar

StartChar: Odieresis
Encoding: 214 214 151
Width: 550
GlyphClass: 2
Flags: W
LayerCount: 2
Fore
SplineSet
276.5 646 m 128,-1,1
 411 646 411 646 468.5 570.5 c 128,-1,2
 526 495 526 495 526 324.5 c 128,-1,3
 526 154 526 154 467 72 c 128,-1,4
 408 -10 408 -10 274.5 -10 c 128,-1,5
 141 -10 141 -10 83 71 c 128,-1,6
 25 152 25 152 25 322.5 c 128,-1,7
 25 493 25 493 83.5 569.5 c 128,-1,0
 142 646 142 646 276.5 646 c 128,-1,1
335.5 451 m 128,-1,9
 321 484 321 484 275 484 c 128,-1,10
 229 484 229 484 216 451 c 128,-1,11
 203 418 203 418 203 325 c 2,12,-1
 203 300 l 2,13,14
 203 201 203 201 217.5 169.5 c 128,-1,15
 232 138 232 138 278 138 c 128,-1,16
 324 138 324 138 337 168 c 128,-1,17
 350 198 350 198 350 291 c 2,18,-1
 350 324 l 2,19,8
 350 418 350 418 335.5 451 c 128,-1,9
148 694.5 m 128,-1,21
 132 710 132 710 132 736 c 128,-1,22
 132 762 132 762 148 777.5 c 128,-1,23
 164 793 164 793 192.5 793 c 128,-1,24
 221 793 221 793 238 778 c 128,-1,25
 255 763 255 763 255 736 c 0,26,27
 255 679 255 679 190 679 c 0,28,20
 164 679 164 679 148 694.5 c 128,-1,21
312.5 694.5 m 128,-1,30
 296 710 296 710 296 736 c 128,-1,31
 296 762 296 762 312.5 777.5 c 128,-1,32
 329 793 329 793 358 793 c 128,-1,33
 387 793 387 793 403.5 778 c 128,-1,34
 420 763 420 763 420 736.5 c 128,-1,35
 420 710 420 710 403.5 694.5 c 128,-1,36
 387 679 387 679 358 679 c 128,-1,29
 329 679 329 679 312.5 694.5 c 128,-1,30
EndSplineSet
EndChar

StartChar: multiply
Encoding: 215 215 152
Width: 487
GlyphClass: 2
Flags: W
LayerCount: 2
Fore
SplineSet
342 113 m 1,0,-1
 246 214 l 1,1,-1
 147 112 l 1,2,-1
 53 206 l 1,3,-1
 156 304 l 1,4,-1
 53 401 l 1,5,-1
 145 493 l 1,6,-1
 243 391 l 1,7,-1
 340 493 l 1,8,-1
 434 398 l 1,9,-1
 333 301 l 1,10,-1
 433 204 l 1,11,-1
 342 113 l 1,0,-1
EndSplineSet
EndChar

StartChar: Oslash
Encoding: 216 216 153
Width: 550
GlyphClass: 2
Flags: W
LayerCount: 2
Fore
SplineSet
276 646 m 0,0,1
 303 646 303 646 328 643 c 1,2,-1
 350 699 l 1,3,-1
 520 699 l 1,4,-1
 469 569 l 1,5,6
 526 494 526 494 526 324 c 128,-1,7
 526 154 526 154 467 72 c 128,-1,8
 408 -10 408 -10 273 -10 c 0,9,10
 261 -10 261 -10 241 -8 c 1,11,-1
 215 -73 l 1,12,-1
 43 -73 l 1,13,-1
 94 56 l 1,14,15
 24 135 24 135 24.5 314 c 128,-1,16
 25 493 25 493 83.5 569.5 c 128,-1,17
 142 646 142 646 276 646 c 0,0,1
335.5 457 m 128,-1,19
 321 490 321 490 275 490 c 128,-1,20
 229 490 229 490 216 457 c 128,-1,21
 203 424 203 424 203 331 c 2,22,-1
 203 306 l 2,23,24
 203 206 203 206 217.5 172 c 128,-1,25
 232 138 232 138 277.5 138 c 128,-1,26
 323 138 323 138 336.5 170.5 c 128,-1,27
 350 203 350 203 350 297 c 2,28,-1
 350 330 l 2,29,18
 350 424 350 424 335.5 457 c 128,-1,19
EndSplineSet
EndChar

StartChar: Ugrave
Encoding: 217 217 154
Width: 556
GlyphClass: 2
Flags: W
LayerCount: 2
Fore
SplineSet
237.5 161.5 m 128,-1,1
 251 146 251 146 281 146 c 128,-1,2
 311 146 311 146 323 161 c 128,-1,3
 335 176 335 176 335 210 c 2,4,-1
 335 636 l 1,5,-1
 511 636 l 1,6,-1
 511 200 l 2,7,8
 511 90 511 90 451 40 c 128,-1,9
 391 -10 391 -10 275 -10 c 128,-1,10
 159 -10 159 -10 102 39.5 c 128,-1,11
 45 89 45 89 45 198 c 2,12,-1
 45 636 l 1,13,-1
 224 636 l 1,14,-1
 224 209 l 2,15,0
 224 177 224 177 237.5 161.5 c 128,-1,1
231 680 m 1,16,-1
 126 816 l 1,17,-1
 280 816 l 1,18,-1
 343 680 l 1,19,-1
 231 680 l 1,16,-1
EndSplineSet
EndChar

StartChar: Uacute
Encoding: 218 218 155
Width: 556
GlyphClass: 2
Flags: W
LayerCount: 2
Fore
SplineSet
237.5 161.5 m 128,-1,1
 251 146 251 146 281 146 c 128,-1,2
 311 146 311 146 323 161 c 128,-1,3
 335 176 335 176 335 210 c 2,4,-1
 335 636 l 1,5,-1
 511 636 l 1,6,-1
 511 200 l 2,7,8
 511 90 511 90 451 40 c 128,-1,9
 391 -10 391 -10 275 -10 c 128,-1,10
 159 -10 159 -10 102 39.5 c 128,-1,11
 45 89 45 89 45 198 c 2,12,-1
 45 636 l 1,13,-1
 224 636 l 1,14,-1
 224 209 l 2,15,0
 224 177 224 177 237.5 161.5 c 128,-1,1
435 816 m 1,16,-1
 331 680 l 1,17,-1
 218 680 l 1,18,-1
 280 816 l 1,19,-1
 435 816 l 1,16,-1
EndSplineSet
EndChar

StartChar: Ucircumflex
Encoding: 219 219 156
Width: 556
GlyphClass: 2
Flags: W
LayerCount: 2
Fore
SplineSet
237.5 161.5 m 128,-1,1
 251 146 251 146 281 146 c 128,-1,2
 311 146 311 146 323 161 c 128,-1,3
 335 176 335 176 335 210 c 2,4,-1
 335 636 l 1,5,-1
 511 636 l 1,6,-1
 511 200 l 2,7,8
 511 90 511 90 451 40 c 128,-1,9
 391 -10 391 -10 275 -10 c 128,-1,10
 159 -10 159 -10 102 39.5 c 128,-1,11
 45 89 45 89 45 198 c 2,12,-1
 45 636 l 1,13,-1
 224 636 l 1,14,-1
 224 209 l 2,15,0
 224 177 224 177 237.5 161.5 c 128,-1,1
353 811 m 1,16,-1
 418 680 l 1,17,-1
 314 680 l 1,18,-1
 281 734 l 1,19,-1
 247 680 l 1,20,-1
 142 680 l 1,21,-1
 207 811 l 1,22,-1
 353 811 l 1,16,-1
EndSplineSet
EndChar

StartChar: Udieresis
Encoding: 220 220 157
Width: 556
GlyphClass: 2
Flags: W
LayerCount: 2
Fore
SplineSet
237.5 161.5 m 128,-1,1
 251 146 251 146 281 146 c 128,-1,2
 311 146 311 146 323 161 c 128,-1,3
 335 176 335 176 335 210 c 2,4,-1
 335 636 l 1,5,-1
 511 636 l 1,6,-1
 511 200 l 2,7,8
 511 90 511 90 451 40 c 128,-1,9
 391 -10 391 -10 275 -10 c 128,-1,10
 159 -10 159 -10 102 39.5 c 128,-1,11
 45 89 45 89 45 198 c 2,12,-1
 45 636 l 1,13,-1
 224 636 l 1,14,-1
 224 209 l 2,15,0
 224 177 224 177 237.5 161.5 c 128,-1,1
151 694.5 m 128,-1,17
 135 710 135 710 135 736 c 128,-1,18
 135 762 135 762 151 777.5 c 128,-1,19
 167 793 167 793 195.5 793 c 128,-1,20
 224 793 224 793 241 778 c 128,-1,21
 258 763 258 763 258 736 c 0,22,23
 258 679 258 679 194 679 c 0,24,16
 167 679 167 679 151 694.5 c 128,-1,17
315.5 694.5 m 128,-1,26
 299 710 299 710 299 736 c 128,-1,27
 299 762 299 762 315.5 777.5 c 128,-1,28
 332 793 332 793 361 793 c 128,-1,29
 390 793 390 793 406.5 778 c 128,-1,30
 423 763 423 763 423 736.5 c 128,-1,31
 423 710 423 710 406.5 694.5 c 128,-1,32
 390 679 390 679 361 679 c 128,-1,25
 332 679 332 679 315.5 694.5 c 128,-1,26
EndSplineSet
EndChar

StartChar: Yacute
Encoding: 221 221 158
Width: 475
GlyphClass: 2
Flags: W
LayerCount: 2
Fore
SplineSet
475 636 m 1,0,-1
 324 197 l 1,1,-1
 324 0 l 1,2,-1
 150 0 l 1,3,-1
 150 197 l 1,4,-1
 0 636 l 1,5,-1
 193 636 l 1,6,-1
 239 429 l 1,7,-1
 247 429 l 1,8,-1
 291 636 l 1,9,-1
 475 636 l 1,0,-1
398 806 m 1,10,-1
 294 670 l 1,11,-1
 181 670 l 1,12,-1
 243 806 l 1,13,-1
 398 806 l 1,10,-1
EndSplineSet
EndChar

StartChar: Thorn
Encoding: 222 222 159
Width: 473
GlyphClass: 2
Flags: W
LayerCount: 2
Fore
SplineSet
256 117 m 2,0,-1
 217 117 l 1,1,-1
 217 0 l 1,2,-1
 45 0 l 1,3,-1
 45 636 l 1,4,-1
 217 636 l 1,5,-1
 217 545 l 1,6,-1
 245 545 l 2,7,8
 359 545 359 545 410 495 c 128,-1,9
 461 445 461 445 461 330.5 c 128,-1,10
 461 216 461 216 411.5 166.5 c 128,-1,11
 362 117 362 117 256 117 c 2,0,-1
285 317 m 128,-1,13
 285 362 285 362 274.5 380.5 c 128,-1,14
 264 399 264 399 233 399 c 2,15,-1
 217 399 l 1,16,-1
 217 238 l 1,17,-1
 238 238 l 2,18,19
 267 238 267 238 276 255 c 128,-1,12
 285 272 285 272 285 317 c 128,-1,13
EndSplineSet
EndChar

StartChar: germandbls
Encoding: 223 223 160
Width: 516
GlyphClass: 2
Flags: W
LayerCount: 2
Fore
SplineSet
252 138 m 1,0,-1
 289 135 l 2,1,2
 335 135 335 135 335 196 c 0,3,4
 335 268 335 268 247 267 c 1,5,-1
 247 395 l 1,6,7
 282 395 282 395 297 411 c 128,-1,8
 312 427 312 427 312 460 c 0,9,10
 312 520 312 520 263 520 c 0,11,12
 225 520 225 520 225 480 c 2,13,-1
 225 0 l 1,14,-1
 54 0 l 1,15,-1
 54 349 l 1,16,-1
 9 349 l 1,17,-1
 9 476 l 1,18,-1
 54 476 l 1,19,-1
 54 493 l 2,20,21
 54 585 54 585 107 628 c 128,-1,22
 160 671 160 671 268 671 c 128,-1,23
 376 671 376 671 433 623 c 128,-1,24
 490 575 490 575 490 484.5 c 128,-1,25
 490 394 490 394 428 349 c 1,26,-1
 428 345 l 1,27,28
 512 302 512 302 512 183 c 0,29,30
 512 90 512 90 468 40 c 128,-1,31
 424 -10 424 -10 336 -10 c 0,32,33
 304 -10 304 -10 247 0 c 1,34,-1
 252 138 l 1,0,-1
EndSplineSet
EndChar

StartChar: agrave
Encoding: 224 224 161
Width: 446
GlyphClass: 2
Flags: W
LayerCount: 2
Fore
SplineSet
400 362 m 2,0,-1
 395 151 l 2,1,2
 395 132 395 132 405 125 c 128,-1,3
 415 118 415 118 438 118 c 1,4,-1
 423 -6 l 1,5,6
 364 -10 364 -10 357 -10 c 0,7,8
 281 -10 281 -10 261 42 c 1,9,-1
 256 42 l 1,10,11
 218 -10 218 -10 139 -10 c 0,12,13
 79 -10 79 -10 46.5 29 c 128,-1,14
 14 68 14 68 14 135 c 0,15,16
 14 220 14 220 67 253 c 128,-1,17
 120 286 120 286 233 296 c 1,18,-1
 233 321 l 2,19,20
 233 350 233 350 205 349 c 0,21,22
 156 349 156 349 51 319 c 1,23,-1
 26 469 l 1,24,25
 157 503 157 503 244 503 c 128,-1,26
 331 503 331 503 365.5 469 c 128,-1,27
 400 435 400 435 400 362 c 2,0,-1
203 110 m 0,28,29
 241 110 241 110 241 150 c 2,30,-1
 241 200 l 1,31,32
 203 195 203 195 187 184 c 128,-1,33
 171 173 171 173 171 147 c 0,34,35
 171 110 171 110 203 110 c 0,28,29
184 532 m 1,36,-1
 74 676 l 1,37,-1
 236 676 l 1,38,-1
 302 532 l 1,39,-1
 184 532 l 1,36,-1
EndSplineSet
EndChar

StartChar: aacute
Encoding: 225 225 162
Width: 446
GlyphClass: 2
Flags: W
LayerCount: 2
Fore
SplineSet
400 362 m 2,0,-1
 395 151 l 2,1,2
 395 132 395 132 405 125 c 128,-1,3
 415 118 415 118 438 118 c 1,4,-1
 423 -6 l 1,5,6
 364 -10 364 -10 357 -10 c 0,7,8
 281 -10 281 -10 261 42 c 1,9,-1
 256 42 l 1,10,11
 218 -10 218 -10 139 -10 c 0,12,13
 79 -10 79 -10 46.5 29 c 128,-1,14
 14 68 14 68 14 135 c 0,15,16
 14 220 14 220 67 253 c 128,-1,17
 120 286 120 286 233 296 c 1,18,-1
 233 321 l 2,19,20
 233 350 233 350 205 349 c 0,21,22
 156 349 156 349 51 319 c 1,23,-1
 26 469 l 1,24,25
 157 503 157 503 244 503 c 128,-1,26
 331 503 331 503 365.5 469 c 128,-1,27
 400 435 400 435 400 362 c 2,0,-1
203 110 m 0,28,29
 241 110 241 110 241 150 c 2,30,-1
 241 200 l 1,31,32
 203 195 203 195 187 184 c 128,-1,33
 171 173 171 173 171 147 c 0,34,35
 171 110 171 110 203 110 c 0,28,29
372 676 m 1,36,-1
 261 532 l 1,37,-1
 143 532 l 1,38,-1
 208 676 l 1,39,-1
 372 676 l 1,36,-1
EndSplineSet
EndChar

StartChar: acircumflex
Encoding: 226 226 163
Width: 446
GlyphClass: 2
Flags: W
LayerCount: 2
Fore
SplineSet
400 362 m 2,0,-1
 395 151 l 2,1,2
 395 132 395 132 405 125 c 128,-1,3
 415 118 415 118 438 118 c 1,4,-1
 423 -6 l 1,5,6
 364 -10 364 -10 357 -10 c 0,7,8
 281 -10 281 -10 261 42 c 1,9,-1
 256 42 l 1,10,11
 218 -10 218 -10 139 -10 c 0,12,13
 79 -10 79 -10 46.5 29 c 128,-1,14
 14 68 14 68 14 135 c 0,15,16
 14 220 14 220 67 253 c 128,-1,17
 120 286 120 286 233 296 c 1,18,-1
 233 321 l 2,19,20
 233 350 233 350 205 349 c 0,21,22
 156 349 156 349 51 319 c 1,23,-1
 26 469 l 1,24,25
 157 503 157 503 244 503 c 128,-1,26
 331 503 331 503 365.5 469 c 128,-1,27
 400 435 400 435 400 362 c 2,0,-1
203 110 m 0,28,29
 241 110 241 110 241 150 c 2,30,-1
 241 200 l 1,31,32
 203 195 203 195 187 184 c 128,-1,33
 171 173 171 173 171 147 c 0,34,35
 171 110 171 110 203 110 c 0,28,29
298 671 m 1,36,-1
 366 532 l 1,37,-1
 257 532 l 1,38,-1
 221 590 l 1,39,-1
 185 532 l 1,40,-1
 76 532 l 1,41,-1
 143 671 l 1,42,-1
 298 671 l 1,36,-1
EndSplineSet
EndChar

StartChar: atilde
Encoding: 227 227 164
Width: 446
GlyphClass: 2
Flags: W
LayerCount: 2
Fore
SplineSet
400 362 m 2,0,-1
 395 151 l 2,1,2
 395 132 395 132 405 125 c 128,-1,3
 415 118 415 118 438 118 c 1,4,-1
 423 -6 l 1,5,6
 364 -10 364 -10 357 -10 c 0,7,8
 281 -10 281 -10 261 42 c 1,9,-1
 256 42 l 1,10,11
 218 -10 218 -10 139 -10 c 0,12,13
 79 -10 79 -10 46.5 29 c 128,-1,14
 14 68 14 68 14 135 c 0,15,16
 14 220 14 220 67 253 c 128,-1,17
 120 286 120 286 233 296 c 1,18,-1
 233 321 l 2,19,20
 233 350 233 350 205 349 c 0,21,22
 156 349 156 349 51 319 c 1,23,-1
 26 469 l 1,24,25
 157 503 157 503 244 503 c 128,-1,26
 331 503 331 503 365.5 469 c 128,-1,27
 400 435 400 435 400 362 c 2,0,-1
203 110 m 0,28,29
 241 110 241 110 241 150 c 2,30,-1
 241 200 l 1,31,32
 203 195 203 195 187 184 c 128,-1,33
 171 173 171 173 171 147 c 0,34,35
 171 110 171 110 203 110 c 0,28,29
368 676 m 1,36,-1
 368 668 l 2,37,38
 368 602 368 602 349.5 568.5 c 128,-1,39
 331 535 331 535 275 535 c 0,40,41
 238 535 238 535 194 551 c 2,42,-1
 169 559 l 1,43,-1
 169 523 l 1,44,-1
 57 523 l 1,45,-1
 57 534 l 2,46,47
 57 601 57 601 76.5 634 c 128,-1,48
 96 667 96 667 145 667 c 0,49,50
 161 667 161 667 237 647 c 2,51,-1
 257 642 l 1,52,-1
 257 676 l 1,53,-1
 368 676 l 1,36,-1
EndSplineSet
EndChar

StartChar: adieresis
Encoding: 228 228 165
Width: 446
GlyphClass: 2
Flags: W
LayerCount: 2
Fore
SplineSet
400 362 m 2,0,-1
 395 151 l 2,1,2
 395 132 395 132 405 125 c 128,-1,3
 415 118 415 118 438 118 c 1,4,-1
 423 -6 l 1,5,6
 364 -10 364 -10 357 -10 c 0,7,8
 281 -10 281 -10 261 42 c 1,9,-1
 256 42 l 1,10,11
 218 -10 218 -10 139 -10 c 0,12,13
 79 -10 79 -10 46.5 29 c 128,-1,14
 14 68 14 68 14 135 c 0,15,16
 14 220 14 220 67 253 c 128,-1,17
 120 286 120 286 233 296 c 1,18,-1
 233 321 l 2,19,20
 233 350 233 350 205 349 c 0,21,22
 156 349 156 349 51 319 c 1,23,-1
 26 469 l 1,24,25
 157 503 157 503 244 503 c 128,-1,26
 331 503 331 503 365.5 469 c 128,-1,27
 400 435 400 435 400 362 c 2,0,-1
203 110 m 0,28,29
 241 110 241 110 241 150 c 2,30,-1
 241 200 l 1,31,32
 203 195 203 195 187 184 c 128,-1,33
 171 173 171 173 171 147 c 0,34,35
 171 110 171 110 203 110 c 0,28,29
81.5 547 m 128,-1,37
 65 563 65 563 65 591.5 c 128,-1,38
 65 620 65 620 81.5 635.5 c 128,-1,39
 98 651 98 651 129 651 c 128,-1,40
 160 651 160 651 177.5 635.5 c 128,-1,41
 195 620 195 620 195 592 c 0,42,43
 195 532 195 532 127 531 c 0,44,36
 98 531 98 531 81.5 547 c 128,-1,37
254.5 547 m 128,-1,46
 238 563 238 563 238 591.5 c 128,-1,47
 238 620 238 620 255 635.5 c 128,-1,48
 272 651 272 651 303 651 c 128,-1,49
 334 651 334 651 351 635.5 c 128,-1,50
 368 620 368 620 368 591.5 c 128,-1,51
 368 563 368 563 351 547 c 128,-1,52
 334 531 334 531 302.5 531 c 128,-1,45
 271 531 271 531 254.5 547 c 128,-1,46
EndSplineSet
EndChar

StartChar: aring
Encoding: 229 229 166
Width: 446
GlyphClass: 2
Flags: W
LayerCount: 2
Fore
SplineSet
400 362 m 2,0,-1
 395 151 l 2,1,2
 395 132 395 132 405 125 c 128,-1,3
 415 118 415 118 438 118 c 1,4,-1
 423 -6 l 1,5,6
 364 -10 364 -10 357 -10 c 0,7,8
 281 -10 281 -10 261 42 c 1,9,-1
 256 42 l 1,10,11
 218 -10 218 -10 139 -10 c 0,12,13
 79 -10 79 -10 46.5 29 c 128,-1,14
 14 68 14 68 14 135 c 0,15,16
 14 220 14 220 67 253 c 128,-1,17
 120 286 120 286 233 296 c 1,18,-1
 233 321 l 2,19,20
 233 350 233 350 205 349 c 0,21,22
 156 349 156 349 51 319 c 1,23,-1
 26 469 l 1,24,25
 157 503 157 503 244 503 c 128,-1,26
 331 503 331 503 365.5 469 c 128,-1,27
 400 435 400 435 400 362 c 2,0,-1
203 110 m 0,28,29
 241 110 241 110 241 150 c 2,30,-1
 241 200 l 1,31,32
 203 195 203 195 187 184 c 128,-1,33
 171 173 171 173 171 147 c 0,34,35
 171 110 171 110 203 110 c 0,28,29
152.5 665 m 128,-1,37
 177 687 177 687 217 687 c 128,-1,38
 257 687 257 687 280.5 666 c 128,-1,39
 304 645 304 645 304 607 c 128,-1,40
 304 569 304 569 280.5 547 c 128,-1,41
 257 525 257 525 217 525 c 128,-1,42
 177 525 177 525 152.5 546.5 c 128,-1,43
 128 568 128 568 128 605.5 c 128,-1,36
 128 643 128 643 152.5 665 c 128,-1,37
216.5 637 m 128,-1,45
 194 637 194 637 194 607 c 128,-1,46
 194 577 194 577 216.5 577 c 128,-1,47
 239 577 239 577 239 607 c 128,-1,44
 239 637 239 637 216.5 637 c 128,-1,45
EndSplineSet
EndChar

StartChar: ae
Encoding: 230 230 167
Width: 658
GlyphClass: 2
Flags: W
LayerCount: 2
Fore
SplineSet
48.5 28.5 m 128,-1,1
 14 67 14 67 14 143.5 c 128,-1,2
 14 220 14 220 67 253 c 128,-1,3
 120 286 120 286 233 296 c 1,4,-1
 233 321 l 2,5,6
 233 350 233 350 205 349 c 0,7,8
 156 349 156 349 51 319 c 1,9,-1
 26 469 l 1,10,11
 157 503 157 503 251 503 c 0,12,13
 305 503 305 503 343 477 c 1,14,15
 386 503 386 503 446 503 c 0,16,17
 551 503 551 503 597 452 c 128,-1,18
 643 401 643 401 643 307 c 0,19,20
 643 248 643 248 637 201 c 1,21,-1
 402 201 l 1,22,23
 402 120 402 120 473 120 c 0,24,25
 507 120 507 120 605 143 c 1,26,-1
 624 18 l 1,27,28
 531 -11 531 -11 440 -10.5 c 128,-1,29
 349 -10 349 -10 300 53 c 1,30,-1
 296 53 l 1,31,32
 241 -10 241 -10 144 -10 c 0,33,0
 83 -10 83 -10 48.5 28.5 c 128,-1,1
442 358 m 0,34,35
 415 358 415 358 407 340.5 c 128,-1,36
 399 323 399 323 399 286 c 1,37,-1
 488 286 l 1,38,-1
 488 310 l 2,39,40
 488 358 488 358 442 358 c 0,34,35
203 110 m 0,41,42
 241 110 241 110 241 150 c 2,43,-1
 241 200 l 1,44,45
 203 195 203 195 187 184 c 128,-1,46
 171 173 171 173 171 147 c 0,47,48
 171 110 171 110 203 110 c 0,41,42
EndSplineSet
EndChar

StartChar: ccedilla
Encoding: 231 231 168
Width: 353
GlyphClass: 2
Flags: W
LayerCount: 2
Fore
SplineSet
328 332 m 1,0,1
 269 358 269 358 238.5 357.5 c 128,-1,2
 208 357 208 357 197.5 328.5 c 128,-1,3
 187 300 187 300 187 242 c 128,-1,4
 187 184 187 184 197 158.5 c 128,-1,5
 207 133 207 133 241 133 c 128,-1,6
 275 133 275 133 326 144 c 1,7,-1
 344 13 l 1,8,9
 285 -6 285 -6 233 -9 c 1,10,11
 226 -18 226 -18 226 -25.5 c 128,-1,12
 226 -33 226 -33 243 -41 c 0,13,14
 292 -66 292 -66 292 -100.5 c 128,-1,15
 292 -135 292 -135 267 -155 c 128,-1,16
 242 -175 242 -175 192.5 -175 c 128,-1,17
 143 -175 143 -175 98 -145 c 1,18,-1
 133 -81 l 1,19,20
 175 -113 175 -113 191.5 -113 c 128,-1,21
 208 -113 208 -113 208 -103 c 128,-1,22
 208 -93 208 -93 195 -86 c 2,23,-1
 177 -76 l 2,24,25
 153 -64 153 -64 153.5 -44 c 128,-1,26
 154 -24 154 -24 169 -6 c 1,27,28
 93 7 93 7 54 70.5 c 128,-1,29
 15 134 15 134 15 245 c 128,-1,30
 15 356 15 356 66.5 429.5 c 128,-1,31
 118 503 118 503 215 503 c 0,32,33
 288 503 288 503 346 478 c 1,34,-1
 328 332 l 1,0,1
EndSplineSet
EndChar

StartChar: egrave
Encoding: 232 232 169
Width: 454
GlyphClass: 2
Flags: W
LayerCount: 2
Fore
SplineSet
238 356 m 0,0,1
 211 356 211 356 203 338.5 c 128,-1,2
 195 321 195 321 195 284 c 1,3,-1
 284 284 l 1,4,-1
 284 308 l 2,5,6
 284 356 284 356 238 356 c 0,0,1
242 503 m 0,7,8
 347 503 347 503 392.5 452 c 128,-1,9
 438 401 438 401 438 307 c 0,10,11
 438 295 438 295 431 197 c 1,12,-1
 198 197 l 1,13,14
 198 120 198 120 268 120 c 0,15,16
 302 120 302 120 400 143 c 1,17,-1
 415 16 l 1,18,19
 329 -11 329 -11 243 -10 c 0,20,21
 138 -10 138 -10 81.5 59 c 128,-1,22
 25 128 25 128 25 247 c 0,23,24
 25 503 25 503 242 503 c 0,7,8
209 532 m 1,25,-1
 98 676 l 1,26,-1
 260 676 l 1,27,-1
 327 532 l 1,28,-1
 209 532 l 1,25,-1
EndSplineSet
EndChar

StartChar: eacute
Encoding: 233 233 170
Width: 454
GlyphClass: 2
Flags: W
LayerCount: 2
Fore
SplineSet
238 356 m 0,0,1
 211 356 211 356 203 338.5 c 128,-1,2
 195 321 195 321 195 284 c 1,3,-1
 284 284 l 1,4,-1
 284 308 l 2,5,6
 284 356 284 356 238 356 c 0,0,1
242 503 m 0,7,8
 347 503 347 503 392.5 452 c 128,-1,9
 438 401 438 401 438 307 c 0,10,11
 438 295 438 295 431 197 c 1,12,-1
 198 197 l 1,13,14
 198 120 198 120 268 120 c 0,15,16
 302 120 302 120 400 143 c 1,17,-1
 415 16 l 1,18,19
 329 -11 329 -11 243 -10 c 0,20,21
 138 -10 138 -10 81.5 59 c 128,-1,22
 25 128 25 128 25 247 c 0,23,24
 25 503 25 503 242 503 c 0,7,8
401 676 m 1,25,-1
 291 532 l 1,26,-1
 173 532 l 1,27,-1
 238 676 l 1,28,-1
 401 676 l 1,25,-1
EndSplineSet
EndChar

StartChar: ecircumflex
Encoding: 234 234 171
Width: 454
GlyphClass: 2
Flags: W
LayerCount: 2
Fore
SplineSet
238 356 m 0,0,1
 211 356 211 356 203 338.5 c 128,-1,2
 195 321 195 321 195 284 c 1,3,-1
 284 284 l 1,4,-1
 284 308 l 2,5,6
 284 356 284 356 238 356 c 0,0,1
242 503 m 0,7,8
 347 503 347 503 392.5 452 c 128,-1,9
 438 401 438 401 438 307 c 0,10,11
 438 295 438 295 431 197 c 1,12,-1
 198 197 l 1,13,14
 198 120 198 120 268 120 c 0,15,16
 302 120 302 120 400 143 c 1,17,-1
 415 16 l 1,18,19
 329 -11 329 -11 243 -10 c 0,20,21
 138 -10 138 -10 81.5 59 c 128,-1,22
 25 128 25 128 25 247 c 0,23,24
 25 503 25 503 242 503 c 0,7,8
321 671 m 1,25,-1
 388 532 l 1,26,-1
 280 532 l 1,27,-1
 244 590 l 1,28,-1
 208 532 l 1,29,-1
 98 532 l 1,30,-1
 166 671 l 1,31,-1
 321 671 l 1,25,-1
EndSplineSet
EndChar

StartChar: edieresis
Encoding: 235 235 172
Width: 454
GlyphClass: 2
Flags: W
LayerCount: 2
Fore
SplineSet
238 356 m 0,0,1
 211 356 211 356 203 338.5 c 128,-1,2
 195 321 195 321 195 284 c 1,3,-1
 284 284 l 1,4,-1
 284 308 l 2,5,6
 284 356 284 356 238 356 c 0,0,1
242 503 m 0,7,8
 347 503 347 503 392.5 452 c 128,-1,9
 438 401 438 401 438 307 c 0,10,11
 438 295 438 295 431 197 c 1,12,-1
 198 197 l 1,13,14
 198 120 198 120 268 120 c 0,15,16
 302 120 302 120 400 143 c 1,17,-1
 415 16 l 1,18,19
 329 -11 329 -11 243 -10 c 0,20,21
 138 -10 138 -10 81.5 59 c 128,-1,22
 25 128 25 128 25 247 c 0,23,24
 25 503 25 503 242 503 c 0,7,8
103 547 m 128,-1,26
 86 563 86 563 86 591.5 c 128,-1,27
 86 620 86 620 103 635.5 c 128,-1,28
 120 651 120 651 150.5 651 c 128,-1,29
 181 651 181 651 198.5 635.5 c 128,-1,30
 216 620 216 620 216 592 c 0,31,32
 216 532 216 532 148 531 c 0,33,25
 120 531 120 531 103 547 c 128,-1,26
276 547 m 128,-1,35
 259 563 259 563 259 591.5 c 128,-1,36
 259 620 259 620 276.5 635.5 c 128,-1,37
 294 651 294 651 324.5 651 c 128,-1,38
 355 651 355 651 372 635.5 c 128,-1,39
 389 620 389 620 389 591.5 c 128,-1,40
 389 563 389 563 372 547 c 128,-1,41
 355 531 355 531 324 531 c 128,-1,34
 293 531 293 531 276 547 c 128,-1,35
EndSplineSet
EndChar

StartChar: igrave
Encoding: 236 236 173
Width: 237
GlyphClass: 2
Flags: W
LayerCount: 2
Fore
SplineSet
204 0 m 1,0,-1
 35 0 l 1,1,-1
 35 485 l 1,2,-1
 204 485 l 1,3,-1
 204 0 l 1,0,-1
85 532 m 1,4,-1
 -26 676 l 1,5,-1
 136 676 l 1,6,-1
 203 532 l 1,7,-1
 85 532 l 1,4,-1
EndSplineSet
EndChar

StartChar: iacute
Encoding: 237 237 174
Width: 237
GlyphClass: 2
Flags: W
LayerCount: 2
Fore
SplineSet
203 0 m 1,0,-1
 34 0 l 1,1,-1
 34 485 l 1,2,-1
 203 485 l 1,3,-1
 203 0 l 1,0,-1
268 676 m 1,4,-1
 158 532 l 1,5,-1
 40 532 l 1,6,-1
 104 676 l 1,7,-1
 268 676 l 1,4,-1
EndSplineSet
EndChar

StartChar: icircumflex
Encoding: 238 238 175
Width: 237
GlyphClass: 2
Flags: W
LayerCount: 2
Fore
SplineSet
203 0 m 1,0,-1
 34 0 l 1,1,-1
 34 485 l 1,2,-1
 203 485 l 1,3,-1
 203 0 l 1,0,-1
197 671 m 1,4,-1
 264 532 l 1,5,-1
 156 532 l 1,6,-1
 120 590 l 1,7,-1
 84 532 l 1,8,-1
 -26 532 l 1,9,-1
 42 671 l 1,10,-1
 197 671 l 1,4,-1
EndSplineSet
EndChar

StartChar: idieresis
Encoding: 239 239 176
Width: 237
GlyphClass: 2
Flags: W
LayerCount: 2
Fore
SplineSet
203 0 m 1,0,-1
 34 0 l 1,1,-1
 34 485 l 1,2,-1
 203 485 l 1,3,-1
 203 0 l 1,0,-1
-16 547 m 128,-1,5
 -33 563 -33 563 -33 591.5 c 128,-1,6
 -33 620 -33 620 -16 635.5 c 128,-1,7
 1 651 1 651 31.5 651 c 128,-1,8
 62 651 62 651 79.5 635.5 c 128,-1,9
 97 620 97 620 97 592 c 0,10,11
 97 532 97 532 30 531 c 0,12,4
 1 531 1 531 -16 547 c 128,-1,5
157 547 m 128,-1,14
 140 563 140 563 140 591.5 c 128,-1,15
 140 620 140 620 157.5 635.5 c 128,-1,16
 175 651 175 651 206 651 c 128,-1,17
 237 651 237 651 253.5 635.5 c 128,-1,18
 270 620 270 620 270 591.5 c 128,-1,19
 270 563 270 563 253.5 547 c 128,-1,20
 237 531 237 531 205.5 531 c 128,-1,13
 174 531 174 531 157 547 c 128,-1,14
EndSplineSet
EndChar

StartChar: eth
Encoding: 240 240 177
Width: 483
GlyphClass: 2
Flags: W
LayerCount: 2
Fore
SplineSet
187 410 m 0,0,1
 226 410 226 410 263 403 c 1,2,-1
 266 407 l 1,3,4
 253 445 253 445 225 468 c 1,5,-1
 117 412 l 1,6,-1
 117 506 l 1,7,-1
 139 518 l 1,8,9
 105 524 105 524 65 524 c 1,10,-1
 65 658 l 1,11,12
 210 658 210 658 286 628 c 1,13,-1
 381 675 l 1,14,-1
 381 561 l 1,15,-1
 365 552 l 1,16,17
 461 456 461 456 461 271 c 0,18,19
 461 129 461 129 406.5 59.5 c 128,-1,20
 352 -10 352 -10 233 -10 c 0,21,22
 22 -10 22 -10 23 213 c 0,23,24
 23 309 23 309 67 359.5 c 128,-1,25
 111 410 111 410 187 410 c 0,0,1
239 288 m 0,26,27
 213 288 213 288 204 266.5 c 128,-1,28
 195 245 195 245 195 203.5 c 128,-1,29
 195 162 195 162 204 143.5 c 128,-1,30
 213 125 213 125 239 125 c 128,-1,31
 265 125 265 125 273.5 147.5 c 128,-1,32
 282 170 282 170 282 213 c 0,33,34
 282 288 282 288 239 288 c 0,26,27
EndSplineSet
EndChar

StartChar: ntilde
Encoding: 241 241 178
Width: 484
GlyphClass: 2
Flags: W
LayerCount: 2
Fore
SplineSet
205 455 m 1,0,1
 261 503 261 503 328.5 503 c 128,-1,2
 396 503 396 503 423.5 471.5 c 128,-1,3
 451 440 451 440 451 378 c 2,4,-1
 451 0 l 1,5,-1
 276 0 l 1,6,-1
 276 319 l 2,7,8
 276 345 276 345 254 345 c 0,9,10
 225 345 225 345 206 331 c 1,11,-1
 206 0 l 1,12,-1
 34 0 l 1,13,-1
 34 490 l 1,14,-1
 190 490 l 1,15,-1
 201 455 l 1,16,-1
 205 455 l 1,0,1
388 676 m 1,17,-1
 388 668 l 2,18,19
 388 602 388 602 369.5 568.5 c 128,-1,20
 351 535 351 535 296 535 c 0,21,22
 259 535 259 535 214 551 c 2,23,-1
 189 559 l 1,24,-1
 189 523 l 1,25,-1
 78 523 l 1,26,-1
 78 534 l 2,27,28
 78 601 78 601 97.5 634 c 128,-1,29
 117 667 117 667 166 667 c 0,30,31
 182 667 182 667 257 647 c 2,32,-1
 278 642 l 1,33,-1
 278 676 l 1,34,-1
 388 676 l 1,17,-1
EndSplineSet
EndChar

StartChar: ograve
Encoding: 242 242 179
Width: 473
GlyphClass: 2
Flags: W
LayerCount: 2
Fore
SplineSet
76.5 442.5 m 128,-1,1
 128 503 128 503 238 503 c 128,-1,2
 348 503 348 503 398.5 443.5 c 128,-1,3
 449 384 449 384 449 248.5 c 128,-1,4
 449 113 449 113 399.5 51.5 c 128,-1,5
 350 -10 350 -10 238.5 -10 c 128,-1,6
 127 -10 127 -10 76 51.5 c 128,-1,7
 25 113 25 113 25 247.5 c 128,-1,0
 25 382 25 382 76.5 442.5 c 128,-1,1
237.5 365 m 128,-1,9
 211 365 211 365 204 344.5 c 128,-1,10
 197 324 197 324 197 258 c 2,11,-1
 197 233 l 2,12,13
 197 160 197 160 204 139 c 128,-1,14
 211 118 211 118 237 118 c 128,-1,15
 263 118 263 118 270.5 139.5 c 128,-1,16
 278 161 278 161 278 227 c 2,17,-1
 278 257 l 2,18,19
 278 324 278 324 271 344.5 c 128,-1,8
 264 365 264 365 237.5 365 c 128,-1,9
211 532 m 1,20,-1
 100 676 l 1,21,-1
 262 676 l 1,22,-1
 329 532 l 1,23,-1
 211 532 l 1,20,-1
EndSplineSet
EndChar

StartChar: oacute
Encoding: 243 243 180
Width: 473
GlyphClass: 2
Flags: W
LayerCount: 2
Fore
SplineSet
76.5 442.5 m 128,-1,1
 128 503 128 503 238 503 c 128,-1,2
 348 503 348 503 398.5 443.5 c 128,-1,3
 449 384 449 384 449 248.5 c 128,-1,4
 449 113 449 113 399.5 51.5 c 128,-1,5
 350 -10 350 -10 238.5 -10 c 128,-1,6
 127 -10 127 -10 76 51.5 c 128,-1,7
 25 113 25 113 25 247.5 c 128,-1,0
 25 382 25 382 76.5 442.5 c 128,-1,1
237.5 365 m 128,-1,9
 211 365 211 365 204 344.5 c 128,-1,10
 197 324 197 324 197 258 c 2,11,-1
 197 233 l 2,12,13
 197 160 197 160 204 139 c 128,-1,14
 211 118 211 118 237 118 c 128,-1,15
 263 118 263 118 270.5 139.5 c 128,-1,16
 278 161 278 161 278 227 c 2,17,-1
 278 257 l 2,18,19
 278 324 278 324 271 344.5 c 128,-1,8
 264 365 264 365 237.5 365 c 128,-1,9
391 676 m 1,20,-1
 281 532 l 1,21,-1
 163 532 l 1,22,-1
 227 676 l 1,23,-1
 391 676 l 1,20,-1
EndSplineSet
EndChar

StartChar: ocircumflex
Encoding: 244 244 181
Width: 473
GlyphClass: 2
Flags: W
LayerCount: 2
Fore
SplineSet
76.5 442.5 m 128,-1,1
 128 503 128 503 238 503 c 128,-1,2
 348 503 348 503 398.5 443.5 c 128,-1,3
 449 384 449 384 449 248.5 c 128,-1,4
 449 113 449 113 399.5 51.5 c 128,-1,5
 350 -10 350 -10 238.5 -10 c 128,-1,6
 127 -10 127 -10 76 51.5 c 128,-1,7
 25 113 25 113 25 247.5 c 128,-1,0
 25 382 25 382 76.5 442.5 c 128,-1,1
237.5 365 m 128,-1,9
 211 365 211 365 204 344.5 c 128,-1,10
 197 324 197 324 197 258 c 2,11,-1
 197 233 l 2,12,13
 197 160 197 160 204 139 c 128,-1,14
 211 118 211 118 237 118 c 128,-1,15
 263 118 263 118 270.5 139.5 c 128,-1,16
 278 161 278 161 278 227 c 2,17,-1
 278 257 l 2,18,19
 278 324 278 324 271 344.5 c 128,-1,8
 264 365 264 365 237.5 365 c 128,-1,9
315 671 m 1,20,-1
 383 532 l 1,21,-1
 274 532 l 1,22,-1
 239 590 l 1,23,-1
 203 532 l 1,24,-1
 93 532 l 1,25,-1
 161 671 l 1,26,-1
 315 671 l 1,20,-1
EndSplineSet
EndChar

StartChar: otilde
Encoding: 245 245 182
Width: 473
GlyphClass: 2
Flags: W
LayerCount: 2
Fore
SplineSet
76.5 442.5 m 128,-1,1
 128 503 128 503 238 503 c 128,-1,2
 348 503 348 503 398.5 443.5 c 128,-1,3
 449 384 449 384 449 248.5 c 128,-1,4
 449 113 449 113 399.5 51.5 c 128,-1,5
 350 -10 350 -10 238.5 -10 c 128,-1,6
 127 -10 127 -10 76 51.5 c 128,-1,7
 25 113 25 113 25 247.5 c 128,-1,0
 25 382 25 382 76.5 442.5 c 128,-1,1
237.5 365 m 128,-1,9
 211 365 211 365 204 344.5 c 128,-1,10
 197 324 197 324 197 258 c 2,11,-1
 197 233 l 2,12,13
 197 160 197 160 204 139 c 128,-1,14
 211 118 211 118 237 118 c 128,-1,15
 263 118 263 118 270.5 139.5 c 128,-1,16
 278 161 278 161 278 227 c 2,17,-1
 278 257 l 2,18,19
 278 324 278 324 271 344.5 c 128,-1,8
 264 365 264 365 237.5 365 c 128,-1,9
390 676 m 1,20,-1
 390 668 l 2,21,22
 390 602 390 602 371.5 568.5 c 128,-1,23
 353 535 353 535 298 535 c 0,24,25
 261 535 261 535 216 551 c 2,26,-1
 191 559 l 1,27,-1
 191 523 l 1,28,-1
 80 523 l 1,29,-1
 80 534 l 2,30,31
 80 601 80 601 99.5 634 c 128,-1,32
 119 667 119 667 168 667 c 0,33,34
 184 667 184 667 259 647 c 2,35,-1
 280 642 l 1,36,-1
 280 676 l 1,37,-1
 390 676 l 1,20,-1
EndSplineSet
EndChar

StartChar: odieresis
Encoding: 246 246 183
Width: 473
GlyphClass: 2
Flags: W
LayerCount: 2
Fore
SplineSet
76.5 442.5 m 128,-1,1
 128 503 128 503 238 503 c 128,-1,2
 348 503 348 503 398.5 443.5 c 128,-1,3
 449 384 449 384 449 248.5 c 128,-1,4
 449 113 449 113 399.5 51.5 c 128,-1,5
 350 -10 350 -10 238.5 -10 c 128,-1,6
 127 -10 127 -10 76 51.5 c 128,-1,7
 25 113 25 113 25 247.5 c 128,-1,0
 25 382 25 382 76.5 442.5 c 128,-1,1
237.5 365 m 128,-1,9
 211 365 211 365 204 344.5 c 128,-1,10
 197 324 197 324 197 258 c 2,11,-1
 197 233 l 2,12,13
 197 160 197 160 204 139 c 128,-1,14
 211 118 211 118 237 118 c 128,-1,15
 263 118 263 118 270.5 139.5 c 128,-1,16
 278 161 278 161 278 227 c 2,17,-1
 278 257 l 2,18,19
 278 324 278 324 271 344.5 c 128,-1,8
 264 365 264 365 237.5 365 c 128,-1,9
102 547 m 128,-1,21
 85 563 85 563 85 591.5 c 128,-1,22
 85 620 85 620 102 635.5 c 128,-1,23
 119 651 119 651 149.5 651 c 128,-1,24
 180 651 180 651 197.5 635.5 c 128,-1,25
 215 620 215 620 215 592 c 0,26,27
 215 532 215 532 147 531 c 0,28,20
 119 531 119 531 102 547 c 128,-1,21
275 547 m 128,-1,30
 258 563 258 563 258 591.5 c 128,-1,31
 258 620 258 620 275.5 635.5 c 128,-1,32
 293 651 293 651 323.5 651 c 128,-1,33
 354 651 354 651 371 635.5 c 128,-1,34
 388 620 388 620 388 591.5 c 128,-1,35
 388 563 388 563 371 547 c 128,-1,36
 354 531 354 531 323 531 c 128,-1,29
 292 531 292 531 275 547 c 128,-1,30
EndSplineSet
EndChar

StartChar: divide
Encoding: 247 247 184
Width: 493
GlyphClass: 2
Flags: W
LayerCount: 2
Fore
SplineSet
440 237 m 1,0,-1
 53 237 l 1,1,-1
 53 366 l 1,2,-1
 440 366 l 1,3,-1
 440 237 l 1,0,-1
158 87 m 0,4,5
 158 128 158 128 179.5 148 c 128,-1,6
 201 168 201 168 248 168 c 128,-1,7
 295 168 295 168 316.5 148 c 128,-1,8
 338 128 338 128 338 85 c 0,9,10
 338 6 338 6 248 6 c 128,-1,11
 158 6 158 6 158 87 c 0,4,5
158 511 m 0,12,13
 158 552 158 552 179.5 572 c 128,-1,14
 201 592 201 592 248 592 c 128,-1,15
 295 592 295 592 316.5 572 c 128,-1,16
 338 552 338 552 338 509 c 0,17,18
 338 430 338 430 248 430 c 128,-1,19
 158 430 158 430 158 511 c 0,12,13
EndSplineSet
EndChar

StartChar: oslash
Encoding: 248 248 185
Width: 455
GlyphClass: 2
Flags: W
LayerCount: 2
Fore
SplineSet
231 503 m 0,0,1
 254 503 254 503 264 502 c 1,2,-1
 289 563 l 1,3,-1
 423 563 l 1,4,-1
 380 455 l 1,5,6
 441 397 441 397 441 255 c 128,-1,7
 441 113 441 113 392 51.5 c 128,-1,8
 343 -10 343 -10 231 -10 c 0,9,10
 219 -10 219 -10 197 -8 c 1,11,-1
 172 -73 l 1,12,-1
 36 -73 l 1,13,-1
 80 38 l 1,14,15
 18 97 18 97 17.5 239.5 c 128,-1,16
 17 382 17 382 68.5 442.5 c 128,-1,17
 120 503 120 503 231 503 c 0,0,1
230.5 365 m 128,-1,19
 204 365 204 365 196.5 344.5 c 128,-1,20
 189 324 189 324 189 258 c 2,21,-1
 189 233 l 2,22,23
 189 160 189 160 196.5 139 c 128,-1,24
 204 118 204 118 230 118 c 128,-1,25
 256 118 256 118 263 139.5 c 128,-1,26
 270 161 270 161 270 227 c 2,27,-1
 270 257 l 2,28,29
 270 324 270 324 263.5 344.5 c 128,-1,18
 257 365 257 365 230.5 365 c 128,-1,19
EndSplineSet
EndChar

StartChar: ugrave
Encoding: 249 249 186
Width: 478
GlyphClass: 2
Flags: W
LayerCount: 2
Fore
SplineSet
153 -10 m 0,0,1
 31 -10 31 -10 31 125 c 2,2,-1
 31 490 l 1,3,-1
 205 490 l 1,4,-1
 205 167 l 2,5,6
 205 141 205 141 227 141 c 0,7,8
 256 141 256 141 275 156 c 1,9,-1
 275 490 l 1,10,-1
 447 490 l 1,11,-1
 447 2 l 1,12,-1
 285 2 l 1,13,-1
 285 38 l 1,14,-1
 281 38 l 1,15,16
 225 -10 225 -10 153 -10 c 0,0,1
194 532 m 1,17,-1
 83 676 l 1,18,-1
 245 676 l 1,19,-1
 311 532 l 1,20,-1
 194 532 l 1,17,-1
EndSplineSet
EndChar

StartChar: uacute
Encoding: 250 250 187
Width: 478
GlyphClass: 2
Flags: W
LayerCount: 2
Fore
SplineSet
153 -10 m 0,0,1
 31 -10 31 -10 31 125 c 2,2,-1
 31 490 l 1,3,-1
 205 490 l 1,4,-1
 205 167 l 2,5,6
 205 141 205 141 227 141 c 0,7,8
 256 141 256 141 275 156 c 1,9,-1
 275 490 l 1,10,-1
 447 490 l 1,11,-1
 447 2 l 1,12,-1
 285 2 l 1,13,-1
 285 38 l 1,14,-1
 281 38 l 1,15,16
 225 -10 225 -10 153 -10 c 0,0,1
413 676 m 1,17,-1
 302 532 l 1,18,-1
 184 532 l 1,19,-1
 249 676 l 1,20,-1
 413 676 l 1,17,-1
EndSplineSet
EndChar

StartChar: ucircumflex
Encoding: 251 251 188
Width: 478
GlyphClass: 2
Flags: W
LayerCount: 2
Fore
SplineSet
153 -10 m 0,0,1
 31 -10 31 -10 31 125 c 2,2,-1
 31 490 l 1,3,-1
 205 490 l 1,4,-1
 205 167 l 2,5,6
 205 141 205 141 227 141 c 0,7,8
 256 141 256 141 275 156 c 1,9,-1
 275 490 l 1,10,-1
 447 490 l 1,11,-1
 447 2 l 1,12,-1
 285 2 l 1,13,-1
 285 38 l 1,14,-1
 281 38 l 1,15,16
 225 -10 225 -10 153 -10 c 0,0,1
318 671 m 1,17,-1
 386 532 l 1,18,-1
 278 532 l 1,19,-1
 242 590 l 1,20,-1
 206 532 l 1,21,-1
 96 532 l 1,22,-1
 164 671 l 1,23,-1
 318 671 l 1,17,-1
EndSplineSet
EndChar

StartChar: udieresis
Encoding: 252 252 189
Width: 478
GlyphClass: 2
Flags: W
LayerCount: 2
Fore
SplineSet
153 -10 m 0,0,1
 31 -10 31 -10 31 125 c 2,2,-1
 31 490 l 1,3,-1
 205 490 l 1,4,-1
 205 167 l 2,5,6
 205 141 205 141 227 141 c 0,7,8
 256 141 256 141 275 156 c 1,9,-1
 275 490 l 1,10,-1
 447 490 l 1,11,-1
 447 2 l 1,12,-1
 285 2 l 1,13,-1
 285 38 l 1,14,-1
 281 38 l 1,15,16
 225 -10 225 -10 153 -10 c 0,0,1
104 547 m 128,-1,18
 87 563 87 563 87 591.5 c 128,-1,19
 87 620 87 620 104 635.5 c 128,-1,20
 121 651 121 651 151.5 651 c 128,-1,21
 182 651 182 651 199.5 635.5 c 128,-1,22
 217 620 217 620 217 592 c 0,23,24
 217 532 217 532 150 531 c 0,25,17
 121 531 121 531 104 547 c 128,-1,18
277 547 m 128,-1,27
 260 563 260 563 260 591.5 c 128,-1,28
 260 620 260 620 277.5 635.5 c 128,-1,29
 295 651 295 651 325.5 651 c 128,-1,30
 356 651 356 651 373 635.5 c 128,-1,31
 390 620 390 620 390 591.5 c 128,-1,32
 390 563 390 563 373 547 c 128,-1,33
 356 531 356 531 325 531 c 128,-1,26
 294 531 294 531 277 547 c 128,-1,27
EndSplineSet
EndChar

StartChar: yacute
Encoding: 253 253 190
Width: 455
GlyphClass: 2
Flags: W
LayerCount: 2
Fore
SplineSet
456 490 m 1,0,-1
 329 -14 l 2,1,2
 310 -90 310 -90 271.5 -120.5 c 128,-1,3
 233 -151 233 -151 147 -151 c 2,4,-1
 45 -151 l 1,5,-1
 30 -18 l 1,6,-1
 87 -18 l 2,7,8
 122 -18 122 -18 122 9 c 0,9,10
 122 15 122 15 118 36 c 2,11,-1
 0 490 l 1,12,-1
 182 490 l 1,13,-1
 228 184 l 1,14,-1
 238 184 l 1,15,-1
 288 490 l 1,16,-1
 456 490 l 1,0,-1
404 676 m 1,17,-1
 294 532 l 1,18,-1
 176 532 l 1,19,-1
 241 676 l 1,20,-1
 404 676 l 1,17,-1
EndSplineSet
EndChar

StartChar: thorn
Encoding: 254 254 191
Width: 477
GlyphClass: 2
Flags: W
LayerCount: 2
Fore
SplineSet
421 446 m 128,-1,1
 453 390 453 390 453 254.5 c 128,-1,2
 453 119 453 119 417.5 54 c 128,-1,3
 382 -11 382 -11 283 -11 c 0,4,5
 237 -11 237 -11 203 8 c 1,6,-1
 203 -140 l 1,7,-1
 31 -140 l 1,8,-1
 31 656 l 1,9,-1
 202 656 l 1,10,-1
 202 479 l 1,11,-1
 206 479 l 1,12,13
 236 502 236 502 293 502 c 0,14,0
 389 502 389 502 421 446 c 128,-1,1
280 189.5 m 128,-1,16
 281 207 281 207 281 255.5 c 128,-1,17
 281 304 281 304 273.5 330 c 128,-1,18
 266 356 266 356 244 356 c 128,-1,19
 222 356 222 356 201 344 c 1,20,-1
 201 132 l 1,21,22
 220 123 220 123 238 123 c 128,-1,23
 256 123 256 123 263.5 129.5 c 128,-1,24
 271 136 271 136 275 154 c 128,-1,15
 279 172 279 172 280 189.5 c 128,-1,16
EndSplineSet
EndChar

StartChar: ydieresis
Encoding: 255 255 192
Width: 455
GlyphClass: 2
Flags: W
LayerCount: 2
Fore
SplineSet
456 490 m 1,0,-1
 329 -14 l 2,1,2
 310 -90 310 -90 271.5 -120.5 c 128,-1,3
 233 -151 233 -151 147 -151 c 2,4,-1
 45 -151 l 1,5,-1
 30 -18 l 1,6,-1
 87 -18 l 2,7,8
 122 -18 122 -18 122 9 c 0,9,10
 122 15 122 15 118 36 c 2,11,-1
 0 490 l 1,12,-1
 182 490 l 1,13,-1
 228 184 l 1,14,-1
 238 184 l 1,15,-1
 288 490 l 1,16,-1
 456 490 l 1,0,-1
84.5 547 m 128,-1,18
 68 563 68 563 68 591.5 c 128,-1,19
 68 620 68 620 84.5 635.5 c 128,-1,20
 101 651 101 651 132 651 c 128,-1,21
 163 651 163 651 180.5 635.5 c 128,-1,22
 198 620 198 620 198 592 c 0,23,24
 198 532 198 532 130 531 c 0,25,17
 101 531 101 531 84.5 547 c 128,-1,18
257.5 547 m 128,-1,27
 241 563 241 563 241 591.5 c 128,-1,28
 241 620 241 620 258 635.5 c 128,-1,29
 275 651 275 651 306 651 c 128,-1,30
 337 651 337 651 354 635.5 c 128,-1,31
 371 620 371 620 371 591.5 c 128,-1,32
 371 563 371 563 354 547 c 128,-1,33
 337 531 337 531 305.5 531 c 128,-1,26
 274 531 274 531 257.5 547 c 128,-1,27
EndSplineSet
EndChar

StartChar: hbar
Encoding: 295 295 193
Width: 478
GlyphClass: 2
Flags: W
LayerCount: 2
Fore
SplineSet
206 455 m 1,0,1
 262 503 262 503 327.5 503 c 128,-1,2
 393 503 393 503 420 471.5 c 128,-1,3
 447 440 447 440 447 378 c 2,4,-1
 447 0 l 1,5,-1
 273 0 l 1,6,-1
 273 319 l 2,7,8
 273 345 273 345 251 345 c 0,9,10
 222 345 222 345 203 331 c 1,11,-1
 203 0 l 1,12,-1
 31 0 l 1,13,-1
 31 518 l 1,14,-1
 0 518 l 1,15,-1
 0 615 l 1,16,-1
 31 615 l 1,17,-1
 31 656 l 1,18,-1
 202 656 l 1,19,-1
 202 615 l 1,20,-1
 276 615 l 1,21,-1
 276 518 l 1,22,-1
 202 518 l 1,23,-1
 202 455 l 1,24,-1
 206 455 l 1,0,1
EndSplineSet
EndChar

StartChar: Itilde
Encoding: 296 296 194
Width: 284
GlyphClass: 2
Flags: W
LayerCount: 2
Fore
SplineSet
229 0 m 1,0,-1
 55 0 l 1,1,-1
 55 636 l 1,2,-1
 229 636 l 1,3,-1
 229 0 l 1,0,-1
283 816 m 1,4,-1
 283 808 l 2,5,6
 283 747 283 747 265.5 714.5 c 128,-1,7
 248 682 248 682 195 682 c 0,8,9
 163 682 163 682 117 697 c 2,10,-1
 93 706 l 1,11,-1
 93 671 l 1,12,-1
 -12 671 l 1,13,-1
 -12 681 l 2,14,15
 -12 744 -12 744 6.5 775.5 c 128,-1,16
 25 807 25 807 71 807 c 0,17,18
 89 807 89 807 158 788 c 2,19,-1
 177 784 l 1,20,-1
 177 816 l 1,21,-1
 283 816 l 1,4,-1
EndSplineSet
EndChar

StartChar: itilde
Encoding: 297 297 195
Width: 237
GlyphClass: 2
Flags: W
LayerCount: 2
Fore
SplineSet
204 0 m 1,0,-1
 35 0 l 1,1,-1
 35 485 l 1,2,-1
 204 485 l 1,3,-1
 204 0 l 1,0,-1
274 676 m 1,4,-1
 274 668 l 2,5,6
 274 602 274 602 256 568.5 c 128,-1,7
 238 535 238 535 182 535 c 0,8,9
 145 535 145 535 100 551 c 2,10,-1
 76 559 l 1,11,-1
 76 523 l 1,12,-1
 -36 523 l 1,13,-1
 -36 534 l 2,14,15
 -36 601 -36 601 -16.5 634 c 128,-1,16
 3 667 3 667 52 667 c 0,17,18
 68 667 68 667 143 647 c 2,19,-1
 164 642 l 1,20,-1
 164 676 l 1,21,-1
 274 676 l 1,4,-1
EndSplineSet
EndChar

StartChar: dotlessi
Encoding: 305 305 196
Width: 237
GlyphClass: 2
Flags: W
LayerCount: 2
Fore
SplineSet
204 0 m 1,0,-1
 35 0 l 1,1,-1
 35 485 l 1,2,-1
 204 485 l 1,3,-1
 204 0 l 1,0,-1
EndSplineSet
EndChar

StartChar: IJ
Encoding: 306 306 197
Width: 575
GlyphClass: 2
Flags: W
LayerCount: 2
Fore
SplineSet
229 0 m 1,0,-1
 55 0 l 1,1,-1
 55 636 l 1,2,-1
 229 636 l 1,3,-1
 229 0 l 1,0,-1
530 636 m 1,4,-1
 530 128 l 2,5,6
 530 49 530 49 494.5 19.5 c 128,-1,7
 459 -10 459 -10 362 -10 c 2,8,-1
 310 -10 l 1,9,-1
 297 129 l 1,10,-1
 332 129 l 2,11,12
 349 129 349 129 353.5 133.5 c 128,-1,13
 358 138 358 138 358 154 c 2,14,-1
 358 636 l 1,15,-1
 530 636 l 1,4,-1
EndSplineSet
EndChar

StartChar: ij
Encoding: 307 307 198
Width: 491
GlyphClass: 2
Flags: W
LayerCount: 2
Fore
SplineSet
450 485 m 1,0,-1
 450 -12 l 2,1,2
 450 -92 450 -92 414.5 -121.5 c 128,-1,3
 379 -151 379 -151 283 -151 c 2,4,-1
 231 -151 l 1,5,-1
 217 -9 l 1,6,-1
 252 -9 l 2,7,8
 269 -9 269 -9 274 -4.5 c 128,-1,9
 279 0 279 0 279 15 c 2,10,-1
 279 485 l 1,11,-1
 450 485 l 1,0,-1
204 0 m 1,12,-1
 35 0 l 1,13,-1
 35 485 l 1,14,-1
 204 485 l 1,15,-1
 204 0 l 1,12,-1
27 584 m 128,-1,17
 27 625 27 625 48.5 644.5 c 128,-1,18
 70 664 70 664 119 664 c 128,-1,19
 168 664 168 664 189.5 644.5 c 128,-1,20
 211 625 211 625 211 584.5 c 128,-1,21
 211 544 211 544 189.5 525 c 128,-1,22
 168 506 168 506 119 506 c 128,-1,23
 70 506 70 506 48.5 524.5 c 128,-1,16
 27 543 27 543 27 584 c 128,-1,17
271 584 m 128,-1,25
 271 625 271 625 292.5 644.5 c 128,-1,26
 314 664 314 664 363.5 664 c 128,-1,27
 413 664 413 664 434.5 644.5 c 128,-1,28
 456 625 456 625 456 584.5 c 128,-1,29
 456 544 456 544 434.5 525 c 128,-1,30
 413 506 413 506 363.5 506 c 128,-1,31
 314 506 314 506 292.5 524.5 c 128,-1,24
 271 543 271 543 271 584 c 128,-1,25
EndSplineSet
EndChar

StartChar: Jcircumflex
Encoding: 308 308 199
Width: 294
GlyphClass: 2
Flags: W
LayerCount: 2
Fore
SplineSet
250 636 m 1,0,-1
 250 128 l 2,1,2
 250 49 250 49 214 19.5 c 128,-1,3
 178 -10 178 -10 82 -10 c 2,4,-1
 30 -10 l 1,5,-1
 16 129 l 1,6,-1
 51 129 l 2,7,8
 68 129 68 129 73 133.5 c 128,-1,9
 78 138 78 138 78 154 c 2,10,-1
 78 636 l 1,11,-1
 250 636 l 1,0,-1
231 811 m 1,12,-1
 296 680 l 1,13,-1
 193 680 l 1,14,-1
 159 734 l 1,15,-1
 125 680 l 1,16,-1
 20 680 l 1,17,-1
 85 811 l 1,18,-1
 231 811 l 1,12,-1
EndSplineSet
EndChar

StartChar: jcircumflex
Encoding: 309 309 200
Width: 253
GlyphClass: 2
Flags: W
LayerCount: 2
Fore
SplineSet
214 485 m 1,0,-1
 214 -12 l 2,1,2
 214 -92 214 -92 178.5 -121.5 c 128,-1,3
 143 -151 143 -151 47 -151 c 2,4,-1
 -4 -151 l 1,5,-1
 -18 -9 l 1,6,-1
 16 -9 l 2,7,8
 33 -9 33 -9 38 -4.5 c 128,-1,9
 43 0 43 0 43 15 c 2,10,-1
 43 485 l 1,11,-1
 214 485 l 1,0,-1
205 671 m 1,12,-1
 272 532 l 1,13,-1
 164 532 l 1,14,-1
 128 590 l 1,15,-1
 92 532 l 1,16,-1
 -17 532 l 1,17,-1
 50 671 l 1,18,-1
 205 671 l 1,12,-1
EndSplineSet
EndChar

StartChar: kcommaaccent
Encoding: 311 311 201
Width: 452
GlyphClass: 2
Flags: W
LayerCount: 2
Fore
SplineSet
454 0 m 1,0,-1
 264 0 l 1,1,-1
 202 188 l 1,2,-1
 198 188 l 1,3,-1
 198 0 l 1,4,-1
 31 0 l 1,5,-1
 31 656 l 1,6,-1
 200 656 l 1,7,-1
 200 295 l 1,8,-1
 204 295 l 1,9,-1
 279 490 l 1,10,-1
 458 490 l 1,11,-1
 354 246 l 1,12,-1
 454 0 l 1,0,-1
132 -78 m 0,13,14
 132 -9 132 -9 226.5 -9 c 128,-1,15
 321 -9 321 -9 321 -80 c 0,16,17
 321 -135 321 -135 242 -179 c 1,18,-1
 160 -173 l 1,19,-1
 197 -131 l 1,20,21
 168 -131 168 -131 150 -117.5 c 128,-1,22
 132 -104 132 -104 132 -78 c 0,13,14
EndSplineSet
EndChar

StartChar: kgreenlandic
Encoding: 312 312 202
Width: 456
GlyphClass: 2
Flags: W
LayerCount: 2
Fore
SplineSet
458 0 m 1,0,-1
 268 0 l 1,1,-1
 205 174 l 1,2,-1
 201 174 l 1,3,-1
 201 0 l 1,4,-1
 31 0 l 1,5,-1
 31 492 l 1,6,-1
 203 492 l 1,7,-1
 203 295 l 1,8,-1
 207 295 l 1,9,10
 254 418 254 418 283 444 c 0,11,12
 329 487 329 487 365 495 c 128,-1,13
 401 503 401 503 438 503 c 1,14,-1
 431 333 l 1,15,16
 413 333 413 333 399 321.5 c 128,-1,17
 385 310 385 310 378.5 297 c 128,-1,18
 372 284 372 284 356 250 c 1,19,-1
 458 0 l 1,0,-1
EndSplineSet
EndChar

StartChar: Ldotaccent
Encoding: 319 319 203
Width: 434
GlyphClass: 2
Flags: W
LayerCount: 2
Fore
SplineSet
369 0 m 1,0,-1
 45 0 l 1,1,-1
 45 636 l 1,2,-1
 220 636 l 1,3,-1
 220 142 l 1,4,-1
 379 142 l 1,5,-1
 369 0 l 1,0,-1
348 221 m 128,-1,7
 250 221 250 221 250 312.5 c 128,-1,8
 250 404 250 404 348 404 c 128,-1,9
 446 404 446 404 446 312.5 c 128,-1,6
 446 221 446 221 348 221 c 128,-1,7
EndSplineSet
EndChar

StartChar: ldot
Encoding: 320 320 204
Width: 430
GlyphClass: 2
Flags: W
LayerCount: 2
Fore
SplineSet
31 113 m 2,0,-1
 31 656 l 1,1,-1
 200 656 l 1,2,-1
 200 167 l 2,3,4
 200 150 200 150 207.5 142.5 c 128,-1,5
 215 135 215 135 234 135 c 1,6,-1
 221 -10 l 1,7,-1
 165 -10 l 2,8,9
 97 -10 97 -10 64 18 c 128,-1,10
 31 46 31 46 31 113 c 2,0,-1
327.5 221 m 128,-1,12
 229 221 229 221 229 312.5 c 128,-1,13
 229 404 229 404 327.5 404 c 128,-1,14
 426 404 426 404 426 312.5 c 128,-1,11
 426 221 426 221 327.5 221 c 128,-1,12
EndSplineSet
EndChar

StartChar: Lslash
Encoding: 321 321 205
Width: 370
GlyphClass: 2
Flags: W
LayerCount: 2
Fore
SplineSet
369 0 m 1,0,-1
 45 0 l 1,1,-1
 45 183 l 1,2,-1
 1 156 l 1,3,-1
 1 307 l 1,4,-1
 45 335 l 1,5,-1
 45 636 l 1,6,-1
 220 636 l 1,7,-1
 220 446 l 1,8,-1
 274 481 l 1,9,-1
 274 330 l 1,10,-1
 220 295 l 1,11,-1
 220 142 l 1,12,-1
 379 142 l 1,13,-1
 369 0 l 1,0,-1
EndSplineSet
EndChar

StartChar: lslash
Encoding: 322 322 206
Width: 238
GlyphClass: 2
Flags: W
LayerCount: 2
Fore
SplineSet
35 113 m 2,0,-1
 35 183 l 1,1,-1
 0 162 l 1,2,-1
 0 313 l 1,3,-1
 35 335 l 1,4,-1
 35 656 l 1,5,-1
 204 656 l 1,6,-1
 204 442 l 1,7,-1
 239 465 l 1,8,-1
 239 313 l 1,9,-1
 204 291 l 1,10,-1
 204 167 l 2,11,12
 204 150 204 150 211.5 142.5 c 128,-1,13
 219 135 219 135 239 135 c 1,14,-1
 225 -10 l 1,15,-1
 169 -10 l 2,16,17
 101 -10 101 -10 68 18 c 128,-1,18
 35 46 35 46 35 113 c 2,0,-1
EndSplineSet
EndChar

StartChar: Nacute
Encoding: 323 323 207
Width: 553
GlyphClass: 2
Flags: W
LayerCount: 2
Fore
SplineSet
509 0 m 1,0,-1
 341 0 l 1,1,-1
 209 296 l 1,2,-1
 201 296 l 1,3,-1
 201 0 l 1,4,-1
 45 0 l 1,5,-1
 45 636 l 1,6,-1
 218 636 l 1,7,-1
 344 331 l 1,8,-1
 352 331 l 1,9,-1
 352 636 l 1,10,-1
 509 636 l 1,11,-1
 509 0 l 1,0,-1
428 816 m 1,12,-1
 324 680 l 1,13,-1
 211 680 l 1,14,-1
 272 816 l 1,15,-1
 428 816 l 1,12,-1
EndSplineSet
EndChar

StartChar: nacute
Encoding: 324 324 208
Width: 478
GlyphClass: 2
Flags: W
LayerCount: 2
Fore
SplineSet
202 455 m 1,0,1
 258 503 258 503 325.5 503 c 128,-1,2
 393 503 393 503 420 471.5 c 128,-1,3
 447 440 447 440 447 378 c 2,4,-1
 447 0 l 1,5,-1
 273 0 l 1,6,-1
 273 319 l 2,7,8
 273 345 273 345 251 345 c 0,9,10
 222 345 222 345 203 331 c 1,11,-1
 203 0 l 1,12,-1
 31 0 l 1,13,-1
 31 490 l 1,14,-1
 187 490 l 1,15,-1
 198 455 l 1,16,-1
 202 455 l 1,0,1
394 676 m 1,17,-1
 284 532 l 1,18,-1
 166 532 l 1,19,-1
 230 676 l 1,20,-1
 394 676 l 1,17,-1
EndSplineSet
EndChar

StartChar: OE
Encoding: 338 338 209
Width: 708
GlyphClass: 2
Flags: W
LayerCount: 2
Fore
SplineSet
278 646 m 0,0,1
 323 646 323 646 366 636 c 1,2,-1
 683 636 l 1,3,-1
 683 485 l 1,4,-1
 510 485 l 1,5,6
 520 444 520 444 525 390 c 1,7,-1
 660 390 l 1,8,-1
 660 255 l 1,9,-1
 524 255 l 1,10,11
 520 196 520 196 506 150 c 1,12,-1
 683 150 l 1,13,-1
 683 0 l 1,14,-1
 359 0 l 1,15,16
 318 -10 318 -10 274 -10 c 0,17,18
 142 -10 142 -10 84 71 c 128,-1,19
 26 152 26 152 26 322.5 c 128,-1,20
 26 493 26 493 85 569.5 c 128,-1,21
 144 646 144 646 278 646 c 0,0,1
336.5 457 m 128,-1,23
 322 490 322 490 276 490 c 128,-1,24
 230 490 230 490 217 457 c 128,-1,25
 204 424 204 424 204 331 c 2,26,-1
 204 306 l 2,27,28
 204 206 204 206 218.5 172 c 128,-1,29
 233 138 233 138 278.5 138 c 128,-1,30
 324 138 324 138 337.5 170.5 c 128,-1,31
 351 203 351 203 351 297 c 2,32,-1
 351 330 l 2,33,22
 351 424 351 424 336.5 457 c 128,-1,23
EndSplineSet
EndChar

StartChar: oe
Encoding: 339 339 210
Width: 700
GlyphClass: 2
Flags: W
LayerCount: 2
Fore
SplineSet
360 462 m 1,0,1
 404 503 404 503 500 503 c 0,2,3
 685 503 685 503 685 307 c 0,4,5
 685 248 685 248 679 201 c 1,6,-1
 444 201 l 1,7,8
 444 120 444 120 515 120 c 0,9,10
 549 120 549 120 647 143 c 1,11,-1
 666 18 l 1,12,13
 573 -11 573 -11 490.5 -10.5 c 128,-1,14
 408 -10 408 -10 364 34 c 1,15,16
 324 -10 324 -10 222 -10 c 128,-1,17
 120 -10 120 -10 68.5 51.5 c 128,-1,18
 17 113 17 113 17 247.5 c 128,-1,19
 17 382 17 382 69 442.5 c 128,-1,20
 121 503 121 503 231 503 c 0,21,22
 319 503 319 503 360 462 c 1,0,1
230.5 365 m 128,-1,24
 204 365 204 365 196.5 344.5 c 128,-1,25
 189 324 189 324 189 258 c 2,26,-1
 189 233 l 2,27,28
 189 160 189 160 196.5 139 c 128,-1,29
 204 118 204 118 230 118 c 128,-1,30
 256 118 256 118 263 139.5 c 128,-1,31
 270 161 270 161 270 227 c 2,32,-1
 270 257 l 2,33,34
 270 324 270 324 263.5 344.5 c 128,-1,23
 257 365 257 365 230.5 365 c 128,-1,24
484 358 m 0,35,36
 457 358 457 358 449 340.5 c 128,-1,37
 441 323 441 323 441 286 c 1,38,-1
 530 286 l 1,39,-1
 530 310 l 2,40,41
 530 358 530 358 484 358 c 0,35,36
EndSplineSet
EndChar

StartChar: Racute
Encoding: 340 340 211
Width: 505
GlyphClass: 2
Flags: W
LayerCount: 2
Fore
SplineSet
480 434 m 0,0,1
 480 377 480 377 462.5 339 c 128,-1,2
 445 301 445 301 409 270 c 1,3,-1
 494 0 l 1,4,-1
 304 0 l 1,5,-1
 241 229 l 1,6,-1
 217 229 l 1,7,-1
 217 0 l 1,8,-1
 45 0 l 1,9,-1
 45 636 l 1,10,-1
 283 636 l 2,11,12
 385 636 385 636 432.5 587.5 c 128,-1,13
 480 539 480 539 480 434 c 0,0,1
281.5 352.5 m 128,-1,15
 293 368 293 368 293 408.5 c 128,-1,16
 293 449 293 449 281.5 464.5 c 128,-1,17
 270 480 270 480 245 480 c 2,18,-1
 217 480 l 1,19,-1
 217 337 l 1,20,-1
 244 337 l 2,21,14
 270 337 270 337 281.5 352.5 c 128,-1,15
392 816 m 1,22,-1
 288 680 l 1,23,-1
 175 680 l 1,24,-1
 237 816 l 1,25,-1
 392 816 l 1,22,-1
EndSplineSet
EndChar

StartChar: Rcommaaccent
Encoding: 342 342 212
Width: 505
GlyphClass: 2
Flags: W
LayerCount: 2
Fore
SplineSet
480 434 m 0,0,1
 480 377 480 377 462.5 339 c 128,-1,2
 445 301 445 301 409 270 c 1,3,-1
 494 0 l 1,4,-1
 304 0 l 1,5,-1
 241 229 l 1,6,-1
 217 229 l 1,7,-1
 217 0 l 1,8,-1
 45 0 l 1,9,-1
 45 636 l 1,10,-1
 283 636 l 2,11,12
 385 636 385 636 432.5 587.5 c 128,-1,13
 480 539 480 539 480 434 c 0,0,1
281.5 352.5 m 128,-1,15
 293 368 293 368 293 408.5 c 128,-1,16
 293 449 293 449 281.5 464.5 c 128,-1,17
 270 480 270 480 245 480 c 2,18,-1
 217 480 l 1,19,-1
 217 337 l 1,20,-1
 244 337 l 2,21,14
 270 337 270 337 281.5 352.5 c 128,-1,15
169 -78 m 0,22,23
 169 -9 169 -9 263 -9 c 128,-1,24
 357 -9 357 -9 357 -80 c 0,25,26
 357 -135 357 -135 279 -179 c 1,27,-1
 197 -173 l 1,28,-1
 233 -131 l 1,29,30
 204 -131 204 -131 186.5 -117.5 c 128,-1,31
 169 -104 169 -104 169 -78 c 0,22,23
EndSplineSet
EndChar

StartChar: rcommaaccent
Encoding: 343 343 213
Width: 320
GlyphClass: 2
Flags: W
LayerCount: 2
Fore
SplineSet
201 275 m 2,0,-1
 201 0 l 1,1,-1
 31 0 l 1,2,-1
 31 490 l 1,3,-1
 180 490 l 1,4,-1
 190 461 l 1,5,-1
 195 461 l 1,6,7
 219 488 219 488 242.5 495.5 c 128,-1,8
 266 503 266 503 321 503 c 1,9,-1
 313 339 l 1,10,-1
 266 339 l 2,11,12
 226 339 226 339 213.5 326.5 c 128,-1,13
 201 314 201 314 201 275 c 2,0,-1
36 -78 m 0,14,15
 36 -9 36 -9 130 -9 c 128,-1,16
 224 -9 224 -9 224 -80 c 0,17,18
 224 -135 224 -135 145 -179 c 1,19,-1
 63 -173 l 1,20,-1
 100 -131 l 1,21,22
 71 -131 71 -131 53.5 -117.5 c 128,-1,23
 36 -104 36 -104 36 -78 c 0,14,15
EndSplineSet
EndChar

StartChar: Rcaron
Encoding: 344 344 214
Width: 505
GlyphClass: 2
Flags: W
LayerCount: 2
Fore
SplineSet
480 434 m 0,0,1
 480 377 480 377 462.5 339 c 128,-1,2
 445 301 445 301 409 270 c 1,3,-1
 494 0 l 1,4,-1
 304 0 l 1,5,-1
 241 229 l 1,6,-1
 217 229 l 1,7,-1
 217 0 l 1,8,-1
 45 0 l 1,9,-1
 45 636 l 1,10,-1
 283 636 l 2,11,12
 385 636 385 636 432.5 587.5 c 128,-1,13
 480 539 480 539 480 434 c 0,0,1
281.5 352.5 m 128,-1,15
 293 368 293 368 293 408.5 c 128,-1,16
 293 449 293 449 281.5 464.5 c 128,-1,17
 270 480 270 480 245 480 c 2,18,-1
 217 480 l 1,19,-1
 217 337 l 1,20,-1
 244 337 l 2,21,14
 270 337 270 337 281.5 352.5 c 128,-1,15
176 668 m 1,22,-1
 120 800 l 1,23,-1
 215 800 l 1,24,-1
 242 751 l 1,25,-1
 269 800 l 1,26,-1
 365 800 l 1,27,-1
 309 668 l 1,28,-1
 176 668 l 1,22,-1
EndSplineSet
EndChar

StartChar: rcaron
Encoding: 345 345 215
Width: 320
GlyphClass: 2
Flags: W
LayerCount: 2
Fore
SplineSet
201 275 m 2,0,-1
 201 0 l 1,1,-1
 31 0 l 1,2,-1
 31 490 l 1,3,-1
 180 490 l 1,4,-1
 190 461 l 1,5,-1
 195 461 l 1,6,7
 219 488 219 488 242.5 495.5 c 128,-1,8
 266 503 266 503 321 503 c 1,9,-1
 313 339 l 1,10,-1
 266 339 l 2,11,12
 226 339 226 339 213.5 326.5 c 128,-1,13
 201 314 201 314 201 275 c 2,0,-1
101 530 m 1,14,-1
 42 670 l 1,15,-1
 142 670 l 1,16,-1
 171 617 l 1,17,-1
 200 670 l 1,18,-1
 300 670 l 1,19,-1
 242 530 l 1,20,-1
 101 530 l 1,14,-1
EndSplineSet
EndChar

StartChar: Scaron
Encoding: 352 352 216
Width: 437
GlyphClass: 2
Flags: W
LayerCount: 2
Fore
SplineSet
69.5 591 m 128,-1,1
 123 646 123 646 215.5 646 c 128,-1,2
 308 646 308 646 406 628 c 1,3,-1
 385 464 l 1,4,5
 284 488 284 488 246 487 c 0,6,7
 198 487 198 487 198 449 c 0,8,9
 198 434 198 434 221 419 c 128,-1,10
 244 404 244 404 276.5 388.5 c 128,-1,11
 309 373 309 373 342 351 c 128,-1,12
 375 329 375 329 398 288 c 128,-1,13
 421 247 421 247 421 194 c 0,14,15
 421 97 421 97 368.5 43.5 c 128,-1,16
 316 -10 316 -10 220.5 -10 c 128,-1,17
 125 -10 125 -10 34 19 c 1,18,-1
 45 172 l 1,19,20
 155 140 155 140 198 140 c 128,-1,21
 241 140 241 140 241 178 c 0,22,23
 241 197 241 197 218 213.5 c 128,-1,24
 195 230 195 230 162 246.5 c 128,-1,25
 129 263 129 263 95.5 284.5 c 128,-1,26
 62 306 62 306 39 347 c 128,-1,27
 16 388 16 388 16 444 c 0,28,0
 16 536 16 536 69.5 591 c 128,-1,1
150 668 m 1,29,-1
 93 800 l 1,30,-1
 188 800 l 1,31,-1
 215 751 l 1,32,-1
 243 800 l 1,33,-1
 338 800 l 1,34,-1
 283 668 l 1,35,-1
 150 668 l 1,29,-1
EndSplineSet
EndChar

StartChar: scaron
Encoding: 353 353 217
Width: 379
GlyphClass: 2
Flags: W
LayerCount: 2
Fore
SplineSet
76.5 461.5 m 128,-1,1
 122 503 122 503 202 503 c 128,-1,2
 282 503 282 503 364 482 c 1,3,-1
 346 340 l 1,4,5
 242 364 242 364 206 364 c 0,6,7
 184 364 184 364 184 346 c 0,8,9
 184 335 184 335 208 326 c 0,10,11
 290 296 290 296 331.5 258 c 128,-1,12
 373 220 373 220 373 144.5 c 128,-1,13
 373 69 373 69 334 29.5 c 128,-1,14
 295 -10 295 -10 214.5 -10 c 128,-1,15
 134 -10 134 -10 54 10 c 1,16,-1
 66 148 l 1,17,18
 168 120 168 120 198 120.5 c 128,-1,19
 228 121 228 121 228 135.5 c 128,-1,20
 228 150 228 150 206 158 c 0,21,22
 115 193 115 193 73 232 c 128,-1,23
 31 271 31 271 31 345.5 c 128,-1,0
 31 420 31 420 76.5 461.5 c 128,-1,1
134 530 m 1,24,-1
 75 670 l 1,25,-1
 175 670 l 1,26,-1
 204 617 l 1,27,-1
 232 670 l 1,28,-1
 333 670 l 1,29,-1
 274 530 l 1,30,-1
 134 530 l 1,24,-1
EndSplineSet
EndChar

StartChar: Ydieresis
Encoding: 376 376 218
Width: 475
GlyphClass: 2
Flags: W
LayerCount: 2
Fore
SplineSet
475 636 m 1,0,-1
 324 197 l 1,1,-1
 324 0 l 1,2,-1
 150 0 l 1,3,-1
 150 197 l 1,4,-1
 0 636 l 1,5,-1
 193 636 l 1,6,-1
 239 429 l 1,7,-1
 247 429 l 1,8,-1
 291 636 l 1,9,-1
 475 636 l 1,0,-1
113 694.5 m 128,-1,11
 97 710 97 710 97 736 c 128,-1,12
 97 762 97 762 113 777.5 c 128,-1,13
 129 793 129 793 157.5 793 c 128,-1,14
 186 793 186 793 203 778 c 128,-1,15
 220 763 220 763 220 736 c 0,16,17
 220 679 220 679 156 679 c 0,18,10
 129 679 129 679 113 694.5 c 128,-1,11
277.5 694.5 m 128,-1,20
 261 710 261 710 261 736 c 128,-1,21
 261 762 261 762 277.5 777.5 c 128,-1,22
 294 793 294 793 323 793 c 128,-1,23
 352 793 352 793 368.5 778 c 128,-1,24
 385 763 385 763 385 736.5 c 128,-1,25
 385 710 385 710 368.5 694.5 c 128,-1,26
 352 679 352 679 323 679 c 128,-1,19
 294 679 294 679 277.5 694.5 c 128,-1,20
EndSplineSet
EndChar

StartChar: Zcaron
Encoding: 381 381 219
Width: 462
GlyphClass: 2
Flags: W
LayerCount: 2
Fore
SplineSet
453 0 m 1,0,-1
 35 0 l 1,1,-1
 31 94 l 1,2,-1
 218 477 l 1,3,-1
 20 477 l 1,4,-1
 10 636 l 1,5,-1
 442 636 l 1,6,-1
 447 536 l 1,7,-1
 269 146 l 1,8,-1
 453 146 l 1,9,-1
 453 0 l 1,0,-1
176 668 m 1,10,-1
 120 800 l 1,11,-1
 215 800 l 1,12,-1
 242 751 l 1,13,-1
 269 800 l 1,14,-1
 365 800 l 1,15,-1
 309 668 l 1,16,-1
 176 668 l 1,10,-1
EndSplineSet
EndChar

StartChar: zcaron
Encoding: 382 382 220
Width: 402
GlyphClass: 2
Flags: W
LayerCount: 2
Fore
SplineSet
390 0 m 1,0,-1
 23 0 l 1,1,-1
 18 98 l 1,2,-1
 170 347 l 1,3,-1
 12 347 l 1,4,-1
 12 490 l 1,5,-1
 380 490 l 1,6,-1
 386 399 l 1,7,-1
 240 141 l 1,8,-1
 390 141 l 1,9,-1
 390 0 l 1,0,-1
137 530 m 1,10,-1
 78 670 l 1,11,-1
 178 670 l 1,12,-1
 207 617 l 1,13,-1
 236 670 l 1,14,-1
 336 670 l 1,15,-1
 278 530 l 1,16,-1
 137 530 l 1,10,-1
EndSplineSet
EndChar

StartChar: florin
Encoding: 402 402 221
Width: 377
GlyphClass: 2
Flags: W
LayerCount: 2
Fore
SplineSet
94 -151 m 0,0,1
 52 -151 52 -151 6 -140 c 1,2,-1
 13 6 l 1,3,4
 50 0 50 0 63 0 c 0,5,6
 73 0 73 0 76 15 c 2,7,-1
 101 332 l 1,8,-1
 43 332 l 1,9,-1
 52 433 l 1,10,-1
 109 433 l 1,11,-1
 115 508 l 2,12,13
 121 582 121 582 162 623 c 128,-1,14
 203 664 203 664 259.5 664 c 128,-1,15
 316 664 316 664 372 654 c 1,16,-1
 349 496 l 1,17,18
 308 505 308 505 299 505 c 128,-1,19
 290 505 290 505 288 492 c 2,20,-1
 283 433 l 1,21,-1
 344 433 l 1,22,-1
 334 332 l 1,23,-1
 274 332 l 1,24,-1
 248 7 l 2,25,26
 242 -69 242 -69 203 -110 c 128,-1,27
 164 -151 164 -151 94 -151 c 0,0,1
EndSplineSet
EndChar

StartChar: circumflex
Encoding: 710 710 222
Width: 512
GlyphClass: 2
Flags: W
LayerCount: 2
Fore
SplineSet
340 671 m 1,0,-1
 408 532 l 1,1,-1
 299 532 l 1,2,-1
 263 590 l 1,3,-1
 227 532 l 1,4,-1
 118 532 l 1,5,-1
 185 671 l 1,6,-1
 340 671 l 1,0,-1
EndSplineSet
EndChar

StartChar: caron
Encoding: 711 711 223
Width: 512
GlyphClass: 2
Flags: W
LayerCount: 2
Fore
SplineSet
186 530 m 1,0,-1
 127 670 l 1,1,-1
 227 670 l 1,2,-1
 256 617 l 1,3,-1
 285 670 l 1,4,-1
 385 670 l 1,5,-1
 327 530 l 1,6,-1
 186 530 l 1,0,-1
EndSplineSet
EndChar

StartChar: breve
Encoding: 728 728 224
Width: 512
GlyphClass: 2
Flags: W
LayerCount: 2
Fore
SplineSet
275.5 631 m 128,-1,1
 303 631 303 631 303 679 c 1,2,-1
 415 679 l 1,3,4
 412 518 412 518 273 518 c 128,-1,5
 134 518 134 518 134 679 c 1,6,-1
 248 679 l 1,7,0
 248 631 248 631 275.5 631 c 128,-1,1
EndSplineSet
EndChar

StartChar: dotaccent
Encoding: 729 729 225
Width: 512
GlyphClass: 2
Flags: W
LayerCount: 2
Fore
SplineSet
173 584 m 128,-1,1
 173 625 173 625 194.5 644.5 c 128,-1,2
 216 664 216 664 265 664 c 128,-1,3
 314 664 314 664 335.5 644.5 c 128,-1,4
 357 625 357 625 357 584.5 c 128,-1,5
 357 544 357 544 335.5 525 c 128,-1,6
 314 506 314 506 265 506 c 128,-1,7
 216 506 216 506 194.5 524.5 c 128,-1,0
 173 543 173 543 173 584 c 128,-1,1
EndSplineSet
EndChar

StartChar: ring
Encoding: 730 730 226
Width: 512
GlyphClass: 2
Flags: W
LayerCount: 2
Fore
SplineSet
199.5 665 m 128,-1,1
 224 687 224 687 264 687 c 128,-1,2
 304 687 304 687 327.5 666 c 128,-1,3
 351 645 351 645 351 607 c 128,-1,4
 351 569 351 569 327.5 547 c 128,-1,5
 304 525 304 525 264 525 c 128,-1,6
 224 525 224 525 199.5 546.5 c 128,-1,7
 175 568 175 568 175 605.5 c 128,-1,0
 175 643 175 643 199.5 665 c 128,-1,1
263.5 637 m 128,-1,9
 241 637 241 637 241 607 c 128,-1,10
 241 577 241 577 263.5 577 c 128,-1,11
 286 577 286 577 286 607 c 128,-1,8
 286 637 286 637 263.5 637 c 128,-1,9
EndSplineSet
EndChar

StartChar: ogonek
Encoding: 731 731 227
Width: 512
GlyphClass: 2
Flags: W
LayerCount: 2
Fore
SplineSet
180 -95 m 0,0,1
 180 -47 180 -47 238 0 c 1,2,-1
 324 0 l 1,3,4
 280 -51 280 -51 280 -76 c 0,5,6
 280 -85 280 -85 292.5 -85 c 128,-1,7
 305 -85 305 -85 325 -66 c 1,8,-1
 357 -123 l 1,9,10
 311 -167 311 -167 257 -167 c 0,11,12
 223 -167 223 -167 201.5 -149 c 128,-1,13
 180 -131 180 -131 180 -95 c 0,0,1
EndSplineSet
EndChar

StartChar: tilde
Encoding: 732 732 228
Width: 512
GlyphClass: 2
Flags: W
LayerCount: 2
Fore
SplineSet
418 676 m 1,0,-1
 418 668 l 2,1,2
 418 602 418 602 399.5 568.5 c 128,-1,3
 381 535 381 535 326 535 c 0,4,5
 289 535 289 535 244 551 c 2,6,-1
 219 559 l 1,7,-1
 219 523 l 1,8,-1
 108 523 l 1,9,-1
 108 534 l 2,10,11
 108 601 108 601 127 634 c 128,-1,12
 146 667 146 667 196 667 c 0,13,14
 212 667 212 667 287 647 c 2,15,-1
 307 642 l 1,16,-1
 307 676 l 1,17,-1
 418 676 l 1,0,-1
EndSplineSet
EndChar

StartChar: hungarumlaut
Encoding: 733 733 229
Width: 512
GlyphClass: 2
Flags: W
LayerCount: 2
Fore
SplineSet
298 675 m 1,0,-1
 185 520 l 1,1,-1
 95 520 l 1,2,-1
 174 675 l 1,3,-1
 298 675 l 1,0,-1
462 675 m 1,4,-1
 339 520 l 1,5,-1
 247 520 l 1,6,-1
 327 675 l 1,7,-1
 462 675 l 1,4,-1
EndSplineSet
EndChar

StartChar: dotaccentcmb
Encoding: 775 775 230
Width: 512
GlyphClass: 2
Flags: W
LayerCount: 2
Fore
SplineSet
173 584 m 128,-1,1
 173 625 173 625 194.5 644.5 c 128,-1,2
 216 664 216 664 265 664 c 128,-1,3
 314 664 314 664 335.5 644.5 c 128,-1,4
 357 625 357 625 357 584.5 c 128,-1,5
 357 544 357 544 335.5 525 c 128,-1,6
 314 506 314 506 265 506 c 128,-1,7
 216 506 216 506 194.5 524.5 c 128,-1,0
 173 543 173 543 173 584 c 128,-1,1
EndSplineSet
EndChar

StartChar: Delta
Encoding: 916 916 231
AltUni2: 002206.ffffffff.0 002206.ffffffff.0
Width: 509
GlyphClass: 2
Flags: W
LayerCount: 2
Fore
SplineSet
8 0 m 1,0,-1
 127 636 l 1,1,-1
 385 636 l 1,2,-1
 502 0 l 1,3,-1
 8 0 l 1,0,-1
202 154 m 1,4,-1
 306 154 l 1,5,-1
 258 443 l 1,6,-1
 249 443 l 1,7,-1
 202 154 l 1,4,-1
EndSplineSet
EndChar

StartChar: Omega
Encoding: 937 937 232
AltUni2: 002126.ffffffff.0 002126.ffffffff.0
Width: 563
GlyphClass: 2
Flags: W
LayerCount: 2
Fore
SplineSet
280.5 646 m 128,-1,1
 528 646 528 646 528 369 c 0,2,3
 528 294 528 294 508 241 c 128,-1,4
 488 188 488 188 447 140 c 1,5,-1
 447 136 l 1,6,-1
 530 136 l 1,7,-1
 530 0 l 1,8,-1
 298 0 l 1,9,-1
 298 126 l 1,10,11
 354 206 354 206 354 325 c 0,12,13
 354 430 354 430 336 457 c 0,14,15
 319 485 319 485 275.5 484.5 c 128,-1,16
 232 484 232 484 219 447 c 128,-1,17
 206 410 206 410 206 314 c 128,-1,18
 206 218 206 218 263 127 c 1,19,-1
 263 0 l 1,20,-1
 33 0 l 1,21,-1
 33 136 l 1,22,-1
 109 136 l 1,23,-1
 109 140 l 1,24,25
 33 243 33 243 33 376 c 0,26,0
 33 646 33 646 280.5 646 c 128,-1,1
EndSplineSet
EndChar

StartChar: pi
Encoding: 960 960 233
Width: 520
GlyphClass: 2
Flags: W
LayerCount: 2
Fore
SplineSet
468 0 m 1,0,-1
 294 0 l 1,1,-1
 294 345 l 1,2,-1
 223 345 l 1,3,-1
 223 0 l 1,4,-1
 51 0 l 1,5,-1
 51 345 l 1,6,-1
 13 345 l 1,7,-1
 13 485 l 1,8,-1
 507 485 l 1,9,-1
 507 345 l 1,10,-1
 468 345 l 1,11,-1
 468 0 l 1,0,-1
EndSplineSet
EndChar

StartChar: endash
Encoding: 8211 8211 234
Width: 439
GlyphClass: 2
Flags: W
LayerCount: 2
Fore
SplineSet
390 190 m 1,0,-1
 49 190 l 1,1,-1
 49 328 l 1,2,-1
 390 328 l 1,3,-1
 390 190 l 1,0,-1
EndSplineSet
EndChar

StartChar: emdash
Encoding: 8212 8212 235
Width: 654
GlyphClass: 2
Flags: W
LayerCount: 2
Fore
SplineSet
605 190 m 1,0,-1
 49 190 l 1,1,-1
 49 328 l 1,2,-1
 605 328 l 1,3,-1
 605 190 l 1,0,-1
EndSplineSet
EndChar

StartChar: quoteleft
Encoding: 8216 8216 236
Width: 242
GlyphClass: 2
Flags: W
LayerCount: 2
Fore
SplineSet
105.5 397 m 128,-1,1
 14 397 14 397 14 490 c 128,-1,2
 14 583 14 583 143 664 c 1,3,-1
 204 641 l 1,4,-1
 140 558 l 1,5,-1
 142 553 l 1,6,7
 196 542 196 542 197 478 c 0,8,0
 197 397 197 397 105.5 397 c 128,-1,1
EndSplineSet
EndChar

StartChar: quoteright
Encoding: 8217 8217 237
Width: 242
GlyphClass: 2
Flags: W
LayerCount: 2
Fore
SplineSet
137 656 m 128,-1,1
 228 656 228 656 228 563.5 c 128,-1,2
 228 471 228 471 99 390 c 1,3,-1
 39 413 l 1,4,-1
 102 496 l 1,5,-1
 100 501 l 1,6,7
 46 512 46 512 46 575 c 0,8,0
 46 656 46 656 137 656 c 128,-1,1
EndSplineSet
EndChar

StartChar: quotesinglbase
Encoding: 8218 8218 238
Width: 242
GlyphClass: 2
Flags: W
LayerCount: 2
Fore
SplineSet
137 144 m 128,-1,1
 228 144 228 144 228 51.5 c 128,-1,2
 228 -41 228 -41 99 -122 c 1,3,-1
 39 -99 l 1,4,-1
 102 -16 l 1,5,-1
 100 -11 l 1,6,7
 46 0 46 0 46 63 c 0,8,0
 46 144 46 144 137 144 c 128,-1,1
EndSplineSet
EndChar

StartChar: quotedblleft
Encoding: 8220 8220 239
Width: 447
GlyphClass: 2
Flags: W
LayerCount: 2
Fore
SplineSet
310 397 m 128,-1,1
 219 397 219 397 219 490 c 128,-1,2
 219 583 219 583 348 664 c 1,3,-1
 409 641 l 1,4,-1
 345 558 l 1,5,-1
 347 553 l 1,6,7
 401 542 401 542 401 478 c 0,8,0
 401 397 401 397 310 397 c 128,-1,1
105.5 397 m 128,-1,10
 14 397 14 397 14 490 c 128,-1,11
 14 583 14 583 143 664 c 1,12,-1
 204 641 l 1,13,-1
 140 558 l 1,14,-1
 142 553 l 1,15,16
 196 542 196 542 197 478 c 0,17,9
 197 397 197 397 105.5 397 c 128,-1,10
EndSplineSet
EndChar

StartChar: quotedblright
Encoding: 8221 8221 240
Width: 447
GlyphClass: 2
Flags: W
LayerCount: 2
Fore
SplineSet
113 656 m 128,-1,1
 204 656 204 656 204 563.5 c 128,-1,2
 204 471 204 471 75 390 c 1,3,-1
 14 413 l 1,4,-1
 78 496 l 1,5,-1
 76 501 l 1,6,7
 22 512 22 512 22 575 c 0,8,0
 22 656 22 656 113 656 c 128,-1,1
317.5 656 m 128,-1,10
 409 656 409 656 409 563.5 c 128,-1,11
 409 471 409 471 280 390 c 1,12,-1
 219 413 l 1,13,-1
 283 496 l 1,14,-1
 281 501 l 1,15,16
 227 512 227 512 226 575 c 0,17,9
 226 656 226 656 317.5 656 c 128,-1,10
EndSplineSet
EndChar

StartChar: quotedblbase
Encoding: 8222 8222 241
Width: 447
GlyphClass: 2
Flags: W
LayerCount: 2
Fore
SplineSet
137 144 m 128,-1,1
 228 144 228 144 228 51.5 c 128,-1,2
 228 -41 228 -41 99 -122 c 1,3,-1
 39 -99 l 1,4,-1
 102 -16 l 1,5,-1
 100 -11 l 1,6,7
 46 0 46 0 46 63 c 0,8,0
 46 144 46 144 137 144 c 128,-1,1
342 144 m 128,-1,10
 433 144 433 144 433 51.5 c 128,-1,11
 433 -41 433 -41 304 -122 c 1,12,-1
 244 -99 l 1,13,-1
 307 -16 l 1,14,-1
 305 -11 l 1,15,16
 251 0 251 0 251 63 c 0,17,9
 251 144 251 144 342 144 c 128,-1,10
EndSplineSet
EndChar

StartChar: dagger
Encoding: 8224 8224 242
Width: 414
GlyphClass: 2
Flags: W
LayerCount: 2
Fore
SplineSet
31 341 m 1,0,-1
 31 477 l 1,1,-1
 129 477 l 1,2,-1
 129 623 l 1,3,-1
 281 623 l 1,4,-1
 281 477 l 1,5,-1
 384 477 l 1,6,-1
 384 341 l 1,7,-1
 281 341 l 1,8,-1
 281 -153 l 1,9,-1
 129 -153 l 1,10,-1
 129 341 l 1,11,-1
 31 341 l 1,0,-1
EndSplineSet
EndChar

StartChar: daggerdbl
Encoding: 8225 8225 243
Width: 428
GlyphClass: 2
Flags: W
LayerCount: 2
Fore
SplineSet
31 7 m 1,0,-1
 31 144 l 1,1,-1
 129 144 l 1,2,-1
 129 341 l 1,3,-1
 31 341 l 1,4,-1
 31 477 l 1,5,-1
 129 477 l 1,6,-1
 129 623 l 1,7,-1
 281 623 l 1,8,-1
 281 477 l 1,9,-1
 384 477 l 1,10,-1
 384 341 l 1,11,-1
 281 341 l 1,12,-1
 281 144 l 1,13,-1
 383 144 l 1,14,-1
 383 7 l 1,15,-1
 281 7 l 1,16,-1
 281 -153 l 1,17,-1
 129 -153 l 1,18,-1
 129 7 l 1,19,-1
 31 7 l 1,0,-1
EndSplineSet
EndChar

StartChar: bullet
Encoding: 8226 8226 244
Width: 422
GlyphClass: 2
Flags: W
LayerCount: 2
Fore
SplineSet
214 175 m 0,0,1
 84 175 84 175 84 307.5 c 128,-1,2
 84 440 84 440 214 440 c 0,3,4
 339 440 339 440 339 307.5 c 128,-1,5
 339 175 339 175 214 175 c 0,0,1
EndSplineSet
EndChar

StartChar: ellipsis
Encoding: 8230 8230 245
Width: 800
GlyphClass: 2
Flags: W
LayerCount: 2
Fore
SplineSet
68 70 m 0,0,1
 68 111 68 111 89.5 131 c 128,-1,2
 111 151 111 151 158 151 c 128,-1,3
 205 151 205 151 226.5 131 c 128,-1,4
 248 111 248 111 248 68 c 0,5,6
 248 -11 248 -11 158 -11 c 128,-1,7
 68 -11 68 -11 68 70 c 0,0,1
308 70 m 0,8,9
 308 111 308 111 329.5 131 c 128,-1,10
 351 151 351 151 398 151 c 128,-1,11
 445 151 445 151 466.5 131 c 128,-1,12
 488 111 488 111 488 68 c 0,13,14
 488 -11 488 -11 398 -11 c 128,-1,15
 308 -11 308 -11 308 70 c 0,8,9
553 70 m 0,16,17
 553 111 553 111 574.5 131 c 128,-1,18
 596 151 596 151 643 151 c 128,-1,19
 690 151 690 151 711.5 131 c 128,-1,20
 733 111 733 111 733 68 c 0,21,22
 733 -11 733 -11 643 -11 c 128,-1,23
 553 -11 553 -11 553 70 c 0,16,17
EndSplineSet
EndChar

StartChar: perthousand
Encoding: 8240 8240 246
Width: 1160
GlyphClass: 2
Flags: W
LayerCount: 2
Fore
SplineSet
567 646 m 1,0,-1
 383 -10 l 1,1,-1
 263 -10 l 1,2,-1
 446 646 l 1,3,-1
 567 646 l 1,0,-1
227 413 m 2,4,-1
 227 424 l 2,5,6
 227 484 227 484 223 505 c 128,-1,7
 219 526 219 526 210.5 533.5 c 128,-1,8
 202 541 202 541 187.5 541 c 128,-1,9
 173 541 173 541 165 533.5 c 128,-1,10
 157 526 157 526 154 508 c 0,11,12
 149 484 149 484 148 424 c 2,13,-1
 148 413 l 2,14,15
 148 344 148 344 153 321.5 c 128,-1,16
 158 299 158 299 166 292.5 c 128,-1,17
 174 286 174 286 189 286 c 128,-1,18
 204 286 204 286 211.5 292.5 c 128,-1,19
 219 299 219 299 223 319 c 0,20,21
 227 345 227 345 227 413 c 2,4,-1
342 417 m 128,-1,23
 342 296 342 296 310.5 241 c 128,-1,24
 279 186 279 186 188 186 c 128,-1,25
 97 186 97 186 65 241.5 c 128,-1,26
 33 297 33 297 33 417 c 128,-1,27
 33 537 33 537 64.5 591.5 c 128,-1,28
 96 646 96 646 187.5 646 c 128,-1,29
 279 646 279 646 310.5 592 c 128,-1,22
 342 538 342 538 342 417 c 128,-1,23
683 216 m 2,30,-1
 683 227 l 2,31,32
 683 287 683 287 679 308.5 c 128,-1,33
 675 330 675 330 666 337 c 128,-1,34
 657 344 657 344 643 344 c 128,-1,35
 629 344 629 344 620.5 337 c 128,-1,36
 612 330 612 330 608 311 c 0,37,38
 604 287 604 287 604 227 c 2,39,-1
 604 216 l 2,40,41
 604 147 604 147 608.5 124.5 c 128,-1,42
 613 102 613 102 621.5 95.5 c 128,-1,43
 630 89 630 89 644.5 89 c 128,-1,44
 659 89 659 89 667 95.5 c 128,-1,45
 675 102 675 102 678 123 c 0,46,47
 683 148 683 148 683 216 c 2,30,-1
798 220 m 128,-1,49
 798 99 798 99 766 44.5 c 128,-1,50
 734 -10 734 -10 643.5 -10 c 128,-1,51
 553 -10 553 -10 520.5 45 c 128,-1,52
 488 100 488 100 488 220 c 128,-1,53
 488 340 488 340 520 395 c 128,-1,54
 552 450 552 450 643 450 c 128,-1,55
 734 450 734 450 766 395.5 c 128,-1,48
 798 341 798 341 798 220 c 128,-1,49
1013 216 m 2,56,-1
 1013 227 l 2,57,58
 1013 287 1013 287 1009 308.5 c 128,-1,59
 1005 330 1005 330 996 337 c 128,-1,60
 987 344 987 344 972.5 344 c 128,-1,61
 958 344 958 344 950 337 c 128,-1,62
 942 330 942 330 938 311 c 0,63,64
 934 287 934 287 934 227 c 2,65,-1
 934 216 l 2,66,67
 934 147 934 147 938.5 124.5 c 128,-1,68
 943 102 943 102 951 95.5 c 128,-1,69
 959 89 959 89 974 89 c 128,-1,70
 989 89 989 89 997 95.5 c 128,-1,71
 1005 102 1005 102 1008 123 c 0,72,73
 1013 148 1013 148 1013 216 c 2,56,-1
1127 220 m 128,-1,75
 1127 99 1127 99 1095.5 44.5 c 128,-1,76
 1064 -10 1064 -10 973.5 -10 c 128,-1,77
 883 -10 883 -10 850.5 45 c 128,-1,78
 818 100 818 100 818 220 c 128,-1,79
 818 340 818 340 850 395 c 128,-1,80
 882 450 882 450 973 450 c 128,-1,81
 1064 450 1064 450 1095.5 395.5 c 128,-1,74
 1127 341 1127 341 1127 220 c 128,-1,75
EndSplineSet
EndChar

StartChar: guilsinglleft
Encoding: 8249 8249 247
Width: 325
GlyphClass: 2
Flags: W
LayerCount: 2
Fore
SplineSet
25 212 m 1,0,-1
 25 275 l 1,1,-1
 205 488 l 1,2,-1
 282 427 l 1,3,-1
 174 248 l 1,4,-1
 283 69 l 1,5,-1
 199 4 l 1,6,-1
 25 212 l 1,0,-1
EndSplineSet
EndChar

StartChar: guilsinglright
Encoding: 8250 8250 248
Width: 324
GlyphClass: 2
Flags: W
LayerCount: 2
Fore
SplineSet
300 275 m 1,0,-1
 300 212 l 1,1,-1
 129 4 l 1,2,-1
 43 69 l 1,3,-1
 152 248 l 1,4,-1
 44 427 l 1,5,-1
 123 488 l 1,6,-1
 300 275 l 1,0,-1
EndSplineSet
EndChar

StartChar: fraction
Encoding: 8260 8260 249
Width: 369
GlyphClass: 2
Flags: W
LayerCount: 2
Fore
SplineSet
380 636 m 1,0,-1
 159 -151 l 1,1,-1
 -10 -151 l 1,2,-1
 210 636 l 1,3,-1
 380 636 l 1,0,-1
EndSplineSet
EndChar

StartChar: Euro
Encoding: 8364 8364 250
Width: 510
GlyphClass: 2
Flags: W
LayerCount: 2
Fore
SplineSet
25 426 m 1,0,-1
 86 426 l 1,1,2
 122 646 122 646 327 646 c 0,3,4
 405 646 405 646 475 613 c 1,5,-1
 447 455 l 1,6,7
 367 482 367 482 336 481 c 0,8,9
 284 481 284 481 267 426 c 1,10,-1
 443 426 l 1,11,-1
 433 325 l 1,12,-1
 256 325 l 1,13,-1
 256 293 l 1,14,-1
 431 293 l 1,15,-1
 425 194 l 1,16,-1
 269 194 l 1,17,18
 286 145 286 145 339 144 c 0,19,20
 374 144 374 144 449 164 c 1,21,-1
 475 19 l 1,22,23
 394 -11 394 -11 312 -10 c 0,24,25
 124 -10 124 -10 87 194 c 1,26,-1
 25 194 l 1,27,-1
 25 293 l 1,28,-1
 80 293 l 1,29,-1
 80 325 l 1,30,-1
 25 325 l 1,31,-1
 25 426 l 1,0,-1
EndSplineSet
EndChar

StartChar: trademark
Encoding: 8482 8482 251
Width: 584
GlyphClass: 2
Flags: W
LayerCount: 2
Fore
SplineSet
234 551 m 1,0,-1
 175 551 l 1,1,-1
 175 287 l 1,2,-1
 87 287 l 1,3,-1
 87 551 l 1,4,-1
 25 551 l 1,5,-1
 30 636 l 1,6,-1
 240 636 l 1,7,-1
 234 551 l 1,0,-1
560 287 m 1,8,-1
 478 287 l 1,9,-1
 478 469 l 1,10,-1
 474 469 l 1,11,-1
 443 287 l 1,12,-1
 361 287 l 1,13,-1
 333 469 l 1,14,-1
 328 469 l 1,15,-1
 328 287 l 1,16,-1
 247 287 l 1,17,-1
 259 636 l 1,18,-1
 374 636 l 1,19,-1
 402 446 l 1,20,-1
 407 446 l 1,21,-1
 434 636 l 1,22,-1
 548 636 l 1,23,-1
 560 287 l 1,8,-1
EndSplineSet
EndChar

StartChar: partialdiff
Encoding: 8706 8706 252
Width: 479
GlyphClass: 2
Flags: W
LayerCount: 2
Fore
SplineSet
185 410 m 0,0,1
 224 410 224 410 261 403 c 1,2,-1
 264 407 l 1,3,4
 209 492 209 492 52 492 c 1,5,-1
 52 646 l 1,6,7
 459 646 459 646 459 271 c 0,8,9
 459 129 459 129 404.5 59.5 c 128,-1,10
 350 -10 350 -10 231 -10 c 0,11,12
 20 -10 20 -10 20 213 c 0,13,14
 20 309 20 309 64.5 359.5 c 128,-1,15
 109 410 109 410 185 410 c 0,0,1
237 288 m 0,16,17
 211 288 211 288 202 266.5 c 128,-1,18
 193 245 193 245 193 203.5 c 128,-1,19
 193 162 193 162 202 143.5 c 128,-1,20
 211 125 211 125 237 125 c 128,-1,21
 263 125 263 125 271.5 147.5 c 128,-1,22
 280 170 280 170 280 213 c 0,23,24
 280 288 280 288 237 288 c 0,16,17
EndSplineSet
EndChar

StartChar: product
Encoding: 8719 8719 253
Width: 590
GlyphClass: 2
Flags: W
LayerCount: 2
Fore
SplineSet
582 490 m 1,0,-1
 525 490 l 1,1,-1
 525 0 l 1,2,-1
 350 0 l 1,3,-1
 350 490 l 1,4,-1
 251 490 l 1,5,-1
 251 0 l 1,6,-1
 75 0 l 1,7,-1
 75 490 l 1,8,-1
 9 490 l 1,9,-1
 9 636 l 1,10,-1
 582 636 l 1,11,-1
 582 490 l 1,0,-1
EndSplineSet
EndChar

StartChar: summation
Encoding: 8721 8721 254
Width: 492
GlyphClass: 2
Flags: W
LayerCount: 2
Fore
SplineSet
470 477 m 1,0,-1
 300 477 l 1,1,-1
 403 344 l 1,2,-1
 403 297 l 1,3,-1
 284 146 l 1,4,-1
 480 146 l 1,5,-1
 480 0 l 1,6,-1
 32 0 l 1,7,-1
 26 116 l 1,8,-1
 183 314 l 1,9,-1
 15 511 l 1,10,-1
 19 631 l 1,11,-1
 470 631 l 1,12,-1
 470 477 l 1,0,-1
EndSplineSet
EndChar

StartChar: minus
Encoding: 8722 8722 255
Width: 493
GlyphClass: 2
Flags: W
LayerCount: 2
Fore
SplineSet
440 237 m 1,0,-1
 53 237 l 1,1,-1
 53 366 l 1,2,-1
 440 366 l 1,3,-1
 440 237 l 1,0,-1
EndSplineSet
EndChar

StartChar: radical
Encoding: 8730 8730 256
Width: 612
GlyphClass: 2
Flags: W
LayerCount: 2
Fore
SplineSet
295 114 m 1,0,-1
 455 852 l 1,1,-1
 826 852 l 1,2,-1
 807 714 l 1,3,-1
 596 714 l 1,4,-1
 379 -133 l 1,5,-1
 188 -133 l 1,6,-1
 15 490 l 1,7,-1
 202 490 l 1,8,-1
 281 114 l 1,9,-1
 295 114 l 1,0,-1
EndSplineSet
EndChar

StartChar: infinity
Encoding: 8734 8734 257
Width: 683
GlyphClass: 2
Flags: W
LayerCount: 2
Fore
SplineSet
201 469 m 0,0,1
 284 469 284 469 335 390 c 1,2,-1
 339 390 l 1,3,4
 390 469 390 469 479 469 c 0,5,6
 552 469 552 469 595 418.5 c 128,-1,7
 638 368 638 368 638 275 c 128,-1,8
 638 182 638 182 595 131.5 c 128,-1,9
 552 81 552 81 479 81 c 0,10,11
 392 81 392 81 343 163 c 1,12,-1
 338 163 l 1,13,14
 282 81 282 81 205.5 81 c 128,-1,15
 129 81 129 81 87 131 c 128,-1,16
 45 181 45 181 45 273 c 128,-1,17
 45 365 45 365 87.5 417 c 128,-1,18
 130 469 130 469 201 469 c 0,0,1
285 274 m 1,19,20
 248 344 248 344 210.5 344 c 128,-1,21
 173 344 173 344 173 274.5 c 128,-1,22
 173 205 173 205 210 205 c 0,23,24
 251 204 251 204 285 274 c 1,19,20
471 344 m 0,25,26
 454 344 454 344 434 324.5 c 128,-1,27
 414 305 414 305 398 272 c 1,28,29
 431 204 431 204 471 205 c 0,30,31
 509 205 509 205 509 274.5 c 128,-1,32
 509 344 509 344 471 344 c 0,25,26
EndSplineSet
EndChar

StartChar: integral
Encoding: 8747 8747 258
Width: 451
GlyphClass: 2
Flags: W
LayerCount: 2
Fore
SplineSet
148 171 m 2,0,-1
 168 606 l 2,1,2
 174 727 174 727 234 791 c 128,-1,3
 294 855 294 855 427 855 c 2,4,-1
 487 855 l 1,5,-1
 479 722 l 1,6,7
 399 722 399 722 372.5 686.5 c 128,-1,8
 346 651 346 651 342 565 c 2,9,-1
 321 106 l 2,10,11
 315 -31 315 -31 255.5 -88 c 128,-1,12
 196 -145 196 -145 47 -145 c 2,13,-1
 -8 -145 l 1,14,15
 -6 -115 -6 -115 -1 -69.5 c 128,-1,16
 4 -24 4 -24 6 1 c 1,17,18
 40 2 40 2 63 5 c 128,-1,19
 86 8 86 8 102 19 c 128,-1,20
 118 30 118 30 126 38.5 c 128,-1,21
 134 47 134 47 139 72 c 0,22,23
 145 108 145 108 148 171 c 2,0,-1
EndSplineSet
EndChar

StartChar: approxequal
Encoding: 8776 8776 259
Width: 503
GlyphClass: 2
Flags: W
LayerCount: 2
Fore
SplineSet
463 269 m 1,0,-1
 463 256 l 2,1,2
 463 183 463 183 438 144 c 128,-1,3
 413 105 413 105 337 105 c 0,4,5
 292 105 292 105 206 134 c 1,6,-1
 206 99 l 1,7,-1
 49 99 l 1,8,-1
 49 114 l 2,9,10
 49 188 49 188 75.5 225.5 c 128,-1,11
 102 263 102 263 170 263 c 0,12,13
 206 263 206 263 306 234 c 1,14,-1
 306 269 l 1,15,-1
 463 269 l 1,0,-1
455 465 m 1,16,-1
 455 452 l 2,17,18
 455 379 455 379 429.5 340 c 128,-1,19
 404 301 404 301 329 301 c 0,20,21
 284 301 284 301 198 330 c 1,22,-1
 198 295 l 1,23,-1
 41 295 l 1,24,-1
 41 309 l 2,25,26
 41 383 41 383 67.5 421.5 c 128,-1,27
 94 460 94 460 162 460 c 0,28,29
 196 460 196 460 298 431 c 1,30,-1
 298 465 l 1,31,-1
 455 465 l 1,16,-1
EndSplineSet
EndChar

StartChar: notequal
Encoding: 8800 8800 260
Width: 464
GlyphClass: 2
Flags: W
LayerCount: 2
Fore
SplineSet
410 93 m 1,0,-1
 252 93 l 1,1,-1
 213 -27 l 1,2,-1
 58 -27 l 1,3,-1
 97 93 l 1,4,-1
 55 93 l 1,5,-1
 55 232 l 1,6,-1
 143 232 l 1,7,-1
 165 300 l 1,8,-1
 55 300 l 1,9,-1
 55 439 l 1,10,-1
 211 439 l 1,11,-1
 252 562 l 1,12,-1
 406 562 l 1,13,-1
 366 439 l 1,14,-1
 410 439 l 1,15,-1
 410 300 l 1,16,-1
 319 300 l 1,17,-1
 298 232 l 1,18,-1
 410 232 l 1,19,-1
 410 93 l 1,0,-1
EndSplineSet
EndChar

StartChar: lessequal
Encoding: 8804 8804 261
Width: 485
GlyphClass: 2
Flags: W
LayerCount: 2
Fore
SplineSet
436 161 m 1,0,-1
 49 306 l 1,1,-1
 49 464 l 1,2,-1
 436 614 l 1,3,-1
 436 451 l 1,4,-1
 209 386 l 1,5,-1
 436 324 l 1,6,-1
 436 161 l 1,0,-1
436 0 m 1,7,-1
 49 0 l 1,8,-1
 49 130 l 1,9,-1
 436 130 l 1,10,-1
 436 0 l 1,7,-1
EndSplineSet
EndChar

StartChar: greaterequal
Encoding: 8805 8805 262
Width: 485
GlyphClass: 2
Flags: W
LayerCount: 2
Fore
SplineSet
436 306 m 1,0,-1
 49 161 l 1,1,-1
 49 324 l 1,2,-1
 276 386 l 1,3,-1
 49 451 l 1,4,-1
 49 614 l 1,5,-1
 436 464 l 1,6,-1
 436 306 l 1,0,-1
436 0 m 1,7,-1
 49 0 l 1,8,-1
 49 130 l 1,9,-1
 436 130 l 1,10,-1
 436 0 l 1,7,-1
EndSplineSet
EndChar

StartChar: lozenge
Encoding: 9674 9674 263
Width: 590
GlyphClass: 2
Flags: W
LayerCount: 2
Fore
SplineSet
554 305 m 1,0,-1
 359 -58 l 1,1,-1
 239 -58 l 1,2,-1
 47 305 l 1,3,-1
 241 669 l 1,4,-1
 359 669 l 1,5,-1
 554 305 l 1,0,-1
395 305 m 1,6,-1
 300 499 l 1,7,-1
 207 305 l 1,8,-1
 300 111 l 1,9,-1
 395 305 l 1,6,-1
EndSplineSet
EndChar

StartChar: ff
Encoding: 64256 64256 264
Width: 566
GlyphClass: 2
Flags: W
LayerCount: 2
Fore
SplineSet
459 671 m 0,0,1
 522 671 522 671 592 665 c 1,2,-1
 578 515 l 1,3,4
 532 520 532 520 510.5 520 c 128,-1,5
 489 520 489 520 489 502 c 2,6,-1
 489 476 l 1,7,-1
 573 476 l 1,8,-1
 565 349 l 1,9,-1
 492 349 l 1,10,-1
 492 0 l 1,11,-1
 321 0 l 1,12,-1
 321 349 l 1,13,-1
 225 349 l 1,14,-1
 225 0 l 1,15,-1
 54 0 l 1,16,-1
 54 349 l 1,17,-1
 9 349 l 1,18,-1
 9 476 l 1,19,-1
 54 476 l 1,20,-1
 54 535 l 2,21,22
 54 671 54 671 193 671 c 0,23,24
 230 671 230 671 297 667 c 1,25,-1
 285 517 l 1,26,27
 251 520 251 520 242 520 c 0,28,29
 224 520 224 520 223 502 c 2,30,-1
 223 476 l 1,31,-1
 321 476 l 1,32,-1
 321 535 l 2,33,34
 321 671 321 671 459 671 c 0,0,1
EndSplineSet
EndChar

StartChar: fi
Encoding: 64257 64257 265
Width: 523
GlyphClass: 2
Flags: W
LayerCount: 2
Fore
SplineSet
193 664 m 0,0,1
 240 664 240 664 297 659 c 1,2,-1
 285 510 l 1,3,4
 249 513 249 513 242 513 c 0,5,6
 224 513 224 513 223 495 c 2,7,-1
 223 476 l 1,8,-1
 489 476 l 1,9,-1
 489 0 l 1,10,-1
 321 0 l 1,11,-1
 321 349 l 1,12,-1
 225 349 l 1,13,-1
 225 0 l 1,14,-1
 54 0 l 1,15,-1
 54 349 l 1,16,-1
 9 349 l 1,17,-1
 9 476 l 1,18,-1
 54 476 l 1,19,-1
 54 527 l 2,20,21
 55 664 55 664 193 664 c 0,0,1
312 584 m 128,-1,23
 312 625 312 625 333.5 644.5 c 128,-1,24
 355 664 355 664 404.5 664 c 128,-1,25
 454 664 454 664 475.5 644.5 c 128,-1,26
 497 625 497 625 497 584.5 c 128,-1,27
 497 544 497 544 475.5 525 c 128,-1,28
 454 506 454 506 404.5 506 c 128,-1,29
 355 506 355 506 333.5 524.5 c 128,-1,22
 312 543 312 543 312 584 c 128,-1,23
EndSplineSet
EndChar

StartChar: fl
Encoding: 64258 64258 266
Width: 528
GlyphClass: 2
Flags: W
LayerCount: 2
Fore
SplineSet
193 671 m 0,0,1
 248 671 248 671 297 667 c 1,2,-1
 285 517 l 1,3,4
 249 520 249 520 242 520 c 0,5,6
 224 520 224 520 223 502 c 2,7,-1
 223 476 l 1,8,-1
 321 476 l 1,9,-1
 321 656 l 1,10,-1
 489 656 l 1,11,-1
 489 167 l 2,12,13
 489 150 489 150 497 142.5 c 128,-1,14
 505 135 505 135 524 135 c 1,15,-1
 511 -10 l 1,16,-1
 455 -10 l 2,17,18
 387 -10 387 -10 354 18 c 128,-1,19
 321 46 321 46 321 113 c 2,20,-1
 321 349 l 1,21,-1
 225 349 l 1,22,-1
 225 0 l 1,23,-1
 54 0 l 1,24,-1
 54 349 l 1,25,-1
 9 349 l 1,26,-1
 9 476 l 1,27,-1
 54 476 l 1,28,-1
 54 535 l 2,29,30
 55 671 55 671 193 671 c 0,0,1
EndSplineSet
EndChar

StartChar: ffi
Encoding: 64259 64259 267
Width: 783
GlyphClass: 2
Flags: W
LayerCount: 2
Fore
SplineSet
459 671 m 0,0,1
 506 671 506 671 563 667 c 1,2,-1
 551 517 l 1,3,4
 515 520 515 520 508 520 c 0,5,6
 490 520 490 520 489 502 c 2,7,-1
 489 476 l 1,8,-1
 756 476 l 1,9,-1
 756 0 l 1,10,-1
 587 0 l 1,11,-1
 587 349 l 1,12,-1
 492 349 l 1,13,-1
 492 0 l 1,14,-1
 321 0 l 1,15,-1
 321 349 l 1,16,-1
 225 349 l 1,17,-1
 225 0 l 1,18,-1
 54 0 l 1,19,-1
 54 349 l 1,20,-1
 9 349 l 1,21,-1
 9 476 l 1,22,-1
 54 476 l 1,23,-1
 54 535 l 2,24,25
 54 671 54 671 193 671 c 0,26,27
 230 671 230 671 297 667 c 1,28,-1
 285 517 l 1,29,30
 251 520 251 520 242 520 c 0,31,32
 224 520 224 520 223 502 c 2,33,-1
 223 476 l 1,34,-1
 321 476 l 1,35,-1
 321 535 l 2,36,37
 321 671 321 671 459 671 c 0,0,1
572 590 m 128,-1,39
 572 631 572 631 593.5 650.5 c 128,-1,40
 615 670 615 670 664.5 670 c 128,-1,41
 714 670 714 670 735.5 650.5 c 128,-1,42
 757 631 757 631 757 590.5 c 128,-1,43
 757 550 757 550 735.5 531 c 128,-1,44
 714 512 714 512 664.5 512 c 128,-1,45
 615 512 615 512 593.5 530.5 c 128,-1,38
 572 549 572 549 572 590 c 128,-1,39
EndSplineSet
EndChar

StartChar: ffl
Encoding: 64260 64260 268
Width: 794
GlyphClass: 2
Flags: W
LayerCount: 2
Fore
SplineSet
459 671 m 0,0,1
 514 671 514 671 563 667 c 1,2,-1
 551 517 l 1,3,4
 515 520 515 520 508 520 c 0,5,6
 490 520 490 520 489 502 c 2,7,-1
 489 476 l 1,8,-1
 587 476 l 1,9,-1
 587 656 l 1,10,-1
 756 656 l 1,11,-1
 756 167 l 2,12,13
 756 150 756 150 763.5 142.5 c 128,-1,14
 771 135 771 135 791 135 c 1,15,-1
 777 -10 l 1,16,-1
 721 -10 l 2,17,18
 653 -10 653 -10 620 18 c 128,-1,19
 587 46 587 46 587 113 c 2,20,-1
 587 349 l 1,21,-1
 492 349 l 1,22,-1
 492 0 l 1,23,-1
 321 0 l 1,24,-1
 321 349 l 1,25,-1
 225 349 l 1,26,-1
 225 0 l 1,27,-1
 54 0 l 1,28,-1
 54 349 l 1,29,-1
 9 349 l 1,30,-1
 9 476 l 1,31,-1
 54 476 l 1,32,-1
 54 535 l 2,33,34
 54 671 54 671 193 671 c 0,35,36
 230 671 230 671 297 667 c 1,37,-1
 285 517 l 1,38,39
 251 520 251 520 242 520 c 0,40,41
 224 520 224 520 223 502 c 2,42,-1
 223 476 l 1,43,-1
 321 476 l 1,44,-1
 321 535 l 2,45,46
 321 671 321 671 459 671 c 0,0,1
EndSplineSet
EndChar

StartChar: uniE021
Encoding: 57377 57377 269
Width: 658
Flags: W
LayerCount: 2
Fore
SplineSet
146 590 m 1,0,1
 146 590 146 590 12 590 c 1,2,-1
 12 704 l 1,3,-1
 646 704 l 1,4,-1
 646 589 l 1,5,-1
 470 589 l 2,6,-1
 496 586 l 0,7,8
 514 584 514 584 546 552 c 0,9,10
 582 518 582 518 582 452 c 0,11,12
 582 400 582 400 566 363 c 0,13,14
 552 328 552 328 520 308 c 0,15,16
 472 276 472 276 452 275 c 2,17,18
 452 275 452 275 444 275 c 1,19,-1
 628 0 l 1,20,-1
 486 0 l 1,21,-1
 322 268 l 1,22,-1
 260 268 l 1,23,-1
 258 0 l 1,24,-1
 144 0 l 1,25,-1
 146 590 l 1,0,1
457 456 m 0,26,27
 457 503 457 503 421 524 c 0,28,29
 384 544 384 544 329 544 c 2,30,-1
 260 544 l 1,31,-1
 260 357 l 1,32,33
 260 358 260 358 340 358 c 2,34,35
 367 358 367 358 396 370 c 0,36,37
 426 383 426 383 441 407 c 0,38,39
 457 432 457 432 457 456 c 0,26,27
EndSplineSet
EndChar

StartChar: uniE022
Encoding: 57378 57378 270
Width: 739
Flags: W
LayerCount: 2
Fore
SplineSet
730 704 m 17,0,-1
 730 590 l 1,1,-1
 516 590 l 1,2,3
 548 586 548 586 548 586 c 2,4,5
 575 583 575 583 632 524 c 0,6,7
 695 457 695 457 695 327 c 0,8,9
 695 230 695 230 648 148 c 0,10,11
 606 74 606 74 532 37 c 0,12,13
 460 0 460 0 341 0 c 2,14,15
 341 0 341 0 191 0 c 1,16,-1
 192 262 l 1,17,-1
 76 262 l 1,18,-1
 97 357 l 1,19,-1
 191 357 l 1,20,21
 191 358 191 358 192 420 c 1,22,-1
 76 420 l 1,23,-1
 97 515 l 1,24,-1
 191 515 l 1,25,-1
 191 590 l 1,26,-1
 23 590 l 1,27,28
 24 610 24 610 24 638 c 0,29,30
 24 647 24 647 24 657 c 0,31,32
 24 677 24 677 23 701 c 9,33,-1
 730 704 l 17,0,-1
310 117 m 1,34,-1
 346 118 l 2,35,36
 399 119 399 119 452 145 c 0,37,38
 504 169 504 169 536 218 c 0,39,40
 562 258 562 258 562 332 c 0,41,42
 562 450 562 450 502 490 c 0,43,44
 420 544 420 544 350 544 c 0,45,46
 350 544 350 544 348 544 c 0,47,48
 336 544 336 544 325 544 c 2,49,50
 317 544 317 544 310 544 c 1,51,-1
 310 515 l 1,52,-1
 377 515 l 1,53,54
 356 420 356 420 356 420 c 1,55,-1
 310 420 l 1,56,-1
 310 357 l 1,57,-1
 377 357 l 1,58,59
 377 356 377 356 356 262 c 1,60,-1
 310 262 l 1,61,-1
 310 117 l 1,34,-1
EndSplineSet
EndChar

StartChar: uniE023
Encoding: 57379 57379 271
Width: 834
Flags: W
LayerCount: 2
Fore
SplineSet
187 524 m 0,0,1
 187 524 187 524 236 524 c 1,2,3
 198 445 198 445 174 414 c 1,4,-1
 278 414 l 1,5,-1
 334 590 l 1,6,-1
 23 590 l 1,7,-1
 23 704 l 1,8,-1
 811 704 l 1,9,-1
 811 590 l 1,10,-1
 520 590 l 1,11,-1
 573 414 l 1,12,-1
 667 414 l 1,13,14
 644 442 644 442 605 524 c 1,15,-1
 657 524 l 1,16,17
 663 518 663 518 683 495.5 c 128,-1,18
 703 473 703 473 712.5 463.5 c 128,-1,19
 722 454 722 454 738 439.5 c 128,-1,20
 754 425 754 425 768 415.5 c 128,-1,21
 782 406 782 406 796 399 c 1,22,-1
 796 386 l 1,23,-1
 796 352 l 1,24,25
 733 310 733 310 656 220 c 1,26,-1
 634 220 l 1,27,-1
 719 0 l 1,28,-1
 604 0 l 9,29,-1
 497 326 l 16,30,31
 497 326 497 326 352 326 c 1,32,-1
 256 0 l 1,33,-1
 146 0 l 1,34,-1
 219 220 l 1,35,-1
 193 220 l 1,36,37
 129 304 129 304 38 352 c 1,38,-1
 38 399 l 1,39,40
 118 443 118 443 187 524 c 0,0,1
620 261 m 1,41,42
 638 296 638 296 664 326 c 1,43,-1
 596 327 l 1,44,-1
 620 261 l 1,41,42
228 258 m 1,45,-1
 248 328 l 1,46,-1
 180 328 l 1,47,48
 202 308 202 308 228 258 c 1,45,-1
427 580 m 1,49,50
 426 580 426 580 384 414 c 1,51,-1
 466 414 l 1,52,-1
 427 580 l 1,49,50
EndSplineSet
EndChar

StartChar: uniE024
Encoding: 57380 57380 272
Width: 993
Flags: W
LayerCount: 2
Fore
SplineSet
439 500 m 0,0,1
 440 501 440 501 542 738 c 1,2,-1
 680 738 l 1,3,-1
 596 546 l 1,4,-1
 681 571 l 1,5,6
 680 578 680 578 680 585 c 0,7,8
 680 618 680 618 724 662 c 0,9,10
 764 702 764 702 820.5 702 c 128,-1,11
 877 702 877 702 917 662 c 128,-1,12
 957 622 957 622 957 566 c 128,-1,13
 957 510 957 510 917 470 c 0,14,15
 876 430 876 430 820 430 c 0,16,17
 759 430 759 430 727 465 c 0,18,19
 721 474 721 474 715 480 c 1,20,-1
 546 430 l 1,21,-1
 482 284 l 1,22,-1
 694 219 l 1,23,24
 700 232 700 232 718 249 c 0,25,26
 758 289 758 289 813 289 c 0,27,28
 814 288 814 288 814 288 c 0,29,30
 870 288 870 288 910.5 248 c 128,-1,31
 951 208 951 208 951 152 c 128,-1,32
 951 96 951 96 911 56 c 0,33,34
 870 16 870 16 814 16 c 0,35,36
 756 16 756 16 718 55 c 0,37,38
 686 90 686 90 680 120 c 1,39,-1
 444 194 l 1,40,-1
 360 0 l 1,41,-1
 222 0 l 1,42,-1
 323 232 l 1,43,-1
 265 250 l 1,44,45
 262 242 262 242 238 218 c 0,46,47
 210 190 210 190 149 190 c 0,48,49
 92 190 92 190 52 230 c 128,-1,50
 12 270 12 270 12 327 c 0,51,52
 12 383 12 383 52 423.5 c 128,-1,53
 92 464 92 464 149 464 c 0,54,55
 217 464 217 464 229 448 c 0,56,57
 232 444 232 444 236 440 c 1,58,59
 376 481 376 481 439 500 c 0,0,1
765 566.5 m 128,-1,61
 765 542 765 542 782 525 c 128,-1,62
 799 508 799 508 823.5 508 c 128,-1,63
 848 508 848 508 865 525 c 128,-1,64
 882 542 882 542 882 566.5 c 128,-1,65
 882 591 882 591 865 608 c 128,-1,66
 848 625 848 625 823.5 625 c 128,-1,67
 799 625 799 625 782 608 c 128,-1,60
 765 591 765 591 765 566.5 c 128,-1,61
761 150 m 128,-1,69
 761 126 761 126 778 109 c 128,-1,70
 795 92 795 92 819.5 92 c 128,-1,71
 844 92 844 92 861 109 c 128,-1,72
 878 126 878 126 878 150 c 128,-1,73
 878 174 878 174 861 191 c 128,-1,74
 844 208 844 208 819.5 208 c 128,-1,75
 795 208 795 208 778 191 c 128,-1,68
 761 174 761 174 761 150 c 128,-1,69
93 328 m 128,-1,77
 93 304 93 304 110 287 c 128,-1,78
 127 270 127 270 151.5 270 c 128,-1,79
 176 270 176 270 193 287 c 128,-1,80
 210 304 210 304 210 328 c 128,-1,81
 210 352 210 352 193 369 c 128,-1,82
 176 386 176 386 151.5 386 c 128,-1,83
 127 386 127 386 110 369 c 128,-1,76
 93 352 93 352 93 328 c 128,-1,77
390 385 m 1,84,85
 390 385 390 385 283 354 c 1,86,87
 284 349 284 349 284 344 c 1,88,-1
 362 320 l 1,89,-1
 390 385 l 1,84,85
EndSplineSet
EndChar

StartChar: uniE025
Encoding: 57381 57381 273
Width: 977
Flags: W
LayerCount: 2
Fore
SplineSet
93 328 m 128,-1,1
 93 304 93 304 110 287 c 128,-1,2
 127 270 127 270 151.5 270 c 128,-1,3
 176 270 176 270 193 287 c 128,-1,4
 210 304 210 304 210 328 c 128,-1,5
 210 352 210 352 193 369 c 128,-1,6
 176 386 176 386 151.5 386 c 128,-1,7
 127 386 127 386 110 369 c 128,-1,0
 93 352 93 352 93 328 c 128,-1,1
773 150 m 128,-1,9
 773 126 773 126 790 109 c 128,-1,10
 807 92 807 92 831.5 92 c 128,-1,11
 856 92 856 92 873 109 c 128,-1,12
 890 126 890 126 890 150 c 128,-1,13
 890 174 890 174 873 191 c 128,-1,14
 856 208 856 208 831.5 208 c 128,-1,15
 807 208 807 208 790 191 c 128,-1,8
 773 174 773 174 773 150 c 128,-1,9
777 566.5 m 128,-1,17
 777 542 777 542 794 525 c 128,-1,18
 811 508 811 508 835.5 508 c 128,-1,19
 860 508 860 508 877 525 c 128,-1,20
 894 542 894 542 894 566.5 c 128,-1,21
 894 591 894 591 877 608 c 128,-1,22
 860 625 860 625 835.5 625 c 128,-1,23
 811 625 811 625 794 608 c 128,-1,16
 777 591 777 591 777 566.5 c 128,-1,17
727 480 m 16,24,25
 727 480 727 480 498 414 c 1,26,27
 518 408 518 408 518 408 c 0,28,29
 538 402 538 402 576 382 c 0,30,31
 612 362 612 362 624 352 c 0,32,33
 644 332 644 332 656 316 c 0,34,35
 672 292 672 292 680 266 c 0,36,37
 688 237 688 237 690 224 c 1,38,-1
 706 219 l 1,39,40
 712 232 712 232 730 249 c 0,41,42
 770 289 770 289 825 289 c 0,43,44
 826 288 826 288 826 288 c 0,45,46
 882 288 882 288 922.5 248 c 128,-1,47
 963 208 963 208 963 152 c 128,-1,48
 963 96 963 96 923 56 c 0,49,50
 882 16 882 16 826 16 c 0,51,52
 768 16 768 16 730 55 c 0,53,54
 698 90 698 90 692 120 c 1,55,-1
 681 122 l 1,56,57
 667 78 667 78 631 44 c 0,58,59
 576 -10 576 -10 460 -10 c 0,60,61
 246 -10 246 -10 216 170 c 1,62,-1
 319 188 l 1,63,64
 334 140 334 140 372 110 c 0,65,66
 372 88 372 88 445 88 c 0,67,68
 449 88 449 88 452 88 c 8,69,70
 505 89 505 89 552 112 c 16,71,72
 573 122 573 122 582 153 c 1,73,-1
 265 250 l 1,74,75
 262 242 262 242 238 218 c 0,76,77
 210 190 210 190 149 190 c 0,78,79
 93 190 93 190 52.5 230 c 128,-1,80
 12 270 12 270 12 327 c 128,-1,81
 12 384 12 384 52 424 c 128,-1,82
 92 464 92 464 149 464 c 0,83,84
 215 464 215 464 229 448 c 0,85,86
 232 444 232 444 236 440 c 1,87,-1
 258 446 l 1,88,89
 248 480 248 480 248 522 c 0,90,91
 248 624 248 624 302 678 c 0,92,93
 368 744 368 744 445 745 c 0,94,95
 545 745 545 745 593.5 715 c 128,-1,96
 642 685 642 685 664 590 c 1,97,-1
 549 570 l 1,98,99
 539 612 539 612 512.5 624 c 128,-1,100
 486 636 486 636 446 636 c 0,101,102
 420 636 420 636 386 606 c 0,103,104
 366 589 366 589 362 546 c 0,105,106
 362 532 362 532 362 522 c 0,107,108
 362 492 362 492 368 483 c 0,109,110
 370 480 370 480 370 478 c 1,111,-1
 693 571 l 1,112,113
 692 578 692 578 692 585 c 0,114,115
 692 618 692 618 736 662 c 0,116,117
 776 702 776 702 832.5 702 c 128,-1,118
 889 702 889 702 929 662 c 128,-1,119
 969 622 969 622 969 566 c 128,-1,120
 969 510 969 510 929 470 c 0,121,122
 888 430 888 430 832 430 c 0,123,124
 770 430 770 430 739 465 c 8,125,126
 730 477 730 477 727 480 c 16,24,25
551 265 m 1,127,128
 548 268 548 268 546 270 c 0,129,130
 522 289 522 289 502 296 c 0,131,132
 458 312 458 312 440 318 c 0,133,134
 406 328 406 328 348 355 c 0,135,136
 336 362 336 362 324 366 c 1,137,-1
 283 354 l 1,138,139
 284 349 284 349 284 344 c 1,140,-1
 551 265 l 1,127,128
EndSplineSet
EndChar

StartChar: uniE026
Encoding: 57382 57382 274
Width: 880
Flags: W
LayerCount: 2
Fore
SplineSet
240 0 m 1,0,-1
 74 0 l 1,1,-1
 67 590 l 1,2,-1
 19 590 l 1,3,-1
 19 704 l 1,4,-1
 862 704 l 1,5,-1
 862 590 l 1,6,-1
 759 590 l 1,7,8
 774 590 774 590 812 542 c 0,9,10
 840 506 840 506 840 452 c 0,11,12
 840 452 840 452 840 450 c 0,13,14
 840 369 840 369 807 343.5 c 128,-1,15
 774 318 774 318 728 294 c 1,16,17
 728 294 728 294 862 0 c 1,18,-1
 736 0 l 1,19,-1
 614 268 l 1,20,-1
 582 268 l 1,21,-1
 574 0 l 1,22,-1
 410 0 l 1,23,24
 410 0 410 0 332 386 c 1,25,-1
 240 0 l 1,0,-1
726 482 m 0,26,27
 726 498 726 498 692 550 c 0,28,29
 672 580 672 580 600 580 c 2,30,-1
 590 580 l 1,31,-1
 589 383 l 1,32,-1
 610 383 l 2,33,34
 674 384 674 384 698 416 c 0,35,36
 726 454 726 454 726 482 c 0,26,27
174 590 m 1,37,-1
 173 194 l 1,38,39
 173 194 173 194 207 340 c 1,40,-1
 261 590 l 1,41,-1
 174 590 l 1,37,-1
399 590 m 1,42,-1
 452 312 l 2,43,44
 459 276 459 276 475 194 c 1,45,46
 478 234 478 234 478 234 c 1,47,-1
 482 590 l 1,48,49
 440 590 440 590 399 590 c 1,42,-1
EndSplineSet
EndChar

StartChar: uniE027
Encoding: 57383 57383 275
Width: 868
Flags: W
LayerCount: 2
Fore
SplineSet
379 590 m 129,-1,1
 379 590 379 590 274 590 c 1,2,-1
 274 540 l 1,3,-1
 369 540 l 1,4,0
 379 590 379 590 379 590 c 129,-1,1
621 202 m 17,5,-1
 658 590 l 1,6,-1
 525 590 l 9,7,-1
 621 202 l 17,5,-1
57 540 m 17,8,9
 57 540 57 540 160 540 c 1,10,-1
 160 590 l 1,11,-1
 23 590 l 1,12,-1
 23 704 l 1,13,-1
 845 704 l 1,14,-1
 845 590 l 1,15,-1
 768 590 l 1,16,-1
 704 0 l 1,17,-1
 558 0 l 1,18,-1
 452 423 l 9,19,20
 452 423 452 423 343 0 c 25,21,22
 343 0 343 0 180 0 c 17,23,-1
 166 288 l 1,24,-1
 40 288 l 1,25,26
 49 328 49 328 57 382 c 0,27,28
 57 382 57 382 164 382 c 1,29,-1
 162 444 l 1,30,-1
 35 444 l 9,31,-1
 57 540 l 17,8,9
275 444 m 1,32,-1
 277 382 l 1,33,-1
 325 382 l 1,34,-1
 342 444 l 1,35,-1
 275 444 l 1,32,-1
279 288 m 25,36,37
 279 288 279 288 301 288 c 1,38,-1
 278 198 l 9,39,-1
 279 288 l 25,36,37
EndSplineSet
EndChar
